<svg width="554" height="339" viewBox="0 0 554 339" fill="none" xmlns="http://www.w3.org/2000/svg">
<g clip-path="url(#clip0_105_559)">
<mask id="mask0_105_559" style="mask-type:luminance" maskUnits="userSpaceOnUse" x="175" y="0" width="204" height="244">
<path d="M175.807 142.671C175.807 116.855 185.689 91.0328 205.447 71.3343L277.005 0.000183105L348.556 71.3343C368.314 91.0328 378.197 116.852 378.197 142.668C378.197 168.485 368.316 194.304 348.558 214.001C328.796 233.702 302.898 243.554 277.002 243.554C251.106 243.554 225.213 233.705 205.452 214.008C185.688 194.307 175.807 168.488 175.807 142.671ZM206.116 196.787C208.476 199.851 211.061 202.798 213.875 205.602C219.41 211.119 225.492 215.758 231.943 219.523V181.922L206.116 196.787ZM322.059 181.922V219.526C328.509 215.761 334.591 211.122 340.124 205.606C342.939 202.799 345.526 199.851 347.886 196.786L322.059 181.921V181.922ZM271.042 87.0854V22.7469L230.125 63.5359L271.042 87.0854ZM271.042 138.898V100.747L221.438 72.1973L213.875 79.7366C208.297 85.2975 203.613 91.4114 199.819 97.9024L271.042 138.897V138.898ZM282.964 100.744V138.895L354.184 97.9024C350.393 91.4127 345.708 85.2975 340.131 79.738L332.567 72.1973L282.965 100.745L282.964 100.744ZM282.964 22.7469V87.084L323.878 63.5359L282.964 22.7469ZM188.357 132.094L241.57 162.72L265.133 149.157L194.536 108.525C191.376 116.115 189.319 124.052 188.357 132.094ZM229.702 169.551L187.772 145.419C188.215 159.791 192.131 174.082 199.522 186.922L229.703 169.551H229.702ZM366.233 145.416L324.3 169.551L354.482 186.922C361.873 174.078 365.79 159.79 366.233 145.416ZM312.432 162.72L365.646 132.093C364.686 124.05 362.626 116.112 359.467 108.523L288.869 149.158L312.432 162.721V162.72ZM273.984 209.185H261.802V197.041H273.984V209.185ZM292.202 197.039V209.184H280.02V197.039H292.202ZM280.02 178.879H292.202V191.024H280.02V178.879ZM261.802 178.879H273.984V191.024H261.802V178.879ZM243.866 175.06V225.334C254.479 229.558 265.741 231.67 277.002 231.67C288.263 231.67 299.524 229.556 310.136 225.335V175.06L277.002 155.989L243.866 175.06Z" fill="white"/>
</mask>
<g mask="url(#mask0_105_559)">
<path d="M378.197 0.000183105H175.807V243.554H378.197V0.000183105Z" fill="url(#paint0_linear_105_559)"/>
</g>
</g>
<path d="M2.97945 319.481C2.13325 318.902 2.04417 318.145 2.71223 317.21L3.24668 316.542C3.78113 315.785 4.53826 315.695 5.51808 316.274C6.76512 317.254 8.16805 318.011 9.72685 318.546C11.2857 319.08 12.8445 319.348 14.4033 319.348C16.452 319.348 18.0999 318.858 19.3469 317.878C20.5939 316.898 21.2175 315.584 21.2175 313.936C21.2175 312.689 20.7721 311.687 19.8813 310.93C18.9906 310.128 17.8772 309.438 16.5411 308.859C15.2049 308.235 13.7575 307.656 12.1987 307.122C10.6844 306.543 9.25921 305.853 7.92309 305.051C6.58697 304.249 5.47354 303.27 4.5828 302.112C3.69205 300.954 3.24668 299.439 3.24668 297.569C3.24668 296.188 3.5139 294.919 4.04835 293.761C4.5828 292.603 5.33993 291.601 6.31975 290.755C7.34411 289.908 8.54661 289.263 9.92727 288.817C11.3525 288.372 12.9335 288.149 14.6705 288.149C16.3629 288.149 18.0108 288.394 19.6141 288.884C21.2175 289.374 22.6427 290.042 23.8897 290.888C24.7359 291.467 24.8918 292.202 24.3573 293.093L23.8897 293.828C23.3553 294.763 22.5981 294.919 21.6183 294.295C20.5939 293.627 19.4582 293.115 18.2112 292.759C16.9642 292.358 15.6948 292.158 14.4033 292.158C12.31 292.158 10.6844 292.625 9.52643 293.56C8.36846 294.496 7.78948 295.765 7.78948 297.368C7.78948 298.66 8.23485 299.707 9.1256 300.508C10.0163 301.31 11.1075 302.023 12.3991 302.646C13.7352 303.225 15.1827 303.782 16.7415 304.316C18.3003 304.851 19.7255 305.519 21.017 306.32C22.3532 307.122 23.4666 308.124 24.3573 309.327C25.2481 310.485 25.6935 311.999 25.6935 313.869C25.6935 315.295 25.404 316.586 24.825 317.744C24.2905 318.902 23.5111 319.904 22.4868 320.75C21.507 321.552 20.3044 322.176 18.8793 322.621C17.4986 323.111 15.9843 323.356 14.3365 323.356C12.1987 323.356 10.1277 323.022 8.12351 322.354C6.11933 321.641 4.40465 320.684 2.97945 319.481ZM33.5541 290.621C33.5541 289.508 34.1108 288.951 35.2243 288.951H36.4268C37.4957 288.951 38.0301 289.508 38.0301 290.621V294.496C38.0301 294.986 37.9856 295.453 37.8965 295.899C37.852 296.344 37.8074 296.678 37.7629 296.901H37.8965C38.3419 295.698 38.9877 294.585 39.8339 293.56C40.7246 292.492 41.7267 291.556 42.8401 290.755C43.9536 289.953 45.1338 289.329 46.3808 288.884C47.6724 288.394 48.964 288.149 50.2556 288.149C56.179 288.194 59.6307 291 60.6105 296.567H60.7441C61.2786 295.364 61.9689 294.251 62.8151 293.226C63.7058 292.202 64.7079 291.311 65.8213 290.554C66.9348 289.797 68.115 289.218 69.3621 288.817C70.6091 288.372 71.8561 288.149 73.1032 288.149C76.9334 288.149 79.7392 289.218 81.5207 291.356C83.3468 293.449 84.2598 296.723 84.2598 301.176V320.884C84.2598 321.997 83.7031 322.554 82.5896 322.554H81.3871C80.2737 322.554 79.717 321.997 79.717 320.884V302.312C79.717 298.838 79.138 296.299 77.98 294.696C76.8666 293.093 75.0406 292.291 72.5019 292.291C70.9431 292.291 69.4734 292.67 68.0928 293.427C66.7566 294.184 65.5764 295.208 64.552 296.5C63.5277 297.747 62.7037 299.217 62.0802 300.909C61.5012 302.602 61.2117 304.405 61.2117 306.32V320.884C61.2117 321.997 60.6773 322.554 59.6084 322.554H58.3391C57.2257 322.554 56.6689 321.997 56.6689 320.884V302.312C56.6689 298.794 56.1122 296.255 54.9988 294.696C53.8854 293.093 52.0816 292.291 49.5875 292.291C48.0287 292.291 46.559 292.67 45.1783 293.427C43.7977 294.184 42.5729 295.208 41.504 296.5C40.4797 297.747 39.6557 299.239 39.0322 300.976C38.4087 302.668 38.0969 304.45 38.0969 306.32V320.884C38.0969 321.997 37.5625 322.554 36.4936 322.554H35.2243C34.1108 322.554 33.5541 321.997 33.5541 320.884V290.621ZM91.2243 313.535C91.2243 309.883 93.0058 307.055 96.5688 305.051C100.132 303.002 105.187 301.978 111.734 301.978H113.671V300.909C113.671 295.119 110.91 292.224 105.387 292.224C104.006 292.224 102.604 292.425 101.178 292.826C99.7532 293.226 98.4393 293.805 97.2368 294.563C96.257 295.097 95.4999 294.919 94.9654 294.028L94.5646 293.36C93.9411 292.425 94.0969 291.668 95.0322 291.089C96.502 290.198 98.1721 289.485 100.043 288.951C101.958 288.416 103.851 288.149 105.721 288.149C109.774 288.149 112.869 289.263 115.007 291.489C117.145 293.672 118.214 296.856 118.214 301.043V320.884C118.214 321.997 117.679 322.554 116.611 322.554H115.542C114.428 322.554 113.871 321.997 113.871 320.884V318.212C113.871 317.677 113.871 317.187 113.871 316.742C113.916 316.252 113.983 315.896 114.072 315.673H113.938C113.938 315.673 113.738 316.074 113.337 316.876C112.936 317.677 112.29 318.568 111.4 319.548C110.509 320.483 109.329 321.352 107.859 322.153C106.434 322.955 104.675 323.356 102.581 323.356C100.933 323.356 99.3969 323.111 97.9717 322.621C96.591 322.131 95.3885 321.463 94.3642 320.617C93.3843 319.726 92.6049 318.679 92.026 317.477C91.4915 316.274 91.2243 314.961 91.2243 313.535ZM95.9007 313.135C95.9007 315.005 96.591 316.542 97.9717 317.744C99.3969 318.947 101.201 319.548 103.383 319.548C104.764 319.548 106.077 319.236 107.325 318.613C108.572 317.945 109.663 317.054 110.598 315.94C111.533 314.782 112.268 313.446 112.803 311.932C113.382 310.373 113.671 308.725 113.671 306.988V305.385H111.801C106.545 305.385 102.581 306.053 99.9091 307.389C97.2368 308.681 95.9007 310.596 95.9007 313.135ZM128.022 290.621C128.022 289.508 128.579 288.951 129.692 288.951H130.894C131.963 288.951 132.498 289.508 132.498 290.621V295.164C132.498 295.743 132.453 296.277 132.364 296.767C132.32 297.257 132.275 297.613 132.231 297.836H132.364C133.255 295.075 134.68 292.87 136.64 291.222C138.599 289.574 140.782 288.75 143.187 288.75C144.345 288.75 144.924 289.285 144.924 290.354V291.556C144.924 292.67 144.3 293.226 143.053 293.226C141.539 293.226 140.136 293.627 138.844 294.429C137.597 295.186 136.506 296.233 135.571 297.569C134.636 298.905 133.901 300.508 133.366 302.379C132.832 304.205 132.565 306.187 132.565 308.325V320.884C132.565 321.997 132.03 322.554 130.961 322.554H129.692C128.579 322.554 128.022 321.997 128.022 320.884V290.621ZM151.931 293.026H149.125C148.056 293.026 147.522 292.492 147.522 291.423V290.888C147.522 289.775 148.056 289.218 149.125 289.218H151.998V281.335C151.998 280.222 152.555 279.665 153.668 279.665H154.87C155.939 279.665 156.474 280.222 156.474 281.335V289.218H163.288C164.401 289.218 164.958 289.775 164.958 290.888V291.423C164.958 292.492 164.401 293.026 163.288 293.026H156.474V309.861C156.474 312.578 157.097 314.716 158.344 316.274C159.636 317.789 161.462 318.59 163.822 318.679C164.491 318.769 164.958 318.947 165.225 319.214C165.493 319.437 165.626 319.815 165.626 320.35V321.218C165.626 322.287 165.003 322.821 163.756 322.821C159.97 322.821 157.053 321.753 155.004 319.615C152.955 317.432 151.931 314.382 151.931 310.462V293.026Z" fill="#284379"/>
<path d="M181.515 329.636C181.871 328.789 182.316 328.233 182.851 327.965C183.43 327.743 184.165 327.787 185.055 328.099C185.857 328.411 186.815 328.7 187.928 328.968C189.041 329.235 190.378 329.368 191.936 329.368C193.228 329.368 194.453 329.213 195.611 328.901C196.813 328.634 197.838 328.166 198.684 327.498C199.574 326.83 200.265 325.961 200.755 324.892C201.289 323.868 201.556 322.599 201.556 321.084V318.546C201.556 318.323 201.556 318.123 201.556 317.945C201.556 317.766 201.579 317.588 201.623 317.41C201.623 317.232 201.645 317.032 201.69 316.809H201.556C200.621 318.412 199.396 319.659 197.882 320.55C196.368 321.441 194.475 321.886 192.204 321.886C189.709 321.886 187.505 321.441 185.59 320.55C183.675 319.615 182.049 318.368 180.713 316.809C179.421 315.206 178.442 313.357 177.773 311.264C177.105 309.171 176.771 306.944 176.771 304.583C176.771 302.267 177.083 300.085 177.707 298.036C178.375 295.988 179.355 294.206 180.646 292.692C181.938 291.133 183.541 289.908 185.456 289.018C187.371 288.127 189.598 287.682 192.137 287.682C194.141 287.682 195.789 287.971 197.08 288.55C198.372 289.084 199.396 289.663 200.153 290.287C201.044 291.089 201.735 291.957 202.224 292.892H202.358C202.314 292.848 202.291 292.781 202.291 292.692V292.024V290.755C202.291 290.131 202.514 289.597 202.959 289.151C203.449 288.706 204.14 288.483 205.03 288.483H207.302C209.128 288.483 210.041 289.418 210.041 291.289V320.483C210.041 323.423 209.506 325.894 208.437 327.899C207.413 329.947 206.055 331.618 204.362 332.909C202.714 334.201 200.822 335.136 198.684 335.715C196.59 336.294 194.497 336.583 192.404 336.583C190.489 336.583 188.641 336.405 186.859 336.049C185.078 335.693 183.608 335.27 182.45 334.78C180.757 334.067 180.268 332.865 180.98 331.172L181.515 329.636ZM193.874 314.738C194.854 314.738 195.811 314.582 196.746 314.27C197.726 313.959 198.572 313.424 199.285 312.667C200.042 311.865 200.643 310.841 201.089 309.594C201.534 308.302 201.757 306.699 201.757 304.784C201.757 302.824 201.534 301.221 201.089 299.974C200.643 298.682 200.042 297.658 199.285 296.901C198.528 296.144 197.637 295.631 196.613 295.364C195.633 295.052 194.586 294.897 193.473 294.897C190.801 294.897 188.774 295.765 187.394 297.502C186.013 299.194 185.323 301.444 185.323 304.249C185.323 307.322 186.057 309.839 187.527 311.798C188.997 313.758 191.112 314.738 193.874 314.738ZM218.44 291.289C218.44 289.418 219.353 288.483 221.179 288.483H223.784C225.655 288.483 226.59 289.418 226.59 291.289V294.496C226.59 294.852 226.568 295.164 226.524 295.431C226.524 295.698 226.501 295.943 226.457 296.166C226.412 296.389 226.39 296.611 226.39 296.834H226.524C226.835 295.81 227.303 294.785 227.926 293.761C228.55 292.737 229.285 291.823 230.131 291.022C231.022 290.176 231.979 289.508 233.004 289.018C234.073 288.483 235.208 288.216 236.411 288.216C237.346 288.216 237.992 288.461 238.348 288.951C238.749 289.396 238.949 290.087 238.949 291.022V293.627C238.949 295.498 237.992 296.433 236.077 296.433C234.518 296.433 233.16 296.789 232.002 297.502C230.844 298.215 229.886 299.15 229.129 300.308C228.372 301.466 227.793 302.78 227.392 304.249C227.036 305.719 226.858 307.233 226.858 308.792V319.748C226.858 321.619 225.945 322.554 224.119 322.554H221.179C219.353 322.554 218.44 321.619 218.44 319.748V291.289ZM240.377 305.519C240.377 302.891 240.8 300.486 241.647 298.304C242.493 296.121 243.673 294.251 245.187 292.692C246.702 291.089 248.528 289.864 250.665 289.018C252.803 288.127 255.141 287.682 257.68 287.682C260.085 287.682 262.223 288.105 264.093 288.951C266.009 289.753 267.59 290.866 268.837 292.291C270.128 293.716 271.108 295.431 271.776 297.435C272.444 299.439 272.778 301.599 272.778 303.915C272.778 304.672 272.489 305.341 271.91 305.92C271.375 306.499 270.685 306.788 269.839 306.788H249.062C249.196 308.347 249.552 309.705 250.131 310.863C250.755 312.021 251.512 313.001 252.402 313.803C253.338 314.56 254.384 315.139 255.542 315.54C256.745 315.94 257.992 316.141 259.283 316.141C260.842 316.141 262.245 315.896 263.492 315.406C264.784 314.916 265.83 314.426 266.632 313.936C267.478 313.535 268.191 313.402 268.77 313.535C269.393 313.669 269.928 314.114 270.373 314.872L271.175 316.208C272.021 317.811 271.709 319.058 270.24 319.949C269.126 320.661 267.59 321.418 265.63 322.22C263.67 322.977 261.354 323.356 258.682 323.356C255.876 323.356 253.338 322.888 251.066 321.953C248.795 320.973 246.858 319.682 245.254 318.078C243.695 316.43 242.493 314.537 241.647 312.4C240.8 310.217 240.377 307.924 240.377 305.519ZM264.361 301.644C264.272 299.239 263.581 297.391 262.29 296.099C261.043 294.763 259.439 294.095 257.48 294.095C255.297 294.095 253.471 294.785 252.002 296.166C250.576 297.547 249.663 299.373 249.263 301.644H264.361ZM276.847 305.519C276.847 302.891 277.27 300.486 278.116 298.304C278.962 296.121 280.142 294.251 281.657 292.692C283.171 291.089 284.997 289.864 287.135 289.018C289.273 288.127 291.611 287.682 294.149 287.682C296.554 287.682 298.692 288.105 300.563 288.951C302.478 289.753 304.059 290.866 305.306 292.291C306.598 293.716 307.577 295.431 308.245 297.435C308.913 299.439 309.247 301.599 309.247 303.915C309.247 304.672 308.958 305.341 308.379 305.92C307.845 306.499 307.154 306.788 306.308 306.788H285.531C285.665 308.347 286.021 309.705 286.6 310.863C287.224 312.021 287.981 313.001 288.872 313.803C289.807 314.56 290.854 315.139 292.012 315.54C293.214 315.94 294.461 316.141 295.753 316.141C297.311 316.141 298.714 315.896 299.961 315.406C301.253 314.916 302.3 314.426 303.101 313.936C303.948 313.535 304.66 313.402 305.239 313.535C305.863 313.669 306.397 314.114 306.842 314.872L307.644 316.208C308.49 317.811 308.179 319.058 306.709 319.949C305.595 320.661 304.059 321.418 302.099 322.22C300.14 322.977 297.824 323.356 295.151 323.356C292.346 323.356 289.807 322.888 287.536 321.953C285.264 320.973 283.327 319.682 281.723 318.078C280.165 316.43 278.962 314.537 278.116 312.4C277.27 310.217 276.847 307.924 276.847 305.519ZM300.83 301.644C300.741 299.239 300.051 297.391 298.759 296.099C297.512 294.763 295.909 294.095 293.949 294.095C291.767 294.095 289.941 294.785 288.471 296.166C287.046 297.547 286.133 299.373 285.732 301.644H300.83ZM315.387 291.289C315.387 289.418 316.3 288.483 318.126 288.483H320.731C322.557 288.483 323.47 289.418 323.47 291.289V293.36C323.47 293.583 323.448 293.783 323.404 293.961C323.404 294.139 323.404 294.295 323.404 294.429C323.359 294.607 323.337 294.763 323.337 294.897H323.47C323.827 294.184 324.339 293.405 325.007 292.558C325.675 291.712 326.499 290.933 327.479 290.22C328.459 289.508 329.616 288.906 330.953 288.416C332.289 287.926 333.825 287.682 335.562 287.682C339.348 287.682 342.265 288.706 344.314 290.755C346.407 292.803 347.454 296.099 347.454 300.642V319.748C347.454 321.619 346.518 322.554 344.648 322.554H341.775C339.905 322.554 338.969 321.619 338.969 319.748V302.379C338.969 300.286 338.613 298.615 337.9 297.368C337.188 296.077 335.763 295.431 333.625 295.431C332.111 295.431 330.752 295.721 329.55 296.299C328.347 296.878 327.323 297.68 326.477 298.704C325.63 299.729 324.962 300.931 324.472 302.312C324.027 303.648 323.804 305.073 323.804 306.588V319.748C323.804 321.619 322.891 322.554 321.065 322.554H318.126C316.3 322.554 315.387 321.619 315.387 319.748V291.289Z" fill="#284379"/>
<path d="M361.233 305.786C361.233 303.247 361.679 300.909 362.57 298.771C363.46 296.589 364.685 294.718 366.244 293.16C367.803 291.601 369.651 290.376 371.789 289.485C373.971 288.595 376.332 288.149 378.87 288.149C380.874 288.149 382.856 288.505 384.816 289.218C386.776 289.886 388.513 290.799 390.027 291.957C390.829 292.625 390.895 293.382 390.227 294.229L389.76 294.963C389.225 295.81 388.468 295.921 387.488 295.297C386.197 294.318 384.816 293.56 383.346 293.026C381.877 292.492 380.429 292.224 379.004 292.224C377.133 292.224 375.396 292.581 373.793 293.293C372.19 293.961 370.787 294.897 369.584 296.099C368.426 297.302 367.513 298.749 366.845 300.441C366.222 302.089 365.91 303.871 365.91 305.786C365.91 307.746 366.222 309.549 366.845 311.197C367.513 312.845 368.426 314.27 369.584 315.473C370.787 316.675 372.19 317.611 373.793 318.279C375.396 318.947 377.156 319.281 379.071 319.281C380.719 319.325 382.366 319.036 384.014 318.412C385.662 317.789 387.176 316.898 388.557 315.74C389.403 315.072 390.138 315.206 390.762 316.141L391.229 316.809C391.675 317.655 391.541 318.412 390.829 319.08C389.136 320.461 387.243 321.53 385.15 322.287C383.057 323 380.963 323.356 378.87 323.356C376.287 323.356 373.904 322.933 371.722 322.087C369.584 321.196 367.736 319.971 366.177 318.412C364.618 316.853 363.394 315.005 362.503 312.867C361.657 310.685 361.233 308.325 361.233 305.786ZM396.331 305.586C396.331 303.136 396.776 300.865 397.667 298.771C398.603 296.634 399.85 294.785 401.408 293.226C403.012 291.668 404.882 290.443 407.02 289.552C409.202 288.617 411.541 288.149 414.035 288.149C416.529 288.149 418.845 288.617 420.982 289.552C423.165 290.443 425.058 291.668 426.661 293.226C428.264 294.785 429.511 296.634 430.402 298.771C431.337 300.865 431.805 303.136 431.805 305.586C431.805 308.08 431.337 310.418 430.402 312.6C429.511 314.738 428.264 316.608 426.661 318.212C425.058 319.815 423.165 321.084 420.982 322.02C418.845 322.91 416.551 323.356 414.101 323.356C411.607 323.356 409.269 322.91 407.087 322.02C404.949 321.084 403.079 319.815 401.475 318.212C399.872 316.608 398.603 314.738 397.667 312.6C396.776 310.418 396.331 308.08 396.331 305.586ZM401.008 305.586C401.008 307.501 401.342 309.304 402.01 310.997C402.678 312.645 403.591 314.092 404.749 315.339C405.951 316.542 407.354 317.499 408.957 318.212C410.561 318.924 412.275 319.281 414.101 319.281C415.928 319.281 417.62 318.924 419.179 318.212C420.782 317.499 422.163 316.542 423.321 315.339C424.523 314.092 425.458 312.645 426.127 310.997C426.795 309.304 427.129 307.501 427.129 305.586C427.129 303.715 426.795 301.978 426.127 300.375C425.458 298.727 424.523 297.302 423.321 296.099C422.163 294.897 420.782 293.961 419.179 293.293C417.62 292.581 415.928 292.224 414.101 292.224C412.275 292.224 410.561 292.581 408.957 293.293C407.354 293.961 405.951 294.897 404.749 296.099C403.591 297.302 402.678 298.727 402.01 300.375C401.342 301.978 401.008 303.715 401.008 305.586ZM439.771 290.621C439.771 289.508 440.327 288.951 441.441 288.951H442.643C443.712 288.951 444.247 289.508 444.247 290.621V294.496C444.247 294.986 444.202 295.453 444.113 295.899C444.068 296.344 444.024 296.678 443.979 296.901H444.113C444.603 295.654 445.315 294.496 446.251 293.427C447.186 292.358 448.255 291.445 449.457 290.688C450.704 289.886 452.018 289.263 453.399 288.817C454.824 288.372 456.249 288.149 457.675 288.149C461.594 288.149 464.444 289.196 466.226 291.289C468.052 293.382 468.965 296.678 468.965 301.176V320.884C468.965 321.997 468.408 322.554 467.295 322.554H466.025C464.956 322.554 464.422 321.997 464.422 320.884V302.379C464.422 298.86 463.843 296.322 462.685 294.763C461.527 293.204 459.656 292.425 457.073 292.425C455.247 292.425 453.555 292.781 451.996 293.494C450.437 294.206 449.079 295.186 447.921 296.433C446.807 297.636 445.917 299.083 445.249 300.775C444.625 302.423 444.313 304.205 444.313 306.12V320.884C444.313 321.997 443.779 322.554 442.71 322.554H441.441C440.327 322.554 439.771 321.997 439.771 320.884V290.621ZM476.646 305.719C476.646 303.136 477.003 300.775 477.715 298.638C478.472 296.455 479.497 294.585 480.788 293.026C482.124 291.467 483.706 290.265 485.532 289.418C487.402 288.572 489.473 288.149 491.745 288.149C492.903 288.149 494.038 288.327 495.152 288.684C496.31 288.995 497.378 289.463 498.358 290.087C499.338 290.666 500.207 291.378 500.964 292.224C501.721 293.026 502.322 293.917 502.768 294.897H502.901C502.768 294.496 502.701 293.65 502.701 292.358V277.26C502.701 276.146 503.257 275.59 504.371 275.59H505.64C506.709 275.59 507.243 276.146 507.243 277.26V320.884C507.243 321.997 506.709 322.554 505.64 322.554H504.504C503.391 322.554 502.834 322.02 502.834 320.951V318.412C502.834 318.056 502.857 317.7 502.901 317.343C502.946 316.943 503.012 316.608 503.102 316.341H502.968C502.523 317.366 501.899 318.323 501.097 319.214C500.296 320.06 499.383 320.795 498.358 321.418C497.334 322.042 496.198 322.51 494.951 322.821C493.749 323.178 492.524 323.356 491.277 323.356C489.05 323.356 487.024 322.955 485.198 322.153C483.416 321.307 481.88 320.127 480.588 318.613C479.341 317.054 478.361 315.183 477.648 313.001C476.98 310.819 476.646 308.391 476.646 305.719ZM481.323 305.719C481.323 307.768 481.568 309.638 482.058 311.331C482.548 312.979 483.26 314.404 484.195 315.606C485.131 316.764 486.244 317.677 487.536 318.345C488.872 318.969 490.342 319.281 491.945 319.281C495.285 319.281 497.935 318.078 499.895 315.673C501.854 313.224 502.834 309.906 502.834 305.719C502.834 303.759 502.567 301.956 502.033 300.308C501.498 298.66 500.763 297.257 499.828 296.099C498.893 294.897 497.757 293.961 496.421 293.293C495.129 292.625 493.704 292.291 492.145 292.291C490.542 292.291 489.072 292.625 487.736 293.293C486.4 293.961 485.264 294.897 484.329 296.099C483.394 297.257 482.659 298.66 482.124 300.308C481.59 301.956 481.323 303.759 481.323 305.719ZM515.264 305.586C515.264 303.136 515.709 300.865 516.6 298.771C517.535 296.634 518.782 294.785 520.341 293.226C521.944 291.668 523.815 290.443 525.953 289.552C528.135 288.617 530.473 288.149 532.967 288.149C535.462 288.149 537.777 288.617 539.915 289.552C542.098 290.443 543.99 291.668 545.594 293.226C547.197 294.785 548.444 296.634 549.335 298.771C550.27 300.865 550.738 303.136 550.738 305.586C550.738 308.08 550.27 310.418 549.335 312.6C548.444 314.738 547.197 316.608 545.594 318.212C543.99 319.815 542.098 321.084 539.915 322.02C537.777 322.91 535.484 323.356 533.034 323.356C530.54 323.356 528.202 322.91 526.02 322.02C523.882 321.084 522.011 319.815 520.408 318.212C518.805 316.608 517.535 314.738 516.6 312.6C515.709 310.418 515.264 308.08 515.264 305.586ZM519.94 305.586C519.94 307.501 520.274 309.304 520.942 310.997C521.61 312.645 522.523 314.092 523.681 315.339C524.884 316.542 526.287 317.499 527.89 318.212C529.494 318.924 531.208 319.281 533.034 319.281C534.86 319.281 536.553 318.924 538.111 318.212C539.715 317.499 541.095 316.542 542.253 315.339C543.456 314.092 544.391 312.645 545.059 310.997C545.727 309.304 546.061 307.501 546.061 305.586C546.061 303.715 545.727 301.978 545.059 300.375C544.391 298.727 543.456 297.302 542.253 296.099C541.095 294.897 539.715 293.961 538.111 293.293C536.553 292.581 534.86 292.224 533.034 292.224C531.208 292.224 529.494 292.581 527.89 293.293C526.287 293.961 524.884 294.897 523.681 296.099C522.523 297.302 521.61 298.727 520.942 300.375C520.274 301.978 519.94 303.715 519.94 305.586Z" fill="#284379"/>
<defs>
<linearGradient id="paint0_linear_105_559" x1="276.734" y1="243.189" x2="276.734" y2="-0.482637" gradientUnits="userSpaceOnUse">
<stop offset="0.0673077" stop-color="#0046D3"/>
<stop offset="0.519231" stop-color="#65B878"/>
<stop offset="1" stop-color="#9DF500"/>
</linearGradient>
<clipPath id="clip0_105_559">
<rect width="202.39" height="243.554" fill="white" transform="translate(175.805)"/>
</clipPath>
</defs>
</svg>
