<svg width="338" height="207" viewBox="0 0 338 207" fill="none" xmlns="http://www.w3.org/2000/svg">
<g clip-path="url(#clip0_105_562)">
<mask id="mask0_105_562" style="mask-type:luminance" maskUnits="userSpaceOnUse" x="107" y="0" width="124" height="149">
<path d="M107.261 87.0447C107.261 71.2939 113.291 55.5398 125.345 43.5215L169.003 0L212.657 43.5215C224.712 55.5398 230.741 71.2923 230.741 87.0431C230.741 102.794 224.713 118.546 212.658 130.564C200.601 142.584 184.801 148.594 169.002 148.594C153.202 148.594 137.404 142.585 125.348 130.568C113.29 118.548 107.261 102.796 107.261 87.0447ZM125.753 120.061C127.193 121.931 128.77 123.728 130.487 125.439C133.864 128.806 137.574 131.636 141.511 133.933V110.992L125.753 120.061ZM196.491 110.992V133.934C200.426 131.637 204.137 128.807 207.513 125.442C209.23 123.729 210.808 121.931 212.248 120.061L196.491 110.991V110.992ZM165.365 53.1314V13.878L140.401 38.7637L165.365 53.1314ZM165.365 84.7428V61.4662L135.101 44.0481L130.487 48.6479C127.084 52.0406 124.226 55.7707 121.911 59.7309L165.365 84.7419V84.7428ZM172.639 61.4646V84.7411L216.091 59.7309C213.778 55.7715 210.919 52.0406 207.517 48.6487L202.902 44.0481L172.64 61.4654L172.639 61.4646ZM172.639 13.878V53.1306L197.601 38.7637L172.639 13.878ZM114.919 80.5917L147.384 99.2767L161.76 91.0017L118.688 66.2118C116.76 70.8427 115.505 75.6849 114.919 80.5917ZM140.143 103.444L114.561 88.721C114.832 97.4898 117.221 106.209 121.73 114.042L140.144 103.444H140.143ZM223.442 88.7194L197.858 103.444L216.272 114.042C220.782 106.206 223.172 97.489 223.442 88.7194ZM190.618 99.2767L223.084 80.5909C222.498 75.684 221.241 70.841 219.314 66.2109L176.242 91.0025L190.618 99.2775V99.2767ZM167.16 127.626H159.728V120.216H167.16V127.626ZM178.275 120.215V127.625H170.842V120.215H178.275ZM170.842 109.135H178.275V116.545H170.842V109.135ZM159.728 109.135H167.16V116.545H159.728V109.135ZM148.785 106.806V137.478C155.26 140.055 162.131 141.344 169.002 141.344C175.872 141.344 182.742 140.054 189.217 137.479V106.806L169.002 95.1699L148.785 106.806Z" fill="white"/>
</mask>
<g mask="url(#mask0_105_562)">
<path d="M230.741 0H107.261V148.594H230.741V0Z" fill="white"/>
</g>
</g>
<path d="M1.35239 194.72C0.836116 194.366 0.781771 193.904 1.18936 193.334L1.51543 192.926C1.8415 192.464 2.30343 192.41 2.90123 192.763C3.66206 193.361 4.518 193.823 5.46904 194.149C6.42008 194.475 7.37111 194.638 8.32215 194.638C9.57209 194.638 10.5775 194.339 11.3383 193.741C12.0991 193.144 12.4796 192.342 12.4796 191.337C12.4796 190.576 12.2078 189.964 11.6644 189.502C11.1209 189.013 10.4416 188.592 9.62644 188.239C8.81126 187.858 7.92815 187.505 6.97711 187.179C6.05325 186.826 5.18372 186.405 4.36855 185.916C3.55337 185.427 2.87406 184.829 2.33061 184.122C1.78716 183.416 1.51543 182.492 1.51543 181.351C1.51543 180.508 1.67847 179.734 2.00454 179.027C2.33061 178.321 2.79254 177.709 3.39034 177.193C4.0153 176.677 4.74896 176.283 5.59131 176.011C6.46083 175.739 7.42546 175.604 8.48519 175.604C9.51775 175.604 10.5231 175.753 11.5013 176.052C12.4796 176.351 13.3491 176.758 14.1099 177.275C14.6262 177.628 14.7213 178.076 14.3952 178.62L14.1099 179.068C13.7838 179.639 13.3219 179.734 12.7241 179.353C12.0991 178.946 11.4062 178.633 10.6454 178.416C9.88458 178.171 9.11016 178.049 8.32215 178.049C7.04504 178.049 6.05325 178.334 5.34676 178.905C4.64027 179.476 4.28703 180.25 4.28703 181.228C4.28703 182.016 4.55876 182.655 5.10221 183.144C5.64566 183.633 6.31139 184.068 7.09939 184.448C7.91457 184.802 8.79767 185.141 9.74871 185.467C10.6998 185.793 11.5693 186.201 12.3573 186.69C13.1725 187.179 13.8518 187.791 14.3952 188.524C14.9387 189.231 15.2104 190.155 15.2104 191.296C15.2104 192.165 15.0338 192.953 14.6805 193.66C14.3545 194.366 13.8789 194.978 13.254 195.494C12.6562 195.983 11.9225 196.363 11.053 196.635C10.2106 196.934 9.28678 197.084 8.2814 197.084C6.97711 197.084 5.71359 196.88 4.49082 196.472C3.26806 196.037 2.22192 195.453 1.35239 194.72ZM20.0062 177.112C20.0062 176.432 20.3459 176.093 21.0252 176.093H21.7589C22.411 176.093 22.7371 176.432 22.7371 177.112V179.476C22.7371 179.775 22.7099 180.06 22.6556 180.332C22.6284 180.603 22.6012 180.807 22.5741 180.943H22.6556C22.9273 180.209 23.3213 179.53 23.8376 178.905C24.381 178.253 24.9924 177.682 25.6717 177.193C26.351 176.704 27.0711 176.324 27.8319 176.052C28.6199 175.753 29.4079 175.604 30.196 175.604C33.8099 175.631 35.9158 177.343 36.5136 180.739H36.5951C36.9212 180.006 37.3423 179.326 37.8586 178.701C38.4021 178.076 39.0134 177.533 39.6928 177.071C40.3721 176.609 41.0921 176.256 41.853 176.011C42.6138 175.739 43.3746 175.604 44.1355 175.604C46.4723 175.604 48.1842 176.256 49.2711 177.56C50.3852 178.837 50.9422 180.834 50.9422 183.552V195.575C50.9422 196.255 50.6025 196.594 49.9232 196.594H49.1896C48.5103 196.594 48.1706 196.255 48.1706 195.575V184.244C48.1706 182.125 47.8174 180.576 47.1109 179.598C46.4316 178.62 45.3175 178.131 43.7686 178.131C42.8176 178.131 41.9209 178.362 41.0786 178.824C40.2634 179.286 39.5433 179.91 38.9183 180.698C38.2934 181.459 37.7907 182.356 37.4103 183.389C37.057 184.421 36.8804 185.522 36.8804 186.69V195.575C36.8804 196.255 36.5543 196.594 35.9022 196.594H35.1278C34.4485 196.594 34.1088 196.255 34.1088 195.575V184.244C34.1088 182.098 33.7691 180.549 33.0898 179.598C32.4105 178.62 31.31 178.131 29.7884 178.131C28.8373 178.131 27.9406 178.362 27.0983 178.824C26.2559 179.286 25.5087 179.91 24.8565 180.698C24.2316 181.459 23.7289 182.37 23.3485 183.429C22.9681 184.462 22.7778 185.549 22.7778 186.69V195.575C22.7778 196.255 22.4518 196.594 21.7996 196.594H21.0252C20.3459 196.594 20.0062 196.255 20.0062 195.575V177.112ZM55.1913 191.092C55.1913 188.864 56.2782 187.138 58.452 185.916C60.6258 184.666 63.7099 184.041 67.7043 184.041H68.8863V183.389C68.8863 179.856 67.2016 178.09 63.8322 178.09C62.9898 178.09 62.1339 178.212 61.2644 178.457C60.3948 178.701 59.5933 179.055 58.8596 179.516C58.2618 179.843 57.7999 179.734 57.4738 179.19L57.2292 178.783C56.8488 178.212 56.9439 177.75 57.5146 177.397C58.4113 176.854 59.4302 176.419 60.5715 176.093C61.7399 175.767 62.8947 175.604 64.036 175.604C66.5087 175.604 68.3972 176.283 69.7014 177.642C71.0057 178.973 71.6579 180.916 71.6579 183.47V195.575C71.6579 196.255 71.3318 196.594 70.6797 196.594H70.0275C69.3482 196.594 69.0085 196.255 69.0085 195.575V193.945C69.0085 193.619 69.0085 193.32 69.0085 193.048C69.0357 192.75 69.0765 192.532 69.1308 192.396H69.0493C69.0493 192.396 68.927 192.641 68.6825 193.13C68.4379 193.619 68.0439 194.162 67.5005 194.76C66.957 195.331 66.2369 195.861 65.3403 196.35C64.4707 196.839 63.3974 197.084 62.1203 197.084C61.1149 197.084 60.1775 196.934 59.3079 196.635C58.4656 196.336 57.7319 195.929 57.107 195.412C56.5092 194.869 56.0337 194.23 55.6804 193.497C55.3543 192.763 55.1913 191.962 55.1913 191.092ZM58.0444 190.847C58.0444 191.989 58.4656 192.926 59.3079 193.66C60.1775 194.393 61.278 194.76 62.6094 194.76C63.4518 194.76 64.2534 194.57 65.0142 194.19C65.775 193.782 66.4407 193.239 67.0114 192.559C67.582 191.853 68.0303 191.038 68.3564 190.114C68.7096 189.163 68.8863 188.157 68.8863 187.098V186.119H67.745C64.5387 186.119 62.1203 186.527 60.49 187.342C58.8596 188.13 58.0444 189.299 58.0444 190.847ZM77.6418 177.112C77.6418 176.432 77.9814 176.093 78.6607 176.093H79.3944C80.0465 176.093 80.3726 176.432 80.3726 177.112V179.883C80.3726 180.237 80.3454 180.563 80.2911 180.862C80.2639 181.16 80.2368 181.378 80.2096 181.514H80.2911C80.8345 179.829 81.7041 178.484 82.8997 177.479C84.0953 176.473 85.4267 175.97 86.894 175.97C87.6005 175.97 87.9538 176.297 87.9538 176.949V177.682C87.9538 178.362 87.5733 178.701 86.8125 178.701C85.8886 178.701 85.0327 178.946 84.2447 179.435C83.4839 179.897 82.8181 180.535 82.2475 181.351C81.6769 182.166 81.2285 183.144 80.9025 184.285C80.5764 185.399 80.4134 186.609 80.4134 187.913V195.575C80.4134 196.255 80.0873 196.594 79.4352 196.594H78.6607C77.9814 196.594 77.6418 196.255 77.6418 195.575V177.112ZM92.229 178.579H90.5171C89.865 178.579 89.5389 178.253 89.5389 177.601V177.275C89.5389 176.595 89.865 176.256 90.5171 176.256H92.2697V171.446C92.2697 170.767 92.6094 170.427 93.2887 170.427H94.0224C94.6745 170.427 95.0006 170.767 95.0006 171.446V176.256H99.158C99.8373 176.256 100.177 176.595 100.177 177.275V177.601C100.177 178.253 99.8373 178.579 99.158 178.579H95.0006V188.85C95.0006 190.508 95.381 191.812 96.1418 192.763C96.9298 193.687 98.0439 194.176 99.484 194.23C99.8916 194.285 100.177 194.393 100.34 194.556C100.503 194.692 100.585 194.923 100.585 195.249V195.779C100.585 196.431 100.204 196.757 99.4433 196.757C97.1336 196.757 95.3538 196.105 94.1039 194.801C92.8539 193.47 92.229 191.608 92.229 189.217V178.579Z" fill="white"/>
<path d="M110.78 200.915C110.997 200.399 111.269 200.059 111.595 199.896C111.948 199.76 112.396 199.787 112.94 199.977C113.429 200.168 114.013 200.344 114.693 200.507C115.372 200.67 116.187 200.752 117.138 200.752C117.926 200.752 118.673 200.657 119.38 200.467C120.113 200.303 120.738 200.018 121.255 199.611C121.798 199.203 122.219 198.673 122.518 198.021C122.844 197.396 123.007 196.622 123.007 195.698V194.149C123.007 194.013 123.007 193.891 123.007 193.782C123.007 193.673 123.021 193.565 123.048 193.456C123.048 193.347 123.062 193.225 123.089 193.089H123.007C122.437 194.067 121.689 194.828 120.766 195.372C119.842 195.915 118.687 196.187 117.301 196.187C115.779 196.187 114.434 195.915 113.266 195.372C112.098 194.801 111.106 194.04 110.291 193.089C109.503 192.111 108.905 190.983 108.497 189.706C108.09 188.429 107.886 187.07 107.886 185.63C107.886 184.217 108.076 182.886 108.456 181.636C108.864 180.386 109.462 179.299 110.25 178.375C111.038 177.424 112.016 176.677 113.184 176.133C114.353 175.59 115.711 175.318 117.26 175.318C118.483 175.318 119.488 175.495 120.276 175.848C121.064 176.174 121.689 176.527 122.151 176.908C122.695 177.397 123.116 177.927 123.415 178.498H123.496C123.469 178.47 123.456 178.43 123.456 178.375V177.968V177.193C123.456 176.813 123.592 176.487 123.863 176.215C124.162 175.943 124.583 175.807 125.127 175.807H126.513C127.627 175.807 128.184 176.378 128.184 177.519V195.331C128.184 197.124 127.858 198.632 127.205 199.855C126.581 201.105 125.752 202.124 124.719 202.912C123.714 203.7 122.559 204.271 121.255 204.624C119.978 204.977 118.7 205.154 117.423 205.154C116.255 205.154 115.127 205.045 114.04 204.828C112.953 204.61 112.057 204.352 111.35 204.053C110.318 203.619 110.019 202.885 110.454 201.852L110.78 200.915ZM118.32 191.826C118.918 191.826 119.502 191.731 120.073 191.54C120.67 191.35 121.187 191.024 121.622 190.562C122.083 190.073 122.45 189.448 122.722 188.687C122.994 187.899 123.13 186.921 123.13 185.753C123.13 184.557 122.994 183.579 122.722 182.818C122.45 182.03 122.083 181.405 121.622 180.943C121.16 180.481 120.616 180.169 119.991 180.006C119.393 179.815 118.755 179.72 118.076 179.72C116.445 179.72 115.209 180.25 114.366 181.31C113.524 182.342 113.103 183.715 113.103 185.427C113.103 187.301 113.551 188.837 114.448 190.032C115.345 191.228 116.635 191.826 118.32 191.826ZM133.308 177.519C133.308 176.378 133.865 175.807 134.979 175.807H136.569C137.71 175.807 138.281 176.378 138.281 177.519V179.476C138.281 179.693 138.267 179.883 138.24 180.046C138.24 180.209 138.226 180.359 138.199 180.495C138.172 180.631 138.158 180.766 138.158 180.902H138.24C138.43 180.277 138.716 179.652 139.096 179.027C139.476 178.402 139.925 177.845 140.441 177.356C140.984 176.84 141.569 176.432 142.194 176.133C142.846 175.807 143.539 175.644 144.272 175.644C144.843 175.644 145.237 175.794 145.454 176.093C145.699 176.364 145.821 176.786 145.821 177.356V178.946C145.821 180.087 145.237 180.658 144.068 180.658C143.117 180.658 142.289 180.875 141.582 181.31C140.876 181.745 140.292 182.315 139.83 183.022C139.368 183.728 139.014 184.53 138.77 185.427C138.552 186.323 138.444 187.247 138.444 188.198V194.883C138.444 196.024 137.887 196.594 136.773 196.594H134.979C133.865 196.594 133.308 196.024 133.308 194.883V177.519ZM146.692 186.201C146.692 184.598 146.95 183.13 147.467 181.799C147.983 180.468 148.703 179.326 149.627 178.375C150.551 177.397 151.665 176.65 152.969 176.133C154.273 175.59 155.7 175.318 157.249 175.318C158.716 175.318 160.02 175.576 161.162 176.093C162.33 176.582 163.295 177.261 164.056 178.131C164.844 179 165.441 180.046 165.849 181.269C166.257 182.492 166.46 183.81 166.46 185.223C166.46 185.685 166.284 186.092 165.931 186.445C165.604 186.799 165.183 186.975 164.667 186.975H151.991C152.073 187.926 152.29 188.755 152.643 189.462C153.024 190.168 153.485 190.766 154.029 191.255C154.6 191.717 155.238 192.07 155.945 192.315C156.678 192.559 157.439 192.682 158.227 192.682C159.178 192.682 160.034 192.532 160.795 192.233C161.583 191.934 162.221 191.635 162.711 191.337C163.227 191.092 163.662 191.01 164.015 191.092C164.395 191.173 164.721 191.445 164.993 191.907L165.482 192.722C165.998 193.701 165.808 194.461 164.912 195.005C164.232 195.44 163.295 195.902 162.099 196.391C160.904 196.853 159.491 197.084 157.86 197.084C156.148 197.084 154.6 196.798 153.214 196.228C151.828 195.63 150.646 194.842 149.668 193.864C148.717 192.858 147.983 191.703 147.467 190.399C146.95 189.068 146.692 187.668 146.692 186.201ZM161.325 183.837C161.27 182.37 160.849 181.242 160.061 180.454C159.3 179.639 158.322 179.231 157.127 179.231C155.795 179.231 154.681 179.652 153.784 180.495C152.915 181.337 152.358 182.451 152.113 183.837H161.325ZM168.943 186.201C168.943 184.598 169.201 183.13 169.717 181.799C170.233 180.468 170.953 179.326 171.877 178.375C172.801 177.397 173.915 176.65 175.219 176.133C176.524 175.59 177.95 175.318 179.499 175.318C180.966 175.318 182.271 175.576 183.412 176.093C184.58 176.582 185.545 177.261 186.306 178.131C187.094 179 187.692 180.046 188.099 181.269C188.507 182.492 188.711 183.81 188.711 185.223C188.711 185.685 188.534 186.092 188.181 186.445C187.855 186.799 187.433 186.975 186.917 186.975H174.241C174.323 187.926 174.54 188.755 174.893 189.462C175.274 190.168 175.736 190.766 176.279 191.255C176.85 191.717 177.488 192.07 178.195 192.315C178.928 192.559 179.689 192.682 180.477 192.682C181.428 192.682 182.284 192.532 183.045 192.233C183.833 191.934 184.472 191.635 184.961 191.337C185.477 191.092 185.912 191.01 186.265 191.092C186.645 191.173 186.972 191.445 187.243 191.907L187.732 192.722C188.249 193.701 188.058 194.461 187.162 195.005C186.482 195.44 185.545 195.902 184.349 196.391C183.154 196.853 181.741 197.084 180.11 197.084C178.399 197.084 176.85 196.798 175.464 196.228C174.078 195.63 172.896 194.842 171.918 193.864C170.967 192.858 170.233 191.703 169.717 190.399C169.201 189.068 168.943 187.668 168.943 186.201ZM183.575 183.837C183.521 182.37 183.099 181.242 182.311 180.454C181.551 179.639 180.572 179.231 179.377 179.231C178.045 179.231 176.931 179.652 176.035 180.495C175.165 181.337 174.608 182.451 174.363 183.837H183.575ZM192.456 177.519C192.456 176.378 193.013 175.807 194.127 175.807H195.717C196.831 175.807 197.388 176.378 197.388 177.519V178.783C197.388 178.919 197.374 179.041 197.347 179.15C197.347 179.258 197.347 179.353 197.347 179.435C197.32 179.544 197.307 179.639 197.307 179.72H197.388C197.605 179.286 197.918 178.81 198.325 178.294C198.733 177.777 199.236 177.302 199.834 176.867C200.431 176.432 201.138 176.066 201.953 175.767C202.768 175.468 203.706 175.318 204.765 175.318C207.075 175.318 208.855 175.943 210.105 177.193C211.382 178.443 212.02 180.454 212.02 183.226V194.883C212.02 196.024 211.45 196.594 210.309 196.594H208.556C207.415 196.594 206.844 196.024 206.844 194.883V184.285C206.844 183.008 206.627 181.989 206.192 181.228C205.757 180.44 204.888 180.046 203.583 180.046C202.66 180.046 201.831 180.223 201.097 180.576C200.363 180.929 199.738 181.419 199.222 182.044C198.706 182.668 198.298 183.402 197.999 184.244C197.728 185.06 197.592 185.929 197.592 186.853V194.883C197.592 196.024 197.035 196.594 195.921 196.594H194.127C193.013 196.594 192.456 196.024 192.456 194.883V177.519Z" fill="white"/>
<path d="M220.438 186.364C220.438 184.815 220.71 183.389 221.253 182.084C221.797 180.753 222.544 179.612 223.495 178.661C224.446 177.709 225.574 176.962 226.878 176.419C228.21 175.875 229.65 175.604 231.199 175.604C232.421 175.604 233.63 175.821 234.826 176.256C236.022 176.663 237.081 177.22 238.005 177.927C238.494 178.334 238.535 178.796 238.128 179.313L237.842 179.761C237.516 180.277 237.054 180.345 236.456 179.965C235.668 179.367 234.826 178.905 233.929 178.579C233.033 178.253 232.15 178.09 231.28 178.09C230.139 178.09 229.079 178.307 228.101 178.742C227.123 179.15 226.267 179.72 225.533 180.454C224.827 181.188 224.27 182.071 223.862 183.103C223.482 184.109 223.291 185.196 223.291 186.364C223.291 187.56 223.482 188.66 223.862 189.665C224.27 190.671 224.827 191.54 225.533 192.274C226.267 193.008 227.123 193.578 228.101 193.986C229.079 194.393 230.152 194.597 231.321 194.597C232.326 194.624 233.332 194.448 234.337 194.067C235.342 193.687 236.266 193.144 237.109 192.437C237.625 192.029 238.073 192.111 238.454 192.682L238.739 193.089C239.011 193.605 238.929 194.067 238.494 194.475C237.462 195.317 236.307 195.969 235.03 196.431C233.753 196.866 232.476 197.084 231.199 197.084C229.622 197.084 228.169 196.825 226.837 196.309C225.533 195.766 224.405 195.018 223.454 194.067C222.503 193.116 221.756 191.989 221.213 190.684C220.696 189.353 220.438 187.913 220.438 186.364ZM241.852 186.242C241.852 184.747 242.123 183.361 242.667 182.084C243.237 180.78 243.998 179.652 244.949 178.701C245.927 177.75 247.069 177.003 248.373 176.46C249.704 175.889 251.131 175.604 252.653 175.604C254.174 175.604 255.587 175.889 256.892 176.46C258.223 177.003 259.378 177.75 260.356 178.701C261.334 179.652 262.095 180.78 262.639 182.084C263.209 183.361 263.494 184.747 263.494 186.242C263.494 187.763 263.209 189.19 262.639 190.521C262.095 191.826 261.334 192.967 260.356 193.945C259.378 194.923 258.223 195.698 256.892 196.268C255.587 196.812 254.188 197.084 252.693 197.084C251.172 197.084 249.745 196.812 248.414 196.268C247.109 195.698 245.968 194.923 244.99 193.945C244.012 192.967 243.237 191.826 242.667 190.521C242.123 189.19 241.852 187.763 241.852 186.242ZM244.705 186.242C244.705 187.41 244.908 188.511 245.316 189.543C245.724 190.549 246.281 191.432 246.987 192.192C247.721 192.926 248.577 193.51 249.555 193.945C250.533 194.38 251.579 194.597 252.693 194.597C253.807 194.597 254.84 194.38 255.791 193.945C256.769 193.51 257.612 192.926 258.318 192.192C259.052 191.432 259.622 190.549 260.03 189.543C260.438 188.511 260.641 187.41 260.641 186.242C260.641 185.1 260.438 184.041 260.03 183.062C259.622 182.057 259.052 181.188 258.318 180.454C257.612 179.72 256.769 179.15 255.791 178.742C254.84 178.307 253.807 178.09 252.693 178.09C251.579 178.09 250.533 178.307 249.555 178.742C248.577 179.15 247.721 179.72 246.987 180.454C246.281 181.188 245.724 182.057 245.316 183.062C244.908 184.041 244.705 185.1 244.705 186.242ZM268.354 177.112C268.354 176.432 268.694 176.093 269.373 176.093H270.107C270.759 176.093 271.085 176.432 271.085 177.112V179.476C271.085 179.775 271.058 180.06 271.004 180.332C270.976 180.603 270.949 180.807 270.922 180.943H271.004C271.303 180.182 271.737 179.476 272.308 178.824C272.879 178.171 273.531 177.614 274.264 177.152C275.025 176.663 275.827 176.283 276.669 176.011C277.539 175.739 278.408 175.604 279.278 175.604C281.669 175.604 283.408 176.242 284.495 177.519C285.609 178.796 286.166 180.807 286.166 183.552V195.575C286.166 196.255 285.826 196.594 285.147 196.594H284.373C283.72 196.594 283.394 196.255 283.394 195.575V184.285C283.394 182.139 283.041 180.59 282.335 179.639C281.628 178.688 280.487 178.212 278.911 178.212C277.797 178.212 276.764 178.43 275.813 178.864C274.862 179.299 274.033 179.897 273.327 180.658C272.648 181.391 272.104 182.274 271.697 183.307C271.316 184.312 271.126 185.399 271.126 186.568V195.575C271.126 196.255 270.8 196.594 270.148 196.594H269.373C268.694 196.594 268.354 196.255 268.354 195.575V177.112ZM290.853 186.323C290.853 184.747 291.07 183.307 291.505 182.003C291.967 180.671 292.592 179.53 293.38 178.579C294.195 177.628 295.159 176.894 296.273 176.378C297.415 175.862 298.678 175.604 300.064 175.604C300.771 175.604 301.463 175.712 302.143 175.93C302.849 176.12 303.501 176.405 304.099 176.786C304.697 177.139 305.227 177.574 305.689 178.09C306.151 178.579 306.518 179.122 306.789 179.72H306.871C306.789 179.476 306.748 178.959 306.748 178.171V168.96C306.748 168.281 307.088 167.941 307.767 167.941H308.542C309.194 167.941 309.52 168.281 309.52 168.96V195.575C309.52 196.255 309.194 196.594 308.542 196.594H307.849C307.17 196.594 306.83 196.268 306.83 195.616V194.067C306.83 193.85 306.844 193.633 306.871 193.415C306.898 193.171 306.939 192.967 306.993 192.804H306.912C306.64 193.429 306.259 194.013 305.77 194.556C305.281 195.073 304.724 195.521 304.099 195.902C303.474 196.282 302.781 196.567 302.02 196.757C301.287 196.975 300.54 197.084 299.779 197.084C298.42 197.084 297.184 196.839 296.07 196.35C294.983 195.834 294.045 195.114 293.257 194.19C292.496 193.239 291.899 192.097 291.464 190.766C291.056 189.434 290.853 187.954 290.853 186.323ZM293.706 186.323C293.706 187.573 293.855 188.714 294.154 189.747C294.453 190.752 294.888 191.622 295.458 192.356C296.029 193.062 296.708 193.619 297.496 194.027C298.311 194.407 299.208 194.597 300.186 194.597C302.224 194.597 303.841 193.864 305.037 192.396C306.232 190.902 306.83 188.877 306.83 186.323C306.83 185.128 306.667 184.027 306.341 183.022C306.015 182.016 305.566 181.16 304.996 180.454C304.425 179.72 303.732 179.15 302.917 178.742C302.129 178.334 301.26 178.131 300.309 178.131C299.33 178.131 298.434 178.334 297.619 178.742C296.803 179.15 296.11 179.72 295.54 180.454C294.969 181.16 294.521 182.016 294.195 183.022C293.869 184.027 293.706 185.128 293.706 186.323ZM314.413 186.242C314.413 184.747 314.685 183.361 315.229 182.084C315.799 180.78 316.56 179.652 317.511 178.701C318.489 177.75 319.631 177.003 320.935 176.46C322.266 175.889 323.693 175.604 325.214 175.604C326.736 175.604 328.149 175.889 329.453 176.46C330.785 177.003 331.94 177.75 332.918 178.701C333.896 179.652 334.657 180.78 335.2 182.084C335.771 183.361 336.056 184.747 336.056 186.242C336.056 187.763 335.771 189.19 335.2 190.521C334.657 191.826 333.896 192.967 332.918 193.945C331.94 194.923 330.785 195.698 329.453 196.268C328.149 196.812 326.75 197.084 325.255 197.084C323.734 197.084 322.307 196.812 320.976 196.268C319.671 195.698 318.53 194.923 317.552 193.945C316.574 192.967 315.799 191.826 315.229 190.521C314.685 189.19 314.413 187.763 314.413 186.242ZM317.267 186.242C317.267 187.41 317.47 188.511 317.878 189.543C318.285 190.549 318.843 191.432 319.549 192.192C320.283 192.926 321.139 193.51 322.117 193.945C323.095 194.38 324.141 194.597 325.255 194.597C326.369 194.597 327.402 194.38 328.353 193.945C329.331 193.51 330.173 192.926 330.88 192.192C331.614 191.432 332.184 190.549 332.592 189.543C332.999 188.511 333.203 187.41 333.203 186.242C333.203 185.1 332.999 184.041 332.592 183.062C332.184 182.057 331.614 181.188 330.88 180.454C330.173 179.72 329.331 179.15 328.353 178.742C327.402 178.307 326.369 178.09 325.255 178.09C324.141 178.09 323.095 178.307 322.117 178.742C321.139 179.15 320.283 179.72 319.549 180.454C318.843 181.188 318.285 182.057 317.878 183.062C317.47 184.041 317.267 185.1 317.267 186.242Z" fill="white"/>
<defs>
<clipPath id="clip0_105_562">
<rect width="123.48" height="148.594" fill="white" transform="translate(107.26)"/>
</clipPath>
</defs>
</svg>
