<svg width="292" height="142" viewBox="0 0 292 142" fill="none" xmlns="http://www.w3.org/2000/svg">
<g clip-path="url(#clip0_105_548)">
<mask id="mask0_105_548" style="mask-type:luminance" maskUnits="userSpaceOnUse" x="0" y="0" width="118" height="142">
<path d="M0 83.1818C0 68.1299 5.76173 53.075 17.2813 41.5901L59.002 0L100.719 41.5901C112.238 53.075 118 68.1284 118 83.1802C118 98.232 112.239 113.285 100.72 124.77C89.1976 136.256 74.0986 142 59.0004 142C43.9022 142 28.8055 136.258 17.2844 124.773C5.76094 113.287 0 98.2336 0 83.1818ZM17.6714 114.733C19.0475 116.52 20.5546 118.237 22.1952 119.872C25.4222 123.089 28.968 125.794 32.7296 127.989V106.066L17.6714 114.733ZM85.2696 106.066V127.991C89.0304 125.795 92.5762 123.091 95.8024 119.875C97.4438 118.238 98.9518 116.52 100.328 114.732L85.2696 106.065V106.066ZM55.5253 50.7735V13.2621L31.6691 37.0434L55.5253 50.7735ZM55.5253 80.982V58.7384L26.6044 42.0933L22.1952 46.4889C18.943 49.7311 16.2121 53.2957 14.0001 57.0802L55.5253 80.9812V80.982ZM62.4763 58.7368V80.9804L104 57.0802C101.789 53.2965 99.0577 49.7311 95.8064 46.4897L91.3964 42.0933L62.477 58.7376L62.4763 58.7368ZM62.4763 13.2621V50.7727L86.3301 37.0434L62.4763 13.2621ZM7.31755 77.0152L38.3422 94.8709L52.08 86.9631L10.9198 63.2734C9.07747 67.6988 7.87802 72.3261 7.31755 77.0152ZM31.4226 98.8534L6.97608 84.7837C7.23434 93.1634 9.51784 101.495 13.8266 108.981L31.4234 98.8534H31.4226ZM111.025 84.7821L86.5766 98.8534L104.173 108.981C108.483 101.493 110.766 93.1626 111.025 84.7821ZM79.657 94.8709L110.682 77.0144C110.123 72.3253 108.922 67.6972 107.08 63.2726L65.9192 86.9639L79.657 94.8717V94.8709ZM57.2405 121.962H50.138V114.881H57.2405V121.962ZM67.862 114.88V121.961H60.7595V114.88H67.862ZM60.7595 104.292H67.862V111.373H60.7595V104.292ZM50.138 104.292H57.2405V111.373H50.138V104.292ZM39.6806 102.066V131.377C45.8685 133.839 52.4348 135.071 59.0004 135.071C65.5659 135.071 72.1315 133.839 78.3187 131.377V102.066L59.0004 90.9464L39.6806 102.066Z" fill="white"/>
</mask>
<g mask="url(#mask0_105_548)">
<path d="M118 0H0V142H118V0Z" fill="white"/>
</g>
</g>
<path d="M143.948 39.2083C143.454 38.8707 143.402 38.4293 143.792 37.884L144.103 37.4945C144.415 37.0531 144.856 37.0011 145.428 37.3387C146.155 37.91 146.973 38.3514 147.881 38.663C148.79 38.9746 149.699 39.1304 150.608 39.1304C151.802 39.1304 152.763 38.8448 153.49 38.2735C154.217 37.7022 154.581 36.9362 154.581 35.9754C154.581 35.2484 154.321 34.6641 153.802 34.2227C153.283 33.7553 152.633 33.3528 151.854 33.0152C151.075 32.6517 150.231 32.3141 149.323 32.0025C148.44 31.665 147.609 31.2625 146.83 30.7951C146.051 30.3277 145.402 29.7564 144.882 29.0813C144.363 28.4062 144.103 27.5233 144.103 26.4327C144.103 25.6277 144.259 24.8877 144.571 24.2125C144.882 23.5374 145.324 22.9532 145.895 22.4598C146.492 21.9664 147.193 21.5899 147.998 21.3302C148.829 21.0706 149.751 20.9407 150.764 20.9407C151.75 20.9407 152.711 21.0836 153.646 21.3692C154.581 21.6548 155.412 22.0443 156.139 22.5377C156.632 22.8753 156.723 23.3037 156.412 23.823L156.139 24.2515C155.827 24.7968 155.386 24.8877 154.815 24.5241C154.217 24.1346 153.555 23.836 152.828 23.6283C152.101 23.3946 151.361 23.2777 150.608 23.2777C149.388 23.2777 148.44 23.5504 147.765 24.0957C147.089 24.641 146.752 25.381 146.752 26.3158C146.752 27.0689 147.012 27.6791 147.531 28.1465C148.05 28.6139 148.686 29.0294 149.439 29.3929C150.218 29.7305 151.062 30.055 151.971 30.3666C152.88 30.6782 153.711 31.0677 154.464 31.5351C155.243 32.0025 155.892 32.5868 156.412 33.2879C156.931 33.963 157.191 34.8459 157.191 35.9365C157.191 36.7674 157.022 37.5205 156.684 38.1956C156.373 38.8707 155.918 39.455 155.321 39.9483C154.75 40.4157 154.049 40.7793 153.218 41.039C152.413 41.3246 151.53 41.4674 150.569 41.4674C149.323 41.4674 148.115 41.2727 146.947 40.8831C145.778 40.4677 144.778 39.9094 143.948 39.2083ZM161.774 22.3819C161.774 21.7327 162.098 21.4081 162.747 21.4081H163.448C164.072 21.4081 164.383 21.7327 164.383 22.3819V24.641C164.383 24.9266 164.357 25.1993 164.305 25.4589C164.279 25.7186 164.253 25.9134 164.227 26.0432H164.305C164.565 25.3421 164.941 24.6929 165.435 24.0957C165.954 23.4725 166.538 22.9272 167.188 22.4598C167.837 21.9924 168.525 21.6289 169.252 21.3692C170.005 21.0836 170.758 20.9407 171.511 20.9407C174.965 20.9667 176.977 22.6026 177.548 25.8484H177.626C177.938 25.1473 178.34 24.4982 178.834 23.9009C179.353 23.3037 179.937 22.7844 180.586 22.3429C181.236 21.9015 181.924 21.5639 182.651 21.3302C183.378 21.0706 184.105 20.9407 184.832 20.9407C187.065 20.9407 188.701 21.5639 189.74 22.8103C190.804 24.0308 191.337 25.9393 191.337 28.536V40.0262C191.337 40.6754 191.012 41 190.363 41H189.662C189.013 41 188.688 40.6754 188.688 40.0262V29.1981C188.688 27.1727 188.35 25.6926 187.675 24.7578C187.026 23.823 185.961 23.3556 184.481 23.3556C183.573 23.3556 182.716 23.5764 181.911 24.0178C181.132 24.4592 180.444 25.0565 179.846 25.8095C179.249 26.5366 178.769 27.3935 178.405 28.3802C178.068 29.3669 177.899 30.4186 177.899 31.5351V40.0262C177.899 40.6754 177.587 41 176.964 41H176.224C175.575 41 175.25 40.6754 175.25 40.0262V29.1981C175.25 27.1468 174.926 25.6667 174.276 24.7578C173.627 23.823 172.576 23.3556 171.122 23.3556C170.213 23.3556 169.356 23.5764 168.551 24.0178C167.746 24.4592 167.032 25.0565 166.409 25.8095C165.811 26.5366 165.331 27.4064 164.967 28.4191C164.604 29.4059 164.422 30.4445 164.422 31.5351V40.0262C164.422 40.6754 164.111 41 163.487 41H162.747C162.098 41 161.774 40.6754 161.774 40.0262V22.3819ZM195.397 35.7417C195.397 33.6125 196.436 31.9636 198.513 30.7951C200.59 29.6006 203.538 29.0034 207.355 29.0034H208.484V28.3802C208.484 25.0045 206.874 23.3167 203.655 23.3167C202.85 23.3167 202.032 23.4335 201.201 23.6672C200.37 23.9009 199.604 24.2385 198.903 24.6799C198.331 24.9915 197.89 24.8877 197.578 24.3683L197.345 23.9788C196.981 23.4335 197.072 22.9921 197.617 22.6545C198.474 22.1352 199.448 21.7197 200.539 21.4081C201.655 21.0965 202.759 20.9407 203.849 20.9407C206.212 20.9407 208.017 21.5899 209.263 22.8882C210.51 24.1606 211.133 26.0172 211.133 28.4581V40.0262C211.133 40.6754 210.821 41 210.198 41H209.575C208.926 41 208.601 40.6754 208.601 40.0262V38.4682C208.601 38.1566 208.601 37.871 208.601 37.6113C208.627 37.3257 208.666 37.118 208.718 36.9881H208.64C208.64 36.9881 208.523 37.2218 208.29 37.6892C208.056 38.1566 207.679 38.676 207.16 39.2472C206.641 39.7925 205.953 40.2989 205.096 40.7663C204.265 41.2337 203.239 41.4674 202.019 41.4674C201.058 41.4674 200.162 41.3246 199.331 41.039C198.526 40.7533 197.825 40.3638 197.228 39.8704C196.656 39.3511 196.202 38.7409 195.865 38.0398C195.553 37.3387 195.397 36.5727 195.397 35.7417ZM198.124 35.508C198.124 36.5986 198.526 37.4945 199.331 38.1956C200.162 38.8967 201.214 39.2472 202.486 39.2472C203.291 39.2472 204.057 39.0655 204.784 38.7019C205.511 38.3124 206.147 37.7931 206.693 37.1439C207.238 36.4688 207.666 35.6898 207.978 34.8069C208.316 33.8981 208.484 32.9373 208.484 31.9246V30.9898H207.394C204.33 30.9898 202.019 31.3793 200.461 32.1583C198.903 32.9114 198.124 34.0279 198.124 35.508ZM216.851 22.3819C216.851 21.7327 217.176 21.4081 217.825 21.4081H218.526C219.149 21.4081 219.461 21.7327 219.461 22.3819V25.0305C219.461 25.3681 219.435 25.6797 219.383 25.9653C219.357 26.2509 219.331 26.4587 219.305 26.5885H219.383C219.902 24.9786 220.733 23.6932 221.876 22.7324C223.018 21.7717 224.291 21.2913 225.693 21.2913C226.368 21.2913 226.706 21.6029 226.706 22.2261V22.9272C226.706 23.5764 226.342 23.9009 225.615 23.9009C224.732 23.9009 223.914 24.1346 223.161 24.602C222.434 25.0435 221.798 25.6537 221.253 26.4327C220.707 27.2117 220.279 28.1465 219.967 29.2371C219.656 30.3017 219.5 31.4572 219.5 32.7036V40.0262C219.5 40.6754 219.188 41 218.565 41H217.825C217.176 41 216.851 40.6754 216.851 40.0262V22.3819ZM230.791 23.7841H229.155C228.532 23.7841 228.22 23.4725 228.22 22.8493V22.5377C228.22 21.8885 228.532 21.5639 229.155 21.5639H230.83V16.9678C230.83 16.3187 231.155 15.9941 231.804 15.9941H232.505C233.128 15.9941 233.44 16.3187 233.44 16.9678V21.5639H237.413C238.062 21.5639 238.386 21.8885 238.386 22.5377V22.8493C238.386 23.4725 238.062 23.7841 237.413 23.7841H233.44V33.5995C233.44 35.1835 233.803 36.4299 234.53 37.3387C235.283 38.2216 236.348 38.689 237.724 38.7409C238.114 38.7928 238.386 38.8967 238.542 39.0525C238.698 39.1823 238.776 39.403 238.776 39.7146V40.221C238.776 40.8442 238.412 41.1558 237.685 41.1558C235.478 41.1558 233.777 40.5326 232.583 39.2862C231.388 38.0138 230.791 36.2351 230.791 33.95V23.7841Z" fill="white"/>
<path d="M146.09 91.1287C146.297 90.6353 146.557 90.3108 146.869 90.155C147.206 90.0251 147.635 90.0511 148.154 90.2329C148.622 90.4146 149.18 90.5834 149.829 90.7392C150.478 90.895 151.257 90.9729 152.166 90.9729C152.919 90.9729 153.633 90.882 154.308 90.7003C155.009 90.5445 155.607 90.2718 156.1 89.8823C156.619 89.4928 157.022 88.9865 157.307 88.3633C157.619 87.766 157.775 87.026 157.775 86.1431V84.663C157.775 84.5332 157.775 84.4163 157.775 84.3124C157.775 84.2086 157.788 84.1047 157.814 84.0008C157.814 83.897 157.827 83.7801 157.853 83.6503H157.775C157.229 84.5851 156.515 85.3122 155.633 85.8315C154.75 86.3508 153.646 86.6105 152.322 86.6105C150.868 86.6105 149.582 86.3508 148.466 85.8315C147.349 85.2862 146.401 84.5591 145.622 83.6503C144.869 82.7155 144.298 81.6379 143.909 80.4174C143.519 79.197 143.324 77.8987 143.324 76.5224C143.324 75.1722 143.506 73.8998 143.87 72.7053C144.259 71.5109 144.83 70.4722 145.583 69.5893C146.336 68.6805 147.271 67.9664 148.388 67.4471C149.504 66.9278 150.803 66.6681 152.283 66.6681C153.451 66.6681 154.412 66.8369 155.165 67.1744C155.918 67.486 156.515 67.8236 156.957 68.1871C157.476 68.6545 157.879 69.1609 158.164 69.7062H158.242C158.216 69.6802 158.203 69.6413 158.203 69.5893V69.1998V68.4598C158.203 68.0963 158.333 67.7847 158.593 67.525C158.878 67.2653 159.281 67.1355 159.8 67.1355H161.124C162.189 67.1355 162.721 67.6808 162.721 68.7714V85.7925C162.721 87.5063 162.41 88.9475 161.787 90.116C161.189 91.3105 160.397 92.2842 159.411 93.0373C158.45 93.7903 157.346 94.3356 156.1 94.6732C154.879 95.0107 153.659 95.1795 152.439 95.1795C151.322 95.1795 150.244 95.0756 149.206 94.8679C148.167 94.6602 147.31 94.4135 146.635 94.1279C145.648 93.7124 145.363 93.0113 145.778 92.0246L146.09 91.1287ZM153.296 82.4428C153.867 82.4428 154.425 82.352 154.97 82.1702C155.542 81.9884 156.035 81.6768 156.45 81.2354C156.892 80.768 157.242 80.1708 157.502 79.4437C157.762 78.6907 157.892 77.7559 157.892 76.6393C157.892 75.4968 157.762 74.562 157.502 73.8349C157.242 73.0819 156.892 72.4846 156.45 72.0432C156.009 71.6018 155.49 71.3031 154.892 71.1473C154.321 70.9656 153.711 70.8747 153.062 70.8747C151.504 70.8747 150.322 71.381 149.517 72.3937C148.712 73.3805 148.31 74.6918 148.31 76.3277C148.31 78.1194 148.738 79.5865 149.595 80.729C150.452 81.8716 151.686 82.4428 153.296 82.4428ZM167.618 68.7714C167.618 67.6808 168.151 67.1355 169.215 67.1355H170.734C171.825 67.1355 172.37 67.6808 172.37 68.7714V70.641C172.37 70.8487 172.357 71.0305 172.331 71.1863C172.331 71.3421 172.318 71.4849 172.292 71.6147C172.266 71.7446 172.254 71.8744 172.254 72.0042H172.331C172.513 71.407 172.786 70.8098 173.149 70.2125C173.513 69.6153 173.941 69.083 174.435 68.6156C174.954 68.1222 175.512 67.7327 176.11 67.4471C176.733 67.1355 177.395 66.9797 178.096 66.9797C178.641 66.9797 179.018 67.1225 179.226 67.4081C179.459 67.6678 179.576 68.0703 179.576 68.6156V70.1346C179.576 71.2252 179.018 71.7705 177.901 71.7705C176.992 71.7705 176.2 71.9783 175.525 72.3937C174.85 72.8092 174.292 73.3545 173.85 74.0296C173.409 74.7048 173.071 75.4708 172.838 76.3277C172.63 77.1846 172.526 78.0675 172.526 78.9763V85.3641C172.526 86.4547 171.994 87 170.929 87H169.215C168.151 87 167.618 86.4547 167.618 85.3641V68.7714ZM180.409 77.0677C180.409 75.5357 180.655 74.1335 181.149 72.8611C181.642 71.5888 182.33 70.4982 183.213 69.5893C184.096 68.6545 185.161 67.9405 186.407 67.4471C187.653 66.9278 189.017 66.6681 190.497 66.6681C191.899 66.6681 193.145 66.9148 194.236 67.4081C195.352 67.8755 196.274 68.5247 197.001 69.3556C197.754 70.1866 198.326 71.1863 198.715 72.3548C199.105 73.5233 199.299 74.7827 199.299 76.1329C199.299 76.5744 199.131 76.9639 198.793 77.3014C198.481 77.639 198.079 77.8078 197.586 77.8078H185.472C185.55 78.7166 185.758 79.5086 186.095 80.1837C186.459 80.8589 186.9 81.4301 187.42 81.8975C187.965 82.339 188.575 82.6765 189.25 82.9102C189.951 83.1439 190.678 83.2608 191.432 83.2608C192.34 83.2608 193.158 83.118 193.885 82.8323C194.638 82.5467 195.249 82.2611 195.716 81.9754C196.209 81.7417 196.625 81.6638 196.962 81.7417C197.326 81.8196 197.638 82.0793 197.897 82.5207L198.365 83.2997C198.858 84.2345 198.676 84.9616 197.819 85.4809C197.17 85.8964 196.274 86.3378 195.132 86.8052C193.989 87.2467 192.639 87.4674 191.081 87.4674C189.445 87.4674 187.965 87.1947 186.641 86.6494C185.316 86.0782 184.187 85.3251 183.252 84.3903C182.343 83.4296 181.642 82.326 181.149 81.0796C180.655 79.8072 180.409 78.4699 180.409 77.0677ZM194.392 74.8086C194.34 73.4064 193.937 72.3288 193.184 71.5758C192.457 70.7968 191.522 70.4073 190.38 70.4073C189.107 70.4073 188.043 70.8098 187.186 71.6147C186.355 72.4197 185.823 73.4843 185.589 74.8086H194.392ZM201.671 77.0677C201.671 75.5357 201.918 74.1335 202.411 72.8611C202.905 71.5888 203.593 70.4982 204.476 69.5893C205.359 68.6545 206.423 67.9405 207.67 67.4471C208.916 66.9278 210.279 66.6681 211.759 66.6681C213.162 66.6681 214.408 66.9148 215.499 67.4081C216.615 67.8755 217.537 68.5247 218.264 69.3556C219.017 70.1866 219.588 71.1863 219.978 72.3548C220.367 73.5233 220.562 74.7827 220.562 76.1329C220.562 76.5744 220.393 76.9639 220.056 77.3014C219.744 77.639 219.342 77.8078 218.848 77.8078H206.735C206.813 78.7166 207.021 79.5086 207.358 80.1837C207.722 80.8589 208.163 81.4301 208.682 81.8975C209.228 82.339 209.838 82.6765 210.513 82.9102C211.214 83.1439 211.941 83.2608 212.694 83.2608C213.603 83.2608 214.421 83.118 215.148 82.8323C215.901 82.5467 216.511 82.2611 216.979 81.9754C217.472 81.7417 217.888 81.6638 218.225 81.7417C218.589 81.8196 218.9 82.0793 219.16 82.5207L219.627 83.2997C220.121 84.2345 219.939 84.9616 219.082 85.4809C218.433 85.8964 217.537 86.3378 216.395 86.8052C215.252 87.2467 213.902 87.4674 212.344 87.4674C210.708 87.4674 209.228 87.1947 207.903 86.6494C206.579 86.0782 205.45 85.3251 204.515 84.3903C203.606 83.4296 202.905 82.326 202.411 81.0796C201.918 79.8072 201.671 78.4699 201.671 77.0677ZM215.654 74.8086C215.603 73.4064 215.2 72.3288 214.447 71.5758C213.72 70.7968 212.785 70.4073 211.643 70.4073C210.37 70.4073 209.306 70.8098 208.449 71.6147C207.618 72.4197 207.085 73.4843 206.852 74.8086H215.654ZM224.142 68.7714C224.142 67.6808 224.674 67.1355 225.739 67.1355H227.258C228.322 67.1355 228.855 67.6808 228.855 68.7714V69.9788C228.855 70.1087 228.842 70.2255 228.816 70.3294C228.816 70.4333 228.816 70.5241 228.816 70.602C228.79 70.7059 228.777 70.7968 228.777 70.8747H228.855C229.062 70.4592 229.361 70.0048 229.75 69.5114C230.14 69.0181 230.62 68.5637 231.192 68.1482C231.763 67.7327 232.438 67.3822 233.217 67.0965C233.996 66.8109 234.892 66.6681 235.904 66.6681C238.112 66.6681 239.812 67.2653 241.007 68.4598C242.227 69.6543 242.838 71.5758 242.838 74.2244V85.3641C242.838 86.4547 242.292 87 241.202 87H239.527C238.436 87 237.891 86.4547 237.891 85.3641V75.2371C237.891 74.0167 237.683 73.0429 237.268 72.3158C236.852 71.5628 236.021 71.1863 234.775 71.1863C233.892 71.1863 233.1 71.3551 232.399 71.6926C231.698 72.0302 231.101 72.4976 230.607 73.0948C230.114 73.6921 229.724 74.3932 229.439 75.1981C229.179 75.9771 229.049 76.8081 229.049 77.6909V85.3641C229.049 86.4547 228.517 87 227.452 87H225.739C224.674 87 224.142 86.4547 224.142 85.3641V68.7714Z" fill="white"/>
<path d="M143.675 123.224C143.675 121.743 143.935 120.38 144.454 119.134C144.973 117.861 145.687 116.771 146.596 115.862C147.505 114.953 148.583 114.239 149.829 113.72C151.101 113.2 152.478 112.941 153.958 112.941C155.126 112.941 156.282 113.148 157.424 113.564C158.567 113.953 159.579 114.486 160.462 115.161C160.93 115.55 160.969 115.992 160.579 116.485L160.307 116.914C159.995 117.407 159.553 117.472 158.982 117.108C158.229 116.537 157.424 116.096 156.567 115.784C155.71 115.472 154.866 115.317 154.036 115.317C152.945 115.317 151.932 115.524 150.997 115.94C150.063 116.329 149.245 116.875 148.544 117.576C147.868 118.277 147.336 119.121 146.947 120.108C146.583 121.068 146.401 122.107 146.401 123.224C146.401 124.366 146.583 125.418 146.947 126.378C147.336 127.339 147.868 128.17 148.544 128.871C149.245 129.572 150.063 130.118 150.997 130.507C151.932 130.897 152.958 131.091 154.075 131.091C155.035 131.117 155.996 130.949 156.957 130.585C157.918 130.222 158.8 129.702 159.605 129.027C160.099 128.638 160.527 128.715 160.891 129.261L161.163 129.65C161.423 130.144 161.345 130.585 160.93 130.975C159.943 131.78 158.839 132.403 157.619 132.844C156.399 133.26 155.178 133.467 153.958 133.467C152.452 133.467 151.062 133.221 149.79 132.727C148.544 132.208 147.466 131.494 146.557 130.585C145.648 129.676 144.934 128.599 144.415 127.352C143.922 126.08 143.675 124.704 143.675 123.224ZM164.138 123.107C164.138 121.679 164.398 120.354 164.917 119.134C165.462 117.887 166.189 116.81 167.098 115.901C168.033 114.992 169.124 114.278 170.37 113.759C171.642 113.213 173.006 112.941 174.46 112.941C175.914 112.941 177.264 113.213 178.51 113.759C179.783 114.278 180.886 114.992 181.821 115.901C182.756 116.81 183.483 117.887 184.002 119.134C184.548 120.354 184.82 121.679 184.82 123.107C184.82 124.561 184.548 125.924 184.002 127.196C183.483 128.443 182.756 129.533 181.821 130.468C180.886 131.403 179.783 132.143 178.51 132.688C177.264 133.208 175.927 133.467 174.499 133.467C173.044 133.467 171.681 133.208 170.409 132.688C169.162 132.143 168.072 131.403 167.137 130.468C166.202 129.533 165.462 128.443 164.917 127.196C164.398 125.924 164.138 124.561 164.138 123.107ZM166.864 123.107C166.864 124.223 167.059 125.275 167.449 126.262C167.838 127.222 168.37 128.066 169.046 128.793C169.747 129.494 170.565 130.053 171.499 130.468C172.434 130.884 173.434 131.091 174.499 131.091C175.563 131.091 176.55 130.884 177.459 130.468C178.394 130.053 179.199 129.494 179.874 128.793C180.575 128.066 181.12 127.222 181.51 126.262C181.899 125.275 182.094 124.223 182.094 123.107C182.094 122.016 181.899 121.003 181.51 120.069C181.12 119.108 180.575 118.277 179.874 117.576C179.199 116.875 178.394 116.329 177.459 115.94C176.55 115.524 175.563 115.317 174.499 115.317C173.434 115.317 172.434 115.524 171.499 115.94C170.565 116.329 169.747 116.875 169.046 117.576C168.37 118.277 167.838 119.108 167.449 120.069C167.059 121.003 166.864 122.016 166.864 123.107ZM189.465 114.382C189.465 113.733 189.789 113.408 190.438 113.408H191.139C191.763 113.408 192.074 113.733 192.074 114.382V116.641C192.074 116.927 192.048 117.199 191.996 117.459C191.97 117.719 191.944 117.913 191.918 118.043H191.996C192.282 117.316 192.697 116.641 193.243 116.018C193.788 115.395 194.411 114.862 195.112 114.421C195.839 113.953 196.605 113.59 197.41 113.33C198.241 113.071 199.072 112.941 199.903 112.941C202.188 112.941 203.85 113.551 204.889 114.771C205.953 115.992 206.486 117.913 206.486 120.536V132.026C206.486 132.675 206.161 133 205.512 133H204.772C204.149 133 203.837 132.675 203.837 132.026V121.237C203.837 119.186 203.5 117.706 202.824 116.797C202.149 115.888 201.059 115.434 199.553 115.434C198.488 115.434 197.501 115.641 196.592 116.057C195.684 116.472 194.892 117.043 194.216 117.771C193.567 118.472 193.048 119.316 192.658 120.302C192.295 121.263 192.113 122.302 192.113 123.418V132.026C192.113 132.675 191.802 133 191.178 133H190.438C189.789 133 189.465 132.675 189.465 132.026V114.382ZM210.964 123.185C210.964 121.679 211.172 120.302 211.588 119.056C212.029 117.784 212.626 116.693 213.379 115.784C214.158 114.875 215.08 114.174 216.145 113.681C217.235 113.187 218.443 112.941 219.767 112.941C220.442 112.941 221.104 113.045 221.753 113.252C222.429 113.434 223.052 113.707 223.623 114.07C224.194 114.408 224.701 114.823 225.142 115.317C225.584 115.784 225.934 116.303 226.194 116.875H226.272C226.194 116.641 226.155 116.148 226.155 115.395V106.592C226.155 105.943 226.479 105.618 227.129 105.618H227.869C228.492 105.618 228.803 105.943 228.803 106.592V132.026C228.803 132.675 228.492 133 227.869 133H227.206C226.557 133 226.233 132.688 226.233 132.065V130.585C226.233 130.377 226.246 130.17 226.272 129.962C226.298 129.728 226.337 129.533 226.389 129.378H226.311C226.051 129.975 225.687 130.533 225.22 131.052C224.753 131.546 224.22 131.974 223.623 132.338C223.026 132.701 222.364 132.974 221.637 133.156C220.936 133.364 220.221 133.467 219.494 133.467C218.196 133.467 217.015 133.234 215.95 132.766C214.911 132.273 214.015 131.585 213.262 130.702C212.535 129.793 211.964 128.703 211.549 127.43C211.159 126.158 210.964 124.743 210.964 123.185ZM213.691 123.185C213.691 124.379 213.834 125.47 214.119 126.456C214.405 127.417 214.82 128.248 215.366 128.949C215.911 129.624 216.56 130.157 217.313 130.546C218.092 130.91 218.949 131.091 219.884 131.091C221.831 131.091 223.376 130.39 224.519 128.988C225.661 127.56 226.233 125.625 226.233 123.185C226.233 122.042 226.077 120.99 225.765 120.03C225.454 119.069 225.025 118.251 224.48 117.576C223.935 116.875 223.273 116.329 222.494 115.94C221.74 115.55 220.91 115.356 220.001 115.356C219.066 115.356 218.209 115.55 217.43 115.94C216.651 116.329 215.989 116.875 215.444 117.576C214.898 118.251 214.47 119.069 214.158 120.03C213.847 120.99 213.691 122.042 213.691 123.185ZM233.48 123.107C233.48 121.679 233.739 120.354 234.259 119.134C234.804 117.887 235.531 116.81 236.44 115.901C237.375 114.992 238.465 114.278 239.712 113.759C240.984 113.213 242.347 112.941 243.801 112.941C245.255 112.941 246.606 113.213 247.852 113.759C249.124 114.278 250.228 114.992 251.163 115.901C252.098 116.81 252.825 117.887 253.344 119.134C253.889 120.354 254.162 121.679 254.162 123.107C254.162 124.561 253.889 125.924 253.344 127.196C252.825 128.443 252.098 129.533 251.163 130.468C250.228 131.403 249.124 132.143 247.852 132.688C246.606 133.208 245.268 133.467 243.84 133.467C242.386 133.467 241.023 133.208 239.751 132.688C238.504 132.143 237.414 131.403 236.479 130.468C235.544 129.533 234.804 128.443 234.259 127.196C233.739 125.924 233.48 124.561 233.48 123.107ZM236.206 123.107C236.206 124.223 236.401 125.275 236.79 126.262C237.18 127.222 237.712 128.066 238.387 128.793C239.088 129.494 239.906 130.053 240.841 130.468C241.776 130.884 242.776 131.091 243.84 131.091C244.905 131.091 245.892 130.884 246.8 130.468C247.735 130.053 248.54 129.494 249.215 128.793C249.916 128.066 250.462 127.222 250.851 126.262C251.241 125.275 251.436 124.223 251.436 123.107C251.436 122.016 251.241 121.003 250.851 120.069C250.462 119.108 249.916 118.277 249.215 117.576C248.54 116.875 247.735 116.329 246.8 115.94C245.892 115.524 244.905 115.317 243.84 115.317C242.776 115.317 241.776 115.524 240.841 115.94C239.906 116.329 239.088 116.875 238.387 117.576C237.712 118.277 237.18 119.108 236.79 120.069C236.401 121.003 236.206 122.016 236.206 123.107Z" fill="white"/>
<defs>
<clipPath id="clip0_105_548">
<rect width="118" height="142" fill="white"/>
</clipPath>
</defs>
</svg>
