<svg width="200" height="201" viewBox="0 0 200 201" fill="none" xmlns="http://www.w3.org/2000/svg">
<rect width="200" height="200.235" rx="54" fill="url(#paint0_linear_105_563)"/>
<g clip-path="url(#clip0_105_563)">
<mask id="mask0_105_563" style="mask-type:luminance" maskUnits="userSpaceOnUse" x="55" y="46" width="90" height="108">
<path d="M55.001 109.344C55.001 97.9437 59.365 86.5407 68.0902 77.8418L99.6905 46.3405L131.288 77.8418C140.013 86.5407 144.377 97.9425 144.377 109.343C144.377 120.744 140.014 132.146 131.288 140.844C122.561 149.544 111.125 153.895 99.6893 153.895C88.2535 153.895 76.8189 149.545 68.0926 140.847C59.3645 132.147 55.001 120.745 55.001 109.344ZM68.3857 133.242C69.428 134.595 70.5695 135.896 71.8122 137.135C74.2564 139.571 76.942 141.62 79.7911 143.282V126.678L68.3857 133.242ZM119.586 126.678V143.284C122.435 141.621 125.12 139.572 127.564 137.136C128.807 135.897 129.949 134.595 130.992 133.241L119.586 126.677V126.678ZM97.0572 84.7975V56.3855L78.9879 74.398L97.0572 84.7975ZM97.0572 107.678V90.8303L75.1518 78.2229L71.8122 81.5523C69.3489 84.008 67.2804 86.7079 65.6049 89.5743L97.0572 107.678V107.678ZM102.322 90.8291V107.677L133.773 89.5743C132.099 86.7085 130.03 84.008 127.567 81.5529L124.227 78.2229L102.323 90.8297L102.322 90.8291ZM102.322 56.3855V84.7969L120.389 74.398L102.322 56.3855ZM60.5435 104.674L84.0422 118.198L94.4476 112.208L63.2719 94.2652C61.8765 97.6171 60.968 101.122 60.5435 104.674ZM78.8012 121.214L60.2848 110.558C60.4804 116.905 62.21 123.215 65.4736 128.885L78.8018 121.214H78.8012ZM139.094 110.556L120.576 121.214L133.904 128.885C137.169 123.214 138.898 116.904 139.094 110.556ZM115.335 118.198L138.834 104.673C138.411 101.121 137.501 97.6159 136.106 94.2646L104.93 112.209L115.335 118.199V118.198ZM98.3563 138.717H92.9767V133.354H98.3563V138.717ZM106.401 133.354V138.717H101.022V133.354H106.401ZM101.022 125.334H106.401V130.697H101.022V125.334ZM92.9767 125.334H98.3563V130.697H92.9767V125.334ZM85.056 123.648V145.848C89.7429 147.714 94.7164 148.647 99.6893 148.647C104.662 148.647 109.635 147.713 114.321 145.849V123.648L99.6893 115.225L85.056 123.648Z" fill="white"/>
</mask>
<g mask="url(#mask0_105_563)">
<path d="M144.377 46.3405H55.001V153.895H144.377V46.3405Z" fill="#F5F5F5"/>
</g>
</g>
<defs>
<linearGradient id="paint0_linear_105_563" x1="99.7356" y1="199.935" x2="99.7356" y2="-0.396944" gradientUnits="userSpaceOnUse">
<stop offset="0.0673077" stop-color="#0046D3"/>
<stop offset="0.519231" stop-color="#65B878"/>
<stop offset="1" stop-color="#9DF500"/>
</linearGradient>
<clipPath id="clip0_105_563">
<rect width="89.376" height="107.554" fill="white" transform="translate(55 46.3405)"/>
</clipPath>
</defs>
</svg>
