<svg width="48" height="48" viewBox="0 0 48 48" fill="none" xmlns="http://www.w3.org/2000/svg">
<path d="M26.1056 39.7857C26.6972 39.2269 27.0666 38.4375 27.0666 37.5619C27.0666 35.8735 25.6903 34.4991 24 34.4991C22.3097 34.4991 20.9334 35.8735 20.9334 37.5619C20.9334 38.4366 21.3037 39.2269 21.8944 39.7857C19.7503 40.4307 18.7678 42.0694 18.7678 43.6969V46.0313C18.7678 46.3416 19.02 46.5938 19.3303 46.5938H28.6697C28.98 46.5938 29.2322 46.3416 29.2322 46.0313V43.6969C29.2322 42.0694 28.2497 40.4297 26.1056 39.7857ZM24 35.6241C25.0706 35.6241 25.9416 36.4932 25.9416 37.5619C25.9416 38.6307 25.0706 39.4997 24 39.4997C22.9294 39.4997 22.0584 38.6307 22.0584 37.5619C22.0584 36.4932 22.9294 35.6241 24 35.6241ZM28.1072 45.4688H26.97V43.9275C26.97 43.6172 26.7178 43.365 26.4075 43.365C26.0972 43.365 25.845 43.6172 25.845 43.9275V45.4688H22.155V43.9275C22.155 43.6172 21.9028 43.365 21.5925 43.365C21.2822 43.365 21.03 43.6172 21.03 43.9275V45.4688H19.8928V43.6969C19.8928 41.8303 21.5053 40.6247 24 40.6247C26.4947 40.6247 28.1072 41.8303 28.1072 43.6969V45.4688ZM9.30281 33.1988C9.40781 33.3497 9.58031 33.4397 9.76406 33.4397C9.94781 33.4397 10.1203 33.3497 10.2253 33.1988L12.1275 30.4716C12.2475 30.3 12.2616 30.075 12.165 29.8894C12.0684 29.7038 11.8762 29.5866 11.6662 29.5866H10.3266V27.8597H23.4375V29.5866H22.0978C21.8878 29.5866 21.6956 29.7028 21.5991 29.8894C21.5025 30.075 21.5166 30.2991 21.6366 30.4716L23.5387 33.1988C23.6437 33.3497 23.8162 33.4397 24 33.4397C24.1837 33.4397 24.3562 33.3497 24.4612 33.1988L26.3634 30.4716C26.4834 30.3 26.4975 30.075 26.4009 29.8894C26.3044 29.7038 26.1122 29.5866 25.9022 29.5866H24.5625V27.8597H37.6725V29.5866H36.3328C36.1228 29.5866 35.9306 29.7028 35.8341 29.8894C35.7375 30.075 35.7516 30.2991 35.8716 30.4716L37.7737 33.1988C37.8787 33.3497 38.0512 33.4397 38.235 33.4397C38.4187 33.4397 38.5912 33.3497 38.6962 33.1988L40.5984 30.4716C40.7184 30.3 40.7325 30.075 40.6359 29.8894C40.5394 29.7038 40.3472 29.5866 40.1372 29.5866H38.7975V27.2972C38.7975 26.9869 38.5453 26.7347 38.235 26.7347H24.5625V24.2485C24.5625 23.9382 24.3103 23.686 24 23.686C23.6897 23.686 23.4375 23.9382 23.4375 24.2485V26.7347H9.76406C9.45374 26.7347 9.20156 26.9869 9.20156 27.2972V29.5866H7.86187C7.65187 29.5866 7.45968 29.7028 7.36312 29.8894C7.26656 30.075 7.28062 30.2991 7.40062 30.4716L9.30281 33.1988ZM24 31.8938L23.1759 30.7125H24.8241L24 31.8938ZM38.235 31.8938L37.4109 30.7125H39.0591L38.235 31.8938ZM10.5891 30.7125L9.76499 31.8938L8.94093 30.7125H10.5891ZM13.4822 18.3844C13.5178 18.4088 13.5562 18.4275 13.5947 18.4435L13.5937 18.4453L23.7853 22.5544C23.8528 22.5816 23.9241 22.5957 23.9953 22.5957C24.0666 22.5957 24.1378 22.5816 24.2053 22.5553L34.4044 18.4463L34.4034 18.4444C34.4428 18.4285 34.4812 18.4097 34.5169 18.3853C34.6669 18.2803 34.7569 18.1078 34.7569 17.9241V5.61378C34.7569 5.37566 34.6078 5.16378 34.3837 5.0841L24.1894 1.4391V1.44003C24.0684 1.39691 23.9344 1.39503 23.8106 1.4391L13.6153 5.0841C13.3912 5.16378 13.2422 5.37566 13.2422 5.61378V17.9241C13.2422 18.1078 13.3322 18.2794 13.4822 18.3844ZM23.9962 21.4266L15.375 17.9503L24 14.8088L32.6241 17.9503L23.9962 21.4266ZM30.3253 15.915L27.3581 14.8341V7.69691L30.3253 8.88097V15.915ZM33.6328 17.1207L31.4503 16.3257V8.50034C31.4503 8.26972 31.3097 8.06347 31.0959 7.97816L27.0037 6.34503C26.8303 6.27566 26.6344 6.29722 26.4797 6.40222C26.325 6.50722 26.2331 6.68159 26.2331 6.86816V14.4263L24.5625 13.816V2.76753L33.6328 6.01034V17.1207ZM14.3672 6.01034L23.4375 2.76753V13.8169L14.3672 17.1207V6.01034ZM21.2822 5.8266C21.1322 5.7216 20.9409 5.69534 20.7684 5.75722L16.6575 7.22722C16.4334 7.30691 16.2844 7.51878 16.2844 7.75691V13.5788C16.2844 13.7625 16.3744 13.9341 16.5244 14.04C16.62 14.1075 16.7334 14.1413 16.8469 14.1413C16.9116 14.1413 16.9772 14.13 17.0391 14.1075L21.15 12.6103C21.3722 12.5297 21.5203 12.3178 21.5203 12.0816V6.28784C21.5203 6.10409 21.4312 5.93253 21.2822 5.8266ZM20.3953 11.6869L17.4094 12.7744V8.15253L20.3953 7.08472V11.6869ZM40.3416 39.7857C40.9331 39.2269 41.3025 38.4375 41.3025 37.5619C41.3025 35.8735 39.9272 34.4991 38.2359 34.4991C36.5447 34.4991 35.1694 35.8735 35.1694 37.5619C35.1694 38.4366 35.5397 39.2269 36.1303 39.7857C33.9862 40.4307 33.0037 42.0694 33.0037 43.6969V46.0313C33.0037 46.3416 33.2559 46.5938 33.5662 46.5938H42.9056C43.2159 46.5938 43.4681 46.3416 43.4681 46.0313V43.6969C43.4681 42.0694 42.4847 40.4297 40.3416 39.7857ZM38.2359 35.6241C39.3066 35.6241 40.1775 36.4932 40.1775 37.5619C40.1775 38.6307 39.3066 39.4997 38.2359 39.4997C37.1653 39.4997 36.2944 38.6307 36.2944 37.5619C36.2944 36.4932 37.1644 35.6241 38.2359 35.6241ZM42.3431 45.4688H41.2059V43.9275C41.2059 43.6172 40.9537 43.365 40.6434 43.365C40.3331 43.365 40.0809 43.6172 40.0809 43.9275V45.4688H36.3909V43.9275C36.3909 43.6172 36.1387 43.365 35.8284 43.365C35.5181 43.365 35.2659 43.6172 35.2659 43.9275V45.4688H34.1287V43.6969C34.1287 41.8303 35.7412 40.6247 38.2359 40.6247C40.7306 40.6247 42.3431 41.8303 42.3431 43.6969V45.4688ZM11.8706 39.7857C12.4622 39.2269 12.8316 38.4375 12.8316 37.5619C12.8316 35.8735 11.4562 34.4991 9.76499 34.4991C8.07374 34.4991 6.69843 35.8735 6.69843 37.5619C6.69843 38.4366 7.06874 39.2269 7.65937 39.7857C5.51531 40.4307 4.53281 42.0694 4.53281 43.6969V46.0313C4.53281 46.3416 4.78499 46.5938 5.09531 46.5938H14.4347C14.745 46.5938 14.9972 46.3416 14.9972 46.0313V43.6969C14.9972 42.0694 14.0137 40.4297 11.8706 39.7857ZM9.76499 35.6241C10.8356 35.6241 11.7066 36.4932 11.7066 37.5619C11.7066 38.6307 10.8356 39.4997 9.76499 39.4997C8.69437 39.4997 7.82343 38.6307 7.82343 37.5619C7.82343 36.4932 8.69343 35.6241 9.76499 35.6241ZM13.8722 45.4688H12.735V43.9275C12.735 43.6172 12.4828 43.365 12.1725 43.365C11.8622 43.365 11.61 43.6172 11.61 43.9275V45.4688H7.91999V43.9275C7.91999 43.6172 7.66781 43.365 7.35749 43.365C7.04718 43.365 6.79499 43.6172 6.79499 43.9275V45.4688H5.65687V43.6969C5.65687 41.8303 7.26937 40.6247 9.76406 40.6247C12.2587 40.6247 13.8712 41.8303 13.8712 43.6969V45.4688H13.8722Z" fill="url(#paint0_linear_187_2529)"/>
<defs>
<linearGradient id="paint0_linear_187_2529" x1="24.0005" y1="1.40686" x2="24.0005" y2="46.5938" gradientUnits="userSpaceOnUse">
<stop stop-color="#6792E9"/>
<stop offset="0.408654" stop-color="#0041C5"/>
<stop offset="1" stop-color="#003AB0"/>
</linearGradient>
</defs>
</svg>
