<svg width="36" height="36" viewBox="0 0 36 36" fill="none" xmlns="http://www.w3.org/2000/svg">
<path d="M17.231 14.631V24C17.231 24.227 17.3025 24.412 17.4455 24.555C17.5888 24.6977 17.7742 24.769 18.0015 24.769C18.2288 24.769 18.4137 24.6977 18.556 24.555C18.698 24.412 18.769 24.227 18.769 24V14.631L22.6885 18.55C22.8262 18.696 23.001 18.769 23.213 18.769C23.425 18.769 23.604 18.696 23.75 18.55C23.896 18.404 23.969 18.225 23.969 18.013C23.969 17.801 23.896 17.6262 23.75 17.4885L18.973 12.7115C18.6987 12.4372 18.3743 12.3 18 12.3C17.6257 12.3 17.3013 12.4372 17.027 12.7115L12.25 17.4885C12.104 17.6345 12.0373 17.8113 12.05 18.019C12.0627 18.227 12.1422 18.404 12.2885 18.55C12.4345 18.696 12.6135 18.769 12.8255 18.769C13.0375 18.769 13.2123 18.696 13.35 18.55L17.231 14.631ZM0 18.0065C0 15.5252 0.472328 13.1953 1.417 11.017C2.36166 8.83867 3.652 6.93067 5.288 5.293C6.924 3.65533 8.83017 2.36383 11.0065 1.4185C13.1828 0.472833 15.5118 0 17.9935 0C20.4825 0 22.8227 0.472333 25.014 1.417C27.205 2.36167 29.111 3.652 30.732 5.288C32.353 6.924 33.6362 8.83017 34.5815 11.0065C35.5272 13.1828 36 15.5118 36 17.9935C36 20.4825 35.5277 22.8227 34.583 25.014C33.6383 27.205 32.3563 29.111 30.737 30.732C29.1177 32.353 27.2133 33.6362 25.024 34.5815C22.835 35.5272 20.4958 36 18.0065 36C15.5252 36 13.1953 35.5277 11.017 34.583C8.83867 33.6383 6.93067 32.3563 5.293 30.737C3.65533 29.1177 2.36383 27.2133 1.4185 25.024C0.472832 22.835 0 20.4958 0 18.0065ZM1.5385 18C1.5385 22.5793 3.13917 26.4678 6.3405 29.6655C9.54183 32.8628 13.4283 34.4615 18 34.4615C22.5793 34.4615 26.4678 32.8628 29.6655 29.6655C32.8628 26.4678 34.4615 22.5793 34.4615 18C34.4615 13.4283 32.8628 9.54183 29.6655 6.3405C26.4678 3.13917 22.5793 1.5385 18 1.5385C13.4283 1.5385 9.54183 3.13917 6.3405 6.3405C3.13917 9.54183 1.5385 13.4283 1.5385 18Z" fill="#0046D3"/>
</svg>
