<svg width="36" height="36" viewBox="0 0 36 36" fill="none" xmlns="http://www.w3.org/2000/svg">
<path d="M17.231 21.369V12C17.231 11.773 17.3025 11.588 17.4455 11.445C17.5888 11.3023 17.7742 11.231 18.0015 11.231C18.2288 11.231 18.4137 11.3023 18.556 11.445C18.698 11.588 18.769 11.773 18.769 12V21.369L22.6885 17.45C22.8262 17.304 23.001 17.231 23.213 17.231C23.425 17.231 23.604 17.304 23.75 17.45C23.896 17.596 23.969 17.775 23.969 17.987C23.969 18.199 23.896 18.3738 23.75 18.5115L18.973 23.2885C18.6987 23.5628 18.3743 23.7 18 23.7C17.6257 23.7 17.3013 23.5628 17.027 23.2885L12.25 18.5115C12.104 18.3655 12.0373 18.1887 12.05 17.981C12.0627 17.773 12.1422 17.596 12.2885 17.45C12.4345 17.304 12.6135 17.231 12.8255 17.231C13.0375 17.231 13.2123 17.304 13.35 17.45L17.231 21.369ZM0 17.9935C0 20.4748 0.472328 22.8047 1.417 24.983C2.36166 27.1613 3.652 29.0693 5.288 30.707C6.924 32.3447 8.83017 33.6362 11.0065 34.5815C13.1828 35.5272 15.5118 36 17.9935 36C20.4825 36 22.8227 35.5277 25.014 34.583C27.205 33.6383 29.111 32.348 30.732 30.712C32.353 29.076 33.6362 27.1698 34.5815 24.9935C35.5272 22.8172 36 20.4882 36 18.0065C36 15.5175 35.5277 13.1773 34.583 10.986C33.6383 8.795 32.3563 6.889 30.737 5.268C29.1177 3.647 27.2133 2.36383 25.024 1.4185C22.835 0.472832 20.4958 0 18.0065 0C15.5252 0 13.1953 0.472332 11.017 1.417C8.83867 2.36167 6.93067 3.64367 5.293 5.263C3.65533 6.88233 2.36383 8.78667 1.4185 10.976C0.472832 13.165 0 15.5042 0 17.9935ZM1.5385 18C1.5385 13.4207 3.13917 9.53217 6.3405 6.3345C9.54183 3.13717 13.4283 1.5385 18 1.5385C22.5793 1.5385 26.4678 3.13717 29.6655 6.3345C32.8628 9.53217 34.4615 13.4207 34.4615 18C34.4615 22.5717 32.8628 26.4582 29.6655 29.6595C26.4678 32.8608 22.5793 34.4615 18 34.4615C13.4283 34.4615 9.54183 32.8608 6.3405 29.6595C3.13917 26.4582 1.5385 22.5717 1.5385 18Z" fill="#0046D3"/>
</svg>
