<svg width="40" height="40" viewBox="0 0 40 40" fill="none" xmlns="http://www.w3.org/2000/svg">
<path d="M21.4375 28.4375H22.375V31.5625H21.4375V32.8125H24.5625V31.5625H23.625V28.4375H24.5625V27.1875H21.4375V28.4375Z" fill="#909090"/>
<path d="M18.4375 27.1875H17.1875C16.8937 27.1875 16.6437 27.3937 16.575 27.675L15.4312 32.8125H16.7125L16.9875 31.5625H18.625L18.9 32.8125H20.1812L19.0375 27.675C18.975 27.3875 18.7187 27.1875 18.425 27.1875H18.4375ZM17.275 30.3125L17.6937 28.4375H17.9437L18.3625 30.3125H17.2812H17.275Z" fill="#909090"/>
<path d="M29.375 30C29.375 24.8312 25.1688 20.625 20 20.625C14.8312 20.625 10.625 24.8312 10.625 30C10.625 35.1688 14.8312 39.375 20 39.375C25.1688 39.375 29.375 35.1688 29.375 30ZM20 38.125C15.5188 38.125 11.875 34.4812 11.875 30C11.875 25.5188 15.5188 21.875 20 21.875C24.4812 21.875 28.125 25.5188 28.125 30C28.125 34.4812 24.4812 38.125 20 38.125Z" fill="#909090"/>
<path d="M34.9812 24.35L34.15 25.2812C35.4875 26.475 36.2562 28.2 36.2562 30C36.2562 31.8 35.4875 33.525 34.15 34.7187L34.9812 35.65C36.5812 34.2187 37.5 32.1562 37.5 30C37.5 27.8437 36.5812 25.7812 34.9812 24.35Z" fill="#909090"/>
<path d="M32.0688 27.275C32.75 28.0125 33.125 28.9813 33.125 30C33.125 31.0188 32.75 31.9875 32.0688 32.725L32.9875 33.5751C33.8875 32.6063 34.3813 31.3375 34.3813 30C34.3813 28.6625 33.8875 27.3938 32.9875 26.425L32.0688 27.275Z" fill="#909090"/>
<path d="M2.5 30C2.5 32.1625 3.41875 34.2187 5.01875 35.65L5.85 34.7187C4.5125 33.525 3.74375 31.8 3.74375 30C3.74375 28.2 4.5125 26.475 5.85 25.2812L5.01875 24.35C3.41875 25.7812 2.5 27.8437 2.5 30Z" fill="#909090"/>
<path d="M7.01875 26.425C6.11875 27.3938 5.625 28.6625 5.625 30C5.625 31.3375 6.11875 32.6063 7.01875 33.5751L7.9375 32.725C7.25625 31.9875 6.88125 31.0188 6.88125 30C6.88125 28.9813 7.25625 28.0125 7.9375 27.275L7.01875 26.425Z" fill="#909090"/>
<path d="M16.875 5.625H18.125V6.875H16.875V5.625Z" fill="#909090"/>
<path d="M19.375 5.625H20.625V6.875H19.375V5.625Z" fill="#909090"/>
<path d="M21.875 5.625H23.125V6.875H21.875V5.625Z" fill="#909090"/>
<path d="M12.5 2.5V10C12.5 11.0312 13.3438 11.875 14.375 11.875H17.6937L19.4187 16.4688C19.5125 16.7125 19.7437 16.875 20.0062 16.875C20.2687 16.875 20.5 16.7125 20.5938 16.4688L22.3187 11.875H25.6375C26.6687 11.875 27.5125 11.0312 27.5125 10V2.5C27.5125 1.46875 26.6687 0.625 25.6375 0.625H14.3875C13.3563 0.625 12.5125 1.46875 12.5125 2.5H12.5ZM26.25 2.5V10C26.25 10.3438 25.9688 10.625 25.625 10.625H21.875C21.6125 10.625 21.3813 10.7875 21.2875 11.0312L20 14.4688L18.7125 11.0312C18.6188 10.7875 18.3875 10.625 18.125 10.625H14.375C14.0312 10.625 13.75 10.3438 13.75 10V2.5C13.75 2.15625 14.0312 1.875 14.375 1.875H25.625C25.9688 1.875 26.25 2.15625 26.25 2.5Z" fill="#909090"/>
</svg>
