<svg width="40" height="40" viewBox="0 0 40 40" fill="none" xmlns="http://www.w3.org/2000/svg">
<g clip-path="url(#clip0_187_2396)">
<path d="M9.81351 37.691H13.2811C15.2912 37.691 15.2942 34.5591 13.2811 34.5591H9.81351C7.80343 34.5591 7.80047 37.691 9.81351 37.691ZM9.81351 35.731H13.2811C13.7905 35.731 13.7905 36.5191 13.2811 36.5191H9.81351C9.30422 36.5191 9.30422 35.731 9.81351 35.731Z" fill="#909090"/>
<path d="M14.1169 20.1398L10.2998 23.957L8.97781 22.635C8.44195 22.0995 7.61343 22.9279 8.14914 23.4636L9.88546 25.2C10.1617 25.4287 10.438 25.4287 10.7141 25.2L14.9456 20.9685C15.4812 20.4327 14.6527 19.6043 14.1169 20.1398Z" fill="#909090"/>
<path d="M39.5648 25.9216C39.3282 25.47 39.1568 24.9753 39.0404 24.4788C38.469 22.0887 37.6009 19.773 36.4605 17.5962L34.5537 13.9566C33.4743 11.8962 30.2888 12.2387 29.6873 14.4987C28.2609 13.9855 26.6506 14.829 26.2605 16.294C25.0812 15.8696 23.7194 16.3695 23.0941 17.4541V4.58773V2.2893C23.0941 1.02703 22.0671 0 20.8047 0H7.15469C6.39711 0 6.39711 1.17188 7.15469 1.17188H20.8047C21.4209 1.17188 21.9222 1.67312 21.9222 2.2893V4.0018H1.17242V2.2893C1.17242 1.67312 1.67367 1.17188 2.28985 1.17188H3.87352C4.6311 1.17188 4.6311 0 3.87352 0H2.28985C1.02758 0 0.000549316 1.02703 0.000549316 2.2893V4.58773V32.8288V37.7107C0.000549316 38.973 1.02758 40 2.28985 40H20.8047C22.067 40 23.0941 38.973 23.0941 37.7107V32.8288V30.4818L25.1879 31.5174C25.7053 31.7734 26.1306 32.1995 26.3854 32.7174C27.3155 34.6077 29.6996 35.3913 31.5723 34.4102L35.0633 32.5812C35.7344 32.2297 35.1906 31.1917 34.5195 31.5432L31.0284 33.3721C29.7317 34.0518 28.0833 33.5135 27.4369 32.2C27.0688 31.4521 26.4547 30.8366 25.7074 30.467L16.822 26.072C15.1532 25.2614 16.3601 22.6434 18.0549 23.4338L21.2812 25.1322C21.7789 25.3942 22.3341 24.8402 22.0731 24.3419L16.4685 13.6441C15.5482 11.9139 18.0128 10.3169 18.9529 12.1116L22.9145 19.6731L23.9492 21.6483C24.2908 22.3005 25.3379 21.7738 24.9873 21.1045L23.9798 19.1816C23.5719 17.8221 25.2502 16.726 26.3305 17.6737L27.4515 19.8134C27.7931 20.4657 28.8402 19.939 28.4895 19.2696L27.3497 17.094C27.243 15.8441 28.7737 15.0397 29.7413 15.8641L30.8695 18.0179C31.2111 18.6702 32.2582 18.1434 31.9076 17.4741L30.7791 15.32C30.6255 13.786 32.7845 13.105 33.5155 14.5004L35.4223 18.1399C36.5177 20.2309 37.3516 22.4553 37.9006 24.751C38.0338 25.3466 38.2434 25.9245 38.5266 26.4652C39.2018 27.7538 38.7026 29.3514 37.4141 30.0266C36.743 30.3783 37.287 31.4163 37.9579 31.0646C39.8189 30.0897 40.5398 27.7825 39.5648 25.9216ZM21.9222 37.7107C21.9222 38.3269 21.4209 38.8281 20.8047 38.8281H2.28985C1.67367 38.8281 1.17242 38.3269 1.17242 37.7107V33.4147H21.9222V37.7107ZM15.0663 23.6247C14.6686 24.4608 14.7459 25.4622 15.2641 26.229C14.2952 27.243 12.9658 27.8176 11.5473 27.8176C8.70883 27.8176 6.39961 25.5084 6.39961 22.6699C6.39961 19.8315 8.70883 17.5223 11.5473 17.5223C14.2405 17.5223 16.4558 19.6016 16.6755 22.2391C15.9815 22.4508 15.3783 22.9688 15.0663 23.6247ZM19.3207 10.7472C19.0652 10.5398 18.7705 10.3802 18.4469 10.2791C16.57 9.69266 14.6798 11.4137 15.0929 13.3358H3.96914C3.86141 13.3358 3.77383 13.2482 3.77383 13.1405V8.95312C3.77383 8.84539 3.86141 8.75781 3.96914 8.75781H19.1254C19.2331 8.75781 19.3207 8.84539 19.3207 8.95312V10.7472ZM21.9222 15.2541L20.4926 12.5254V8.95312C20.4926 8.1993 19.8792 7.58594 19.1254 7.58594H3.96914C3.21531 7.58594 2.60196 8.1993 2.60196 8.95312V13.1405C2.60196 13.8944 3.21531 14.5077 3.96914 14.5077H15.5979L20.1617 23.2188L18.5894 22.391C18.5824 22.3873 18.5753 22.3837 18.5682 22.3804C18.3354 22.2696 18.0919 22.1949 17.8441 22.156C17.5815 18.9111 14.8587 16.3504 11.5473 16.3504C8.06274 16.3504 5.22781 19.1853 5.22781 22.6699C5.22781 26.1545 8.06274 28.9895 11.5473 28.9895C13.295 28.9895 14.9338 28.2808 16.1242 27.0277C17.9831 28.099 19.9988 28.9508 21.9222 29.9021V32.2427H1.17242V5.17367H21.9222V15.2541Z" fill="#909090"/>
</g>
<defs>
<clipPath id="clip0_187_2396">
<rect width="40" height="40" fill="white"/>
</clipPath>
</defs>
</svg>
