<svg width="48" height="48" viewBox="0 0 48 48" fill="none" xmlns="http://www.w3.org/2000/svg">
<g clip-path="url(#clip0_187_2017)">
<path d="M7.99978 29.0166H14.5964C15.0619 29.0166 15.4387 28.6393 15.4387 28.1743C15.4387 27.7093 15.0619 27.332 14.5964 27.332H7.99978C4.5174 27.332 1.68409 24.4992 1.68409 21.0164C1.68409 17.7739 4.11313 15.0741 7.33337 14.7363C7.59791 14.7089 7.83354 14.558 7.96942 14.3301C8.10531 14.1017 8.12555 13.8232 8.02436 13.5779C7.7285 12.8614 7.57912 12.1063 7.57912 11.3325C7.57912 8.08188 10.2235 5.43745 13.4737 5.43745C15.1197 5.43745 16.7055 6.14 17.8229 7.36488C18.0026 7.56196 18.2624 7.66748 18.5303 7.63424C18.7958 7.60773 19.0319 7.45643 19.1682 7.22707C21.0909 3.99766 24.4706 2.06927 28.2103 2.06927C34.0147 2.06927 38.7369 6.79099 38.7369 12.5954C38.7369 12.9679 38.7128 13.3582 38.6642 13.7885C38.6357 14.0376 38.7523 14.2834 38.9258 14.4641C39.0993 14.6448 39.3739 14.7329 39.6264 14.719C39.7503 14.7103 39.8736 14.7007 39.9999 14.7007C43.4827 14.7007 46.3156 17.5335 46.3156 21.0164C46.3156 24.4992 43.4827 27.332 39.9999 27.332H30.316C29.8505 27.332 29.4737 27.7093 29.4737 28.1743C29.4737 28.6393 29.8505 29.0166 30.316 29.0166H39.9999C44.4113 29.0166 48.0001 25.4278 48.0001 21.0164C48.0001 16.7433 44.6324 13.2426 40.4123 13.0272C40.4181 12.8807 40.421 12.7371 40.421 12.5954C40.421 5.86293 34.9433 0.384705 28.2103 0.384705C24.2841 0.384705 20.5733 2.31888 18.2932 5.49287C16.9426 4.37737 15.2353 3.75336 13.4737 3.75336C9.29453 3.75336 5.89455 7.15334 5.89455 11.3325C5.89455 11.9787 5.97598 12.6157 6.13741 13.2349C2.57456 14.0771 0 17.2588 0 21.0164C0 25.4278 3.58887 29.0166 7.99978 29.0166Z" fill="#284379"/>
<path d="M21.8946 40.8057C22.3596 40.8057 22.7369 40.4289 22.7369 39.9639V18.0693H29.5932C29.97 19.5177 31.2773 20.5952 32.8419 20.5952C34.6994 20.5952 36.2105 19.0841 36.2105 17.227C36.2105 15.3699 34.6994 13.8583 32.8419 13.8583C31.2773 13.8583 29.97 14.9363 29.5932 16.3847H21.8946C21.4296 16.3847 21.0528 16.762 21.0528 17.227V39.1216H4.21046V36.4757C5.65892 36.0994 6.73684 34.7916 6.73684 33.227C6.73684 31.3695 5.22573 29.8584 3.36866 29.8584C1.5111 29.8584 0 31.3695 0 33.227C0 34.7916 1.07791 36.0994 2.52637 36.4757V39.9639C2.52637 40.4289 2.90319 40.8057 3.36866 40.8057H21.8946ZM32.8419 15.5429C33.7709 15.5429 34.5265 16.298 34.5265 17.227C34.5265 18.156 33.7709 18.9111 32.8419 18.9111C31.9134 18.9111 31.1578 18.156 31.1578 17.227C31.1578 16.298 31.9134 15.5429 32.8419 15.5429ZM1.68409 33.227C1.68409 32.298 2.43964 31.543 3.36866 31.543C4.2972 31.543 5.05275 32.298 5.05275 33.227C5.05275 34.1556 4.2972 34.9111 3.36866 34.9111C2.43964 34.9111 1.68409 34.1556 1.68409 33.227Z" fill="#284379"/>
<path d="M12.6314 33.227C12.1664 33.227 11.7896 33.6039 11.7896 34.0688C11.7896 34.5343 12.1664 34.9111 12.6314 34.9111H18.5264C18.9914 34.9111 19.3682 34.5343 19.3682 34.0688V23.9638C19.3682 23.7668 19.2993 23.5759 19.173 23.4246L15.484 18.9978C15.8058 18.4817 16 17.8785 16 17.2265C16 15.3694 14.4889 13.8583 12.6314 13.8583C10.7743 13.8583 9.26318 15.3694 9.26318 17.2265C9.26318 19.0841 10.7743 20.5952 12.6314 20.5952C13.2245 20.5952 13.7738 20.428 14.2586 20.1576L17.6841 24.2684V33.227H12.6314ZM10.9473 17.227C10.9473 16.298 11.7028 15.5429 12.6314 15.5429C13.5604 15.5429 14.3159 16.298 14.3159 17.227C14.3159 17.5527 14.2186 17.8539 14.0581 18.1122C13.9584 18.1445 13.862 18.1931 13.7767 18.2644C13.6524 18.3675 13.5801 18.503 13.5319 18.6451C13.2713 18.8113 12.9634 18.9111 12.6314 18.9111C11.7028 18.9111 10.9473 18.156 10.9473 17.227Z" fill="#284379"/>
<path d="M45.4737 33.2271H27.7896V26.3708C29.238 25.9939 30.3159 24.6867 30.3159 23.1216C30.3159 21.2645 28.8044 19.7534 26.9473 19.7534C25.0902 19.7534 23.5791 21.2645 23.5791 23.1216C23.5791 24.6867 24.6565 25.9939 26.105 26.3708V34.0689C26.105 34.5344 26.4823 34.9112 26.9473 34.9112H45.4737C45.9387 34.9112 46.3155 34.5344 46.3155 34.0689C46.3155 33.6039 45.9387 33.2271 45.4737 33.2271ZM25.2632 23.1216C25.2632 22.1931 26.0183 21.4375 26.9473 21.4375C27.8763 21.4375 28.6314 22.1931 28.6314 23.1216C28.6314 24.0506 27.8763 24.8062 26.9473 24.8062C26.0183 24.8062 25.2632 24.0506 25.2632 23.1216Z" fill="#284379"/>
<path d="M44.6314 43.3321H38.3832L35.2574 37.862C35.1075 37.5994 34.8285 37.4375 34.5264 37.4375H26.9473C26.4823 37.4375 26.105 37.8143 26.105 38.2798C26.105 38.7448 26.4823 39.1216 26.9473 39.1216H34.0378L37.1636 44.5921C37.313 44.8542 37.5924 45.0166 37.8946 45.0166H44.6314C45.0964 45.0166 45.4737 44.6393 45.4737 44.1743C45.4737 43.7093 45.0964 43.3321 44.6314 43.3321Z" fill="#284379"/>
<path d="M33.6842 43.3321H31.0383C30.6615 41.8836 29.3542 40.8057 27.7896 40.8057C26.2245 40.8057 24.9173 41.8836 24.5405 43.3321H4.21046C3.74546 43.3321 3.36865 43.7094 3.36865 44.1744C3.36865 44.6394 3.74546 45.0167 4.21046 45.0167H24.5405C24.9173 46.4651 26.2245 47.5426 27.7896 47.5426C29.3542 47.5426 30.6615 46.4651 31.0383 45.0167H33.6842C34.1492 45.0167 34.5265 44.6394 34.5265 44.1744C34.5265 43.7094 34.1492 43.3321 33.6842 43.3321ZM27.7896 45.8585C26.8606 45.8585 26.105 45.1034 26.105 44.1744C26.105 43.2454 26.8606 42.4903 27.7896 42.4903C28.7182 42.4903 29.4737 43.2454 29.4737 44.1744C29.4737 45.1034 28.7182 45.8585 27.7896 45.8585Z" fill="#284379"/>
</g>
<defs>
<clipPath id="clip0_187_2017">
<rect width="48" height="48" fill="white"/>
</clipPath>
</defs>
</svg>
