<svg width="48" height="46" viewBox="0 0 48 46" fill="none" xmlns="http://www.w3.org/2000/svg">
<g clip-path="url(#clip0_187_2001)">
<path d="M24 0C10.7453 0 0 10.2976 0 23C0 35.7024 10.7453 46 24 46C37.2547 46 48 35.7024 48 23C47.9852 10.3036 37.2484 0.0142253 24 0ZM24 44.4667C11.6289 44.4667 1.6 34.8556 1.6 23C1.6 11.1444 11.6289 1.53333 24 1.53333C36.3711 1.53333 46.4 11.1444 46.4 23C46.3859 34.85 36.3652 44.4532 24 44.4667Z" fill="#284379"/>
<path d="M24 3.83331C12.9543 3.83331 4 12.4145 4 23C4 33.5854 12.9543 42.1666 24 42.1666C35.0457 42.1666 44 33.5854 44 23C43.9875 12.4194 35.0406 3.84529 24 3.83331ZM24 40.6333C13.8379 40.6333 5.6 32.7387 5.6 23C5.6 13.2613 13.8379 5.36665 24 5.36665C34.1621 5.36665 42.4 13.2613 42.4 23C42.3887 32.7342 34.1574 40.6225 24 40.6333Z" fill="#284379"/>
<path d="M35.7826 11.7085C35.5279 11.4652 35.1353 11.4147 34.8224 11.585L20.54 19.3965C20.5314 19.4021 20.5275 19.4111 20.5185 19.416C20.4271 19.4912 20.3416 19.5732 20.2627 19.6612C20.2576 19.6694 20.2482 19.6735 20.2428 19.6818L12.0889 33.3691C11.9103 33.6693 11.9635 34.0467 12.2182 34.2911C12.4732 34.5352 12.867 34.5861 13.1803 34.415L27.4603 26.6035C27.4689 26.5979 27.4728 26.5889 27.4818 26.584C27.5732 26.5088 27.6588 26.4268 27.7377 26.3388C27.7428 26.3306 27.7521 26.3265 27.7576 26.3182L35.9115 12.6332C36.0916 12.3326 36.0389 11.9534 35.7826 11.7085ZM14.9314 31.6909L21.1123 21.3173L25.7603 25.7676L14.9314 31.6909ZM26.8881 24.6868L22.2482 20.2399L33.0728 14.3166L26.8881 24.6868Z" fill="#284379"/>
<path d="M11.2002 22.2333H8.0002C7.5584 22.2333 7.2002 22.5766 7.2002 23C7.2002 23.4234 7.5584 23.7667 8.0002 23.7667H11.2002C11.642 23.7667 12.0002 23.4234 12.0002 23C12.0002 22.5766 11.642 22.2333 11.2002 22.2333Z" fill="#284379"/>
<path d="M40 22.2333H36.8C36.3582 22.2333 36 22.5766 36 23C36 23.4234 36.3582 23.7667 36.8 23.7667H40C40.4418 23.7667 40.8 23.4234 40.8 23C40.8 22.5766 40.4418 22.2333 40 22.2333Z" fill="#284379"/>
<path d="M24.0002 11.5C24.442 11.5 24.8002 11.1567 24.8002 10.7334V7.66669C24.8002 7.2433 24.442 6.90002 24.0002 6.90002C23.5584 6.90002 23.2002 7.2433 23.2002 7.66669V10.7334C23.2002 11.1567 23.5584 11.5 24.0002 11.5Z" fill="#284379"/>
<path d="M24.0002 34.5C23.5584 34.5 23.2002 34.8433 23.2002 35.2667V38.3333C23.2002 38.7567 23.5584 39.1 24.0002 39.1C24.442 39.1 24.8002 38.7567 24.8002 38.3333V35.2667C24.8002 34.8433 24.442 34.5 24.0002 34.5Z" fill="#284379"/>
</g>
<defs>
<clipPath id="clip0_187_2001">
<rect width="48" height="46" fill="white"/>
</clipPath>
</defs>
</svg>
