<svg width="32" height="32" viewBox="0 0 32 32" fill="none" xmlns="http://www.w3.org/2000/svg">
<g clip-path="url(#clip0_187_2422)">
<path d="M31 0.5H21C20.7239 0.5 20.5 0.723875 20.5 1V4.541H11.5V1C11.5 0.723875 11.2761 0.5 11 0.5H1C0.723875 0.5 0.5 0.723875 0.5 1V25.5946C0.5 25.8708 0.723875 26.0946 1 26.0946H2.19619V31C2.19619 31.2761 2.42006 31.5 2.69619 31.5H14.9696C15.2458 31.5 15.4696 31.2761 15.4696 31V26.0946H16.5304V31C16.5304 31.2761 16.7543 31.5 17.0304 31.5H29.3039C29.58 31.5 29.8039 31.2761 29.8039 31V26.0946H31C31.2761 26.0946 31.5 25.8708 31.5 25.5946V1C31.5 0.723875 31.2761 0.5 31 0.5ZM21.5 21.7961C21.6259 21.8913 21.757 21.9765 21.893 22.0499C21.7618 22.0611 21.6308 22.074 21.5 22.0888V21.7961ZM26.5 16.8181H28.5209V18.8391H26.5V16.8181ZM28.5209 15.8181H26.5V13.7974H28.5209V15.8181ZM28.5209 9.77612H26.5V7.75519H28.5209V9.77612ZM28.5209 10.7761V12.7974H26.5V10.7761H28.5209ZM25.5 9.77612H23.4791V7.75519H25.5V9.77612ZM23.4791 10.7761H25.5V12.7974H23.4791V10.7761ZM25.5 13.7974V15.7303C24.9996 15.2397 24.313 14.9449 23.4791 14.8865V13.7974H25.5ZM25.5 21.1305V21.8603H24.7463C25.0251 21.6641 25.2788 21.4176 25.5 21.1305ZM26.5 21.8603V19.8391H28.5209V21.8603H26.5ZM28.5209 6.75519H26.5V4.73431H28.5209V6.75519ZM25.5 6.75519H23.4791V4.73431H25.5V6.75519ZM23.1671 15.875C23.6955 15.875 24.4478 15.9957 24.9371 16.5917C24.9504 16.612 24.9653 16.631 24.9813 16.6491C25.2496 17.0043 25.4287 17.5153 25.4287 18.2487C25.4287 18.5889 25.3887 18.9164 25.3158 19.2233C25.3144 19.229 25.3128 19.2346 25.3116 19.2403C25.0112 20.4813 24.1637 21.3783 23.1671 21.3783C21.9201 21.3783 20.9056 19.9744 20.9056 18.2488C20.9056 16.1833 22.3225 15.875 23.1671 15.875ZM20.5 5.541V16.1252C20.115 16.6781 19.9056 17.3973 19.9056 18.2488C19.9056 19.1313 20.1261 19.9493 20.5 20.6212V22.2379C20.1803 22.2969 19.8618 22.3665 19.5446 22.4472V17.8619C19.5446 16.9464 18.7428 16.2015 17.7571 16.2015H14.2428C13.2571 16.2015 12.4552 16.9464 12.4552 17.8619V22.4474C12.1366 22.3691 11.8181 22.3011 11.4999 22.2432V20.6211C11.8738 19.9492 12.0943 19.1313 12.0943 18.2487C12.0943 17.3973 11.8849 16.6781 11.4999 16.1251V5.541H20.5ZM16.551 25.0946H15.4484C15.3229 24.0921 14.6219 23.2827 13.4554 22.7774V17.8619C13.4554 17.4977 13.8086 17.2015 14.2429 17.2015H17.7572C18.1914 17.2015 18.5448 17.4977 18.5448 17.8619V22.7813C17.3643 23.2917 16.6739 24.089 16.551 25.0946ZM11.0944 18.2487C11.0944 19.9743 10.0799 21.3782 8.83288 21.3782C7.83638 21.3782 6.98894 20.4813 6.68844 19.2406C6.68706 19.2339 6.68519 19.2274 6.68356 19.2207C6.61106 18.9145 6.57131 18.5879 6.57131 18.2486C6.57131 17.5154 6.75037 17.0044 7.01856 16.6492C7.03469 16.631 7.04963 16.6119 7.063 16.5914C7.55231 15.9956 8.30456 15.8749 8.83288 15.8749C9.6775 15.875 11.0944 16.1833 11.0944 18.2487ZM6.5 15.7303V13.7974H8.52094V14.8865C7.687 14.9449 7.00037 15.2397 6.5 15.7303ZM8.52094 9.77612H6.5V7.75519H8.52094V9.77612ZM8.52094 10.7761V12.7974H6.5V10.7761H8.52094ZM5.5 9.77612H3.47906V7.75519H5.5V9.77612ZM3.47906 10.7761H5.5V12.7974H3.47906V10.7761ZM5.5 13.7974V15.8181H3.47906V13.7974H5.5ZM3.47906 16.8181H5.5V18.8391H3.47906V16.8181ZM7.25369 21.8603H6.5V21.1306C6.72119 21.4176 6.97487 21.6641 7.25369 21.8603ZM8.52094 6.75519H6.5V4.73431H8.52094V6.75519ZM5.5 6.75519H3.47906V4.73431H5.5V6.75519ZM3.47906 19.8391H5.5V21.8603H3.47906V19.8391ZM10.5 21.7961V22.0947C10.3664 22.0793 10.2329 22.0658 10.0996 22.054C10.2382 21.9797 10.3718 21.8931 10.5 21.7961ZM1.5 1.5H10.5V5.041V15.2487C10.2081 15.0971 9.88044 14.9897 9.52094 14.9301V13.2974V13.2972V4.23431C9.52094 3.95819 9.29706 3.73431 9.02094 3.73431H2.97906C2.70294 3.73431 2.47906 3.95819 2.47906 4.23431V22.3603C2.47906 22.6364 2.70294 22.8603 2.97906 22.8603H4.03575C2.96175 23.3723 2.3335 24.1396 2.21675 25.0946H1.5V1.5ZM14.4696 30.5H12.681V26.7069C12.681 26.4307 12.4571 26.2069 12.181 26.2069C11.9049 26.2069 11.681 26.4307 11.681 26.7069V30.5H5.98469V26.7069C5.98469 26.4307 5.76081 26.2069 5.48469 26.2069C5.20856 26.2069 4.98469 26.4307 4.98469 26.7069V30.5H3.19619V25.4254C3.19619 24.2449 4.406 23.6862 5.421 23.4252C7.64412 22.8536 9.94137 22.8538 12.249 23.4263C13.0783 23.632 14.4696 24.1653 14.4696 25.4254V30.5H14.4696ZM28.8038 30.5H27.0152V26.7069C27.0152 26.4307 26.7914 26.2069 26.5152 26.2069C26.2391 26.2069 26.0152 26.4307 26.0152 26.7069V30.5H20.3189V26.7069C20.3189 26.4307 20.0951 26.2069 19.8189 26.2069C19.5428 26.2069 19.3189 26.4307 19.3189 26.7069V30.5H17.5304V25.4254C17.5304 24.2449 18.7402 23.6862 19.7553 23.4252C21.9784 22.8535 24.2756 22.8539 26.5832 23.4263C27.4125 23.632 28.8038 24.1653 28.8038 25.4254V30.5ZM30.5 25.0946H29.7826C29.6637 24.1451 29.0286 23.369 27.9707 22.8603H29.0209C29.2971 22.8603 29.5209 22.6364 29.5209 22.3603V4.23431C29.5209 3.95819 29.2971 3.73431 29.0209 3.73431H22.9791C22.7029 3.73431 22.4791 3.95819 22.4791 4.23431V14.9301C22.1196 14.9897 21.7919 15.0971 21.5 15.2487V5.041V1.5H30.5V25.0946ZM12.9791 13.7839H19.0209C19.2971 13.7839 19.5209 13.56 19.5209 13.2839V7.24206C19.5209 6.96594 19.2971 6.74206 19.0209 6.74206H12.9791C12.7029 6.74206 12.4791 6.96594 12.4791 7.24206V13.2839C12.4791 13.5599 12.7029 13.7839 12.9791 13.7839ZM13.4791 10.763H15.5V12.7839H13.4791V10.763ZM16.5 12.7839V10.763H18.5209V12.7839H16.5ZM18.5209 9.763H16.5V7.74206H18.5209V9.763ZM15.5 7.74206V9.763H13.4791V7.74206H15.5Z" fill="url(#paint0_linear_187_2422)"/>
</g>
<defs>
<linearGradient id="paint0_linear_187_2422" x1="20.7288" y1="24.7324" x2="17.4373" y2="0.30632" gradientUnits="userSpaceOnUse">
<stop stop-color="#0046D3"/>
<stop offset="0.519231" stop-color="#65B878"/>
<stop offset="1" stop-color="#9DF500"/>
</linearGradient>
<clipPath id="clip0_187_2422">
<rect width="32" height="32" fill="white"/>
</clipPath>
</defs>
</svg>
