<svg width="40" height="40" viewBox="0 0 40 40" fill="none" xmlns="http://www.w3.org/2000/svg">
<path d="M35.625 27.5H34.375V22.5C34.375 22.1685 34.2433 21.8505 34.0089 21.6161C33.7745 21.3817 33.4565 21.25 33.125 21.25H31.875C31.5435 21.25 31.2255 21.3817 30.9911 21.6161C30.7567 21.8505 30.625 22.1685 30.625 22.5V27.5H30V18.75C30 18.4185 29.8683 18.1005 29.6339 17.8661C29.3995 17.6317 29.0815 17.5 28.75 17.5H27.5C27.1685 17.5 26.8505 17.6317 26.6161 17.8661C26.3817 18.1005 26.25 18.4185 26.25 18.75V27.5H25.625V20.625C25.625 20.2935 25.4933 19.9755 25.2589 19.7411C25.0245 19.5067 24.7065 19.375 24.375 19.375H23.125C22.7935 19.375 22.4755 19.5067 22.2411 19.7411C22.0067 19.9755 21.875 20.2935 21.875 20.625V27.5C21.7093 27.4998 21.5504 27.4339 21.4333 27.3168C21.3161 27.1996 21.2502 27.0407 21.25 26.875V16.875C21.25 16.7092 21.1842 16.5503 21.067 16.4331C20.9497 16.3158 20.7908 16.25 20.625 16.25C20.4592 16.25 20.3003 16.3158 20.1831 16.4331C20.0659 16.5503 20 16.7092 20 16.875V26.875C20.0006 27.3721 20.1983 27.8487 20.5498 28.2002C20.9013 28.5517 21.3779 28.7495 21.875 28.75H35.625C35.7908 28.75 35.9497 28.6842 36.067 28.5669C36.1842 28.4497 36.25 28.2908 36.25 28.125C36.25 27.9592 36.1842 27.8003 36.067 27.6831C35.9497 27.5658 35.7908 27.5 35.625 27.5ZM23.125 27.5L23.1241 20.625H24.375V27.5H23.125ZM27.5 27.5L27.4991 18.75H28.75V27.5H27.5ZM31.875 27.5L31.8741 22.5H33.125V27.5H31.875ZM28.75 8.75C28.75 8.66792 28.7661 8.58664 28.7975 8.5108C28.8289 8.43496 28.875 8.36605 28.933 8.30801C28.9911 8.24997 29.06 8.20393 29.1358 8.17253C29.2116 8.14113 29.2929 8.12498 29.375 8.125H35C35.1658 8.125 35.3247 8.19085 35.442 8.30806C35.5592 8.42527 35.625 8.58424 35.625 8.75C35.625 8.91576 35.5592 9.07473 35.442 9.19194C35.3247 9.30915 35.1658 9.375 35 9.375H29.375C29.2929 9.37502 29.2116 9.35887 29.1358 9.32747C29.06 9.29607 28.9911 9.25003 28.933 9.19199C28.875 9.13395 28.8289 9.06504 28.7975 8.9892C28.7661 8.91336 28.75 8.83208 28.75 8.75ZM26.875 8.75C26.875 8.62639 26.9117 8.50555 26.9803 8.40277C27.049 8.29999 27.1466 8.21988 27.2608 8.17258C27.375 8.12527 27.5007 8.11289 27.6219 8.13701C27.7432 8.16112 27.8545 8.22065 27.942 8.30806C28.0294 8.39547 28.0889 8.50683 28.113 8.62807C28.1371 8.74931 28.1247 8.87497 28.0774 8.98918C28.0301 9.10338 27.95 9.20099 27.8472 9.26967C27.7445 9.33834 27.6236 9.375 27.5 9.375C27.3342 9.375 27.1753 9.30915 27.0581 9.19194C26.9409 9.07473 26.875 8.91576 26.875 8.75ZM28.75 11.25C28.75 11.1679 28.7661 11.0866 28.7975 11.0108C28.8289 10.935 28.875 10.8661 28.933 10.808C28.9911 10.75 29.06 10.7039 29.1358 10.6725C29.2116 10.6411 29.2929 10.625 29.375 10.625H35C35.1658 10.625 35.3247 10.6908 35.442 10.8081C35.5592 10.9253 35.625 11.0842 35.625 11.25C35.625 11.4158 35.5592 11.5747 35.442 11.6919C35.3247 11.8092 35.1658 11.875 35 11.875H29.375C29.2929 11.875 29.2116 11.8589 29.1358 11.8275C29.06 11.7961 28.9911 11.75 28.933 11.692C28.875 11.6339 28.8289 11.565 28.7975 11.4892C28.7661 11.4134 28.75 11.3321 28.75 11.25ZM28.75 13.75C28.75 13.6679 28.7661 13.5866 28.7975 13.5108C28.8289 13.435 28.875 13.3661 28.933 13.308C28.9911 13.25 29.06 13.2039 29.1358 13.1725C29.2116 13.1411 29.2929 13.125 29.375 13.125H35C35.1658 13.125 35.3247 13.1908 35.442 13.3081C35.5592 13.4253 35.625 13.5842 35.625 13.75C35.625 13.9158 35.5592 14.0747 35.442 14.1919C35.3247 14.3092 35.1658 14.375 35 14.375H29.375C29.2929 14.375 29.2116 14.3589 29.1358 14.3275C29.06 14.2961 28.9911 14.25 28.933 14.192C28.875 14.1339 28.8289 14.065 28.7975 13.9892C28.7661 13.9134 28.75 13.8321 28.75 13.75ZM26.875 11.25C26.875 11.1264 26.9117 11.0055 26.9803 10.9028C27.049 10.8 27.1466 10.7199 27.2608 10.6726C27.375 10.6253 27.5007 10.6129 27.6219 10.637C27.7432 10.6611 27.8545 10.7207 27.942 10.8081C28.0294 10.8955 28.0889 11.0068 28.113 11.1281C28.1371 11.2493 28.1247 11.375 28.0774 11.4892C28.0301 11.6034 27.95 11.701 27.8472 11.7697C27.7445 11.8383 27.6236 11.875 27.5 11.875C27.3342 11.875 27.1753 11.8092 27.0581 11.6919C26.9409 11.5747 26.875 11.4158 26.875 11.25ZM26.875 13.75C26.875 13.6264 26.9117 13.5055 26.9803 13.4028C27.049 13.3 27.1466 13.2199 27.2608 13.1726C27.375 13.1253 27.5007 13.1129 27.6219 13.137C27.7432 13.1611 27.8545 13.2206 27.942 13.3081C28.0294 13.3955 28.0889 13.5068 28.113 13.6281C28.1371 13.7493 28.1247 13.875 28.0774 13.9892C28.0301 14.1034 27.95 14.201 27.8472 14.2697C27.7445 14.3383 27.6236 14.375 27.5 14.375C27.3342 14.375 27.1753 14.3092 27.0581 14.1919C26.9409 14.0747 26.875 13.9158 26.875 13.75ZM36.875 4.375H5.62501C5.1279 4.37554 4.6513 4.57326 4.29978 4.92477C3.94827 5.27629 3.75055 5.75289 3.75001 6.25V14.4066C3.23003 14.4794 2.7539 14.7377 2.40934 15.1339C2.06478 15.5301 1.87501 16.0374 1.87501 16.5625C1.87501 17.0876 2.06478 17.5949 2.40934 17.9911C2.7539 18.3873 3.23003 18.6456 3.75001 18.7184V21.6506C2.90039 22.4662 2.23842 23.4569 1.81002 24.554C1.38161 25.651 1.19705 26.8282 1.26912 28.0037C1.3412 29.1793 1.66819 30.325 2.22741 31.3615C2.78662 32.3981 3.56467 33.3005 4.50756 34.0062C5.45046 34.7119 6.53561 35.204 7.68773 35.4484C8.83984 35.6927 10.0313 35.6834 11.1795 35.4212C12.3277 35.159 13.4051 34.6501 14.3369 33.9298C15.2687 33.2095 16.0326 32.2951 16.5756 31.25H36.875C37.3721 31.2495 37.8487 31.0517 38.2002 30.7002C38.5518 30.3487 38.7495 29.8721 38.75 29.375V6.25C38.7495 5.75289 38.5518 5.27629 38.2002 4.92477C37.8487 4.57326 37.3721 4.37554 36.875 4.375ZM3.12501 16.5625C3.12501 16.3771 3.17999 16.1958 3.28301 16.0417C3.38602 15.8875 3.53244 15.7673 3.70375 15.6964C3.87505 15.6254 4.06355 15.6068 4.24541 15.643C4.42727 15.6792 4.59431 15.7685 4.72542 15.8996C4.85654 16.0307 4.94582 16.1977 4.982 16.3796C5.01817 16.5615 4.99961 16.75 4.92865 16.9213C4.85769 17.0926 4.73753 17.239 4.58336 17.342C4.42919 17.445 4.24793 17.5 4.06251 17.5C3.81395 17.4997 3.57565 17.4009 3.3999 17.2251C3.22414 17.0494 3.12528 16.8111 3.12501 16.5625ZM8.75001 20.6567V27.1264L3.05146 30.1949C2.62613 29.1984 2.44254 28.1154 2.51568 27.0344C2.58883 25.9534 2.91663 24.9051 3.47232 23.9749C4.02801 23.0448 4.79583 22.2593 5.71307 21.6826C6.63031 21.1059 7.67095 20.7544 8.75001 20.6567ZM10 20.6567C11.5992 20.8047 13.0963 21.5074 14.2319 22.6431C15.3676 23.7787 16.0703 25.2758 16.2183 26.875H10V20.6567ZM9.37501 34.375C8.24013 34.3744 7.12308 34.0927 6.1236 33.5551C5.12412 33.0175 4.27333 32.2408 3.6472 31.2943L9.53305 28.125H16.2183C16.0609 29.8319 15.2722 31.4186 14.0064 32.5746C12.7407 33.7306 11.0892 34.3726 9.37501 34.375ZM37.5 29.375C37.4998 29.5407 37.4339 29.6996 37.3168 29.8168C37.1996 29.9339 37.0407 29.9998 36.875 30H17.1024C17.6209 28.4079 17.6341 26.6944 17.1402 25.0945C16.6463 23.4946 15.6694 22.0867 14.3436 21.064C13.0178 20.0413 11.4081 19.4539 9.73519 19.3824C8.06232 19.3108 6.40829 19.7586 5.00001 20.6644V18.5306C5.37296 18.3541 5.6883 18.0755 5.90952 17.7272C6.13074 17.3789 6.24879 16.9751 6.25001 16.5625C6.24816 16.2348 6.17181 15.9118 6.02674 15.6179L9.18935 12.8066C9.4822 12.9828 9.81221 13.088 10.153 13.1139C10.4938 13.1398 10.8359 13.0856 11.152 12.9556L13.9062 15.1302C13.7732 15.4637 13.7244 15.8249 13.7641 16.1818C13.8038 16.5387 13.9308 16.8803 14.1339 17.1764C14.337 17.4726 14.61 17.7141 14.9286 17.8798C15.2472 18.0454 15.6017 18.13 15.9608 18.126C16.3199 18.1221 16.6725 18.0298 16.9874 17.8572C17.3023 17.6847 17.5699 17.4372 17.7664 17.1367C17.963 16.8362 18.0825 16.4918 18.1144 16.1342C18.1463 15.7765 18.0896 15.4165 17.9493 15.0859L21.5622 12.1013C21.9924 12.3998 22.5156 12.5335 23.0362 12.478C23.5568 12.4225 24.0401 12.1815 24.3977 11.7991C24.7553 11.4166 24.9633 10.9183 24.9838 10.3951C25.0043 9.87197 24.8358 9.35891 24.5092 8.9497C24.1826 8.5405 23.7196 8.26248 23.205 8.16646C22.6903 8.07044 22.1582 8.16282 21.706 8.42673C21.2538 8.69064 20.9117 9.10845 20.7422 9.6038C20.5726 10.0992 20.587 10.639 20.7826 11.1246L17.1546 14.1216C16.7877 13.8771 16.3555 13.7491 15.9146 13.7545C15.4737 13.7598 15.0447 13.8982 14.6838 14.1515L12.1387 12.1421C12.3508 11.8233 12.4756 11.4544 12.5004 11.0723C12.5253 10.6902 12.4493 10.3083 12.2802 9.96477C12.1111 9.62123 11.8548 9.32811 11.5368 9.11475C11.2189 8.90138 10.8505 8.77524 10.4685 8.74896C10.0865 8.72267 9.70425 8.79715 9.36007 8.96495C9.01589 9.13276 8.72181 9.38799 8.50724 9.70513C8.29267 10.0223 8.16514 10.3902 8.1374 10.7721C8.10967 11.154 8.1827 11.5365 8.3492 11.8813L5.18426 14.6946C5.12449 14.6585 5.06334 14.6248 5.00001 14.5944V6.25C5.00018 6.08429 5.06608 5.92542 5.18325 5.80824C5.30043 5.69107 5.4593 5.62517 5.62501 5.625H36.875C37.0407 5.62517 37.1996 5.69107 37.3168 5.80824C37.4339 5.92542 37.4998 6.08429 37.5 6.25V29.375ZM10.9754 11.6004C10.8443 11.7315 10.6773 11.8208 10.4954 11.857C10.3136 11.8932 10.1251 11.8746 9.95375 11.8036C9.78245 11.7327 9.63603 11.6125 9.53302 11.4583C9.43001 11.3042 9.37502 11.1229 9.37502 10.9375C9.37502 10.7521 9.43001 10.5708 9.53302 10.4167C9.63603 10.2625 9.78245 10.1423 9.95375 10.0714C10.1251 10.0004 10.3136 9.98184 10.4954 10.018C10.6773 10.0542 10.8443 10.1435 10.9754 10.2746C11.151 10.4505 11.2496 10.6889 11.2496 10.9375C11.2496 11.1861 11.151 11.4245 10.9754 11.6004ZM16.6004 16.6004C16.4693 16.7315 16.3023 16.8208 16.1204 16.857C15.9386 16.8932 15.7501 16.8746 15.5788 16.8036C15.4074 16.7327 15.261 16.6125 15.158 16.4583C15.055 16.3042 15 16.1229 15 15.9375C15 15.7521 15.055 15.5708 15.158 15.4167C15.261 15.2625 15.4074 15.1423 15.5788 15.0714C15.7501 15.0004 15.9386 14.9818 16.1204 15.018C16.3023 15.0542 16.4693 15.1435 16.6004 15.2746C16.776 15.4505 16.8746 15.6889 16.8746 15.9375C16.8746 16.1861 16.776 16.4245 16.6004 16.6004ZM22.1496 9.64958C22.2807 9.51847 22.4478 9.42918 22.6296 9.39301C22.8115 9.35684 23 9.37541 23.1713 9.44636C23.3426 9.51732 23.489 9.63748 23.592 9.79166C23.695 9.94583 23.75 10.1271 23.75 10.3125C23.75 10.4979 23.695 10.6792 23.592 10.8333C23.489 10.9875 23.3426 11.1077 23.1713 11.1786C23 11.2496 22.8115 11.2682 22.6296 11.232C22.4478 11.1958 22.2807 11.1065 22.1496 10.9754C21.974 10.7995 21.8754 10.5611 21.8754 10.3125C21.8754 10.0639 21.974 9.82553 22.1496 9.64958Z" fill="#909090"/>
<linearGradient id="gradient-fill" x1="20.7288" y1="24.7324" x2="17.4373" y2="0.30632" gradientUnits="userSpaceOnUse">
<stop stop-color="#0046D3"/>
<stop offset="0.519231" stop-color="#65B878"/>
<stop offset="1" stop-color="#9DF500"/>
</linearGradient>
</svg>
