<svg width="67" height="67" viewBox="0 0 67 67" fill="none" xmlns="http://www.w3.org/2000/svg">
<path d="M36.3675 43.4702C36.1204 43.6835 36.0333 44.0268 36.1464 44.3324C36.2595 44.6379 36.5521 44.8408 36.8772 44.8408H52.8401C53.1665 44.8408 53.4578 44.6379 53.5709 44.3324C53.684 44.0268 53.5969 43.6835 53.3499 43.4702L45.3684 36.5733C45.0758 36.3197 44.6415 36.3197 44.3476 36.5733L36.3675 43.4702ZM50.744 43.2804H38.9733L44.8587 38.1948L50.744 43.2804ZM64.6212 39.6655C64.5965 39.4574 64.4885 39.2676 64.3234 39.1401L45.4022 24.5335V14.3895C45.4022 12.0763 43.0343 9.97101 38.7341 8.46262C34.69 7.04395 29.3418 6.26245 23.6775 6.26245C18.0119 6.26245 12.665 7.04395 8.61962 8.46262C4.31811 9.97231 1.9502 12.0763 1.9502 14.3895V45.885C1.9502 48.2035 4.31421 50.31 8.60661 51.8158C12.6442 53.2319 17.995 54.0108 23.6762 54.0108C26.1481 54.0108 28.5577 53.8638 30.858 53.5739V59.532C30.858 59.9624 31.2077 60.3122 31.6382 60.3122H58.0805C58.5109 60.3122 58.8607 59.9624 58.8607 59.532V44.1841L59.7644 44.8668C60.1012 45.1217 60.5784 45.0619 60.8424 44.7342L64.4547 40.2454C64.5861 40.0829 64.6459 39.8735 64.6212 39.6655ZM23.6762 7.82415C35.56 7.82415 43.8418 11.2843 43.8418 14.3895C43.8418 17.4947 35.56 20.9549 23.6762 20.9549C11.7924 20.9549 3.5106 17.496 3.5106 14.3895C3.5106 11.283 11.7924 7.82415 23.6762 7.82415ZM3.5106 17.5065C4.64059 18.5701 6.36353 19.5259 8.61832 20.3165C12.6624 21.7351 18.0106 22.5166 23.6762 22.5166C29.3418 22.5166 34.6887 21.7351 38.7328 20.3165C40.9889 19.5259 42.7118 18.5701 43.8405 17.5065V24.4788L37.1685 29.6906C33.4339 30.8271 28.65 31.4538 23.6749 31.4538C18.1654 31.4538 12.9978 30.7049 9.12285 29.346C5.60934 28.1146 3.5106 26.4476 3.5106 24.8885V17.5065ZM3.5106 28.0132C4.63799 29.0768 6.35703 30.03 8.60661 30.8193C12.6442 32.2353 17.995 33.0142 23.6762 33.0142C27.377 33.0142 30.9815 32.6736 34.1608 32.0416L25.39 38.8931C25.0533 39.1557 24.9908 39.6408 25.2496 39.9801L26.6904 41.8734C25.6956 41.9241 24.6866 41.9528 23.6762 41.9528C18.1667 41.9528 12.9991 41.2038 9.12415 39.8449C5.60934 38.6122 3.5106 36.9465 3.5106 35.3874V28.0132ZM23.6762 52.4517C18.1667 52.4517 12.9991 51.7027 9.12415 50.3438C5.60934 49.1111 3.5106 47.4441 3.5106 45.8863V38.5121C4.63799 39.5757 6.35703 40.5289 8.60661 41.3182C12.6442 42.7343 17.995 43.5132 23.6762 43.5132C25.0741 43.5132 26.4667 43.4624 27.8282 43.3675L28.884 44.755C29.0102 44.9214 29.1974 45.0294 29.4042 45.0567C29.438 45.0606 29.4718 45.0632 29.5043 45.0632C29.6772 45.0632 29.8463 45.0059 29.9841 44.898L30.858 44.2179V51.9991C28.5642 52.2982 26.1533 52.4517 23.6762 52.4517ZM50.7271 58.7531H38.9903V49.2424H50.7271V58.7531ZM57.299 58.7531H52.2862V48.4622C52.2862 48.0318 51.9364 47.682 51.506 47.682H38.2101C37.7796 47.682 37.4299 48.0318 37.4299 48.4622V58.7531H32.4171V43.0047L44.6753 33.4655L57.299 43.006V58.7531ZM60.0999 43.166L45.1395 31.8583C44.8587 31.645 44.4686 31.6476 44.1903 31.8648L29.6473 43.1829L26.9583 39.6486L44.5882 25.8767L62.7396 39.8878L60.0999 43.166Z" fill="#0046D3"/>
</svg>
