<svg width="40" height="40" viewBox="0 0 40 40" fill="none" xmlns="http://www.w3.org/2000/svg">
<path d="M38.1586 33.8969L31.5414 26.8031C32.432 25.5922 32.9953 24.1648 33.1703 22.6305C33.4344 20.3141 32.7805 18.0328 31.3297 16.2086C29.8781 14.3836 27.8031 13.2336 25.4867 12.9695C25.2641 12.9445 25.0422 12.9273 24.8211 12.9187C24.8922 12.3633 24.9422 11.7961 24.968 11.225C24.968 11.218 24.9688 11.2109 24.9688 11.2039V4.31327C24.9688 4.06952 24.782 3.86639 24.5391 3.84608C18.4078 3.33358 16.4414 2.76874 13.2766 1.21952C13.1469 1.15624 12.9945 1.15624 12.8641 1.21952C9.69922 2.76952 7.73281 3.33358 1.60156 3.84608C1.35859 3.86639 1.17188 4.06952 1.17188 4.31327V11.2039C1.17188 11.2109 1.17188 11.218 1.17266 11.225C1.34922 15.0844 2.54141 18.5125 4.71563 21.4156C6.725 24.0976 9.47266 26.2148 12.8828 27.707C12.943 27.7328 13.007 27.7461 13.0711 27.7461C13.1352 27.7461 13.1992 27.7328 13.2594 27.707C14.5242 27.1539 15.7156 26.5016 16.8094 25.7648C18.1195 28.2 20.5609 29.9781 23.5102 30.314C23.8469 30.3523 24.182 30.3711 24.5156 30.3711C25.7023 30.3711 26.8633 30.1289 27.9406 29.6648L33.3641 37.7101C33.7586 38.2953 34.3797 38.6797 35.1125 38.793C35.2625 38.8164 35.4148 38.8273 35.568 38.8273C36.2898 38.8273 37.0242 38.575 37.6016 38.1156C38.3016 37.5594 38.757 36.7094 38.8219 35.843C38.875 35.1039 38.6406 34.4125 38.1586 33.8969ZM13.0703 26.7648C6.32422 23.7437 2.43438 18.2219 2.10938 11.193V4.74374C7.92969 4.23827 9.97812 3.65858 13.0703 2.16171C16.1625 3.65858 18.2109 4.23827 24.0305 4.74374V11.193C24.0031 11.7812 23.9492 12.364 23.8719 12.9336C22.5969 13.0226 21.3648 13.3898 20.2484 14.0156C19.9469 13.0937 19.5055 12.1945 18.9313 11.3344C18.8148 11.1594 18.5961 11.0836 18.3961 11.1492C18.1961 11.2141 18.0641 11.4047 18.0734 11.614C18.1172 12.6625 17.8836 13.4773 17.3477 14.1031C17.7234 12.3523 17.5438 10.65 16.8094 9.02655C16.0656 7.38124 14.7461 5.77655 12.7758 4.1203C12.6117 3.98202 12.3742 3.97343 12.2 4.09921C12.0258 4.22499 11.9594 4.45311 12.0383 4.65233C13.2594 7.72889 12.5383 8.38202 11.2281 9.56796C10.2398 10.4633 8.92422 11.6539 8.18047 14.2648L7.11563 12.8039C7.01641 12.668 6.85391 12.5953 6.68594 12.6141C6.51875 12.632 6.37422 12.7383 6.30703 12.8922C5.11953 15.6086 5.11641 18.3086 6.29922 20.4945C7.55234 22.8109 9.99297 24.3351 13.3563 24.9008C13.382 24.9047 13.4078 24.907 13.4344 24.907C13.4414 24.907 13.4477 24.907 13.4547 24.9062C14.4125 24.8656 15.325 24.6516 16.175 24.2711C16.243 24.4859 16.3188 24.6969 16.4031 24.9047C15.3773 25.607 14.2594 26.2312 13.0703 26.7648ZM10.9328 23.2648C10.0531 21.8828 9.82891 20.3601 10.2766 18.9391C10.6203 19.5359 11.1352 20.043 11.5883 20.2008C11.7453 20.2555 11.9195 20.2226 12.0461 20.1148C12.1727 20.007 12.2328 19.8406 12.2039 19.6765C11.8164 17.4766 12.2281 15.6453 13.3133 14.5375C13.3063 15.6086 13.9609 16.4836 14.6 17.3375C15.1531 18.0773 15.7242 18.8414 15.9648 19.7953C15.9047 20.0765 15.8578 20.3625 15.825 20.6523C15.7195 21.5758 15.7641 22.482 15.9375 23.3484C15.1687 23.7156 14.3383 23.9242 13.4641 23.9672C12.5391 23.8094 11.6938 23.5734 10.9328 23.2648ZM16.4047 18.3609C16.0938 17.7703 15.7086 17.2539 15.3508 16.7766C14.4219 15.5351 13.9234 14.7766 14.4945 13.6219C14.5836 13.4414 14.5477 13.2242 14.4055 13.082C14.2625 12.9398 14.0453 12.9047 13.8656 12.9945C11.9867 13.932 11.0094 15.9601 11.1344 18.5476C10.9469 18.2469 10.8125 17.9109 10.825 17.6422C10.8344 17.4273 10.6969 17.2328 10.4898 17.1719C10.2836 17.1101 10.0617 17.1976 9.95234 17.3836C9.01016 18.9851 8.875 20.8383 9.52891 22.5539C8.48203 21.8984 7.67109 21.0578 7.125 20.0492C6.19375 18.3273 6.10625 16.2211 6.86172 14.0469L8.02031 15.6375C8.12969 15.7875 8.31797 15.8594 8.5 15.8195C8.68203 15.7797 8.82266 15.6359 8.85938 15.4539C9.46406 12.4328 10.7914 11.2305 11.8586 10.2641C13.1305 9.11249 13.9531 8.20624 13.457 6.00858C16.4555 8.99139 17.2797 11.9359 16.0555 15.1765C15.9867 15.3586 16.0375 15.5633 16.182 15.6922C16.3273 15.8211 16.5367 15.8476 16.7094 15.7578C17.8586 15.1617 18.582 14.2734 18.8711 13.1062C19.0992 13.5758 19.2852 14.0531 19.4289 14.5367C19.3055 14.625 19.1844 14.7164 19.0648 14.8109C17.868 15.7617 16.9617 16.9812 16.4047 18.3609ZM23.6148 29.3828C19.3461 28.8961 16.2695 25.0273 16.7562 20.7594C16.9922 18.6914 18.0188 16.8391 19.6477 15.5437C21.0398 14.4367 22.7297 13.8492 24.482 13.8492C24.7797 13.8492 25.0797 13.8664 25.3797 13.9008C27.4477 14.1367 29.2992 15.1633 30.5953 16.7922C31.8906 18.4211 32.4742 20.457 32.2383 22.5242C32.0023 24.5922 30.9758 26.4437 29.3469 27.7398C27.7188 29.0351 25.6828 29.6187 23.6148 29.3828ZM29.9312 28.4734C30.2953 28.1836 30.632 27.8687 30.9406 27.5328L32.3789 29.0742L29.9664 30.993L28.7875 29.2437C29.1836 29.0195 29.5672 28.7633 29.9312 28.4734ZM37.8852 35.7742C37.8398 36.3844 37.5148 36.9859 37.0164 37.3828C36.518 37.7797 35.8586 37.9609 35.2539 37.8672C34.9203 37.8156 34.4562 37.6562 34.1406 37.1875L30.4914 31.7742L33.0203 29.7633L37.4734 34.5367C37.8594 34.95 37.9102 35.4375 37.8852 35.7742ZM25.2773 14.7992C23.4492 14.5906 21.65 15.107 20.2102 16.2516C18.7703 17.3969 17.8625 19.0336 17.6547 20.8617C17.4461 22.6898 17.9625 24.4891 19.107 25.9289C20.2516 27.3687 21.8891 28.2766 23.7172 28.4844C23.9828 28.5148 24.2477 28.5297 24.5109 28.5297C26.0602 28.5297 27.5539 28.0109 28.7844 27.032C30.2242 25.8867 31.132 24.25 31.3398 22.4219C31.7703 18.6484 29.0508 15.2289 25.2773 14.7992ZM30.4094 22.3156C30.0641 25.3476 27.4844 27.5922 24.5023 27.5914C24.2781 27.5914 24.0516 27.5789 23.8242 27.5531C22.2453 27.3734 20.8305 26.5891 19.8414 25.3453C18.8523 24.1016 18.4062 22.5469 18.5867 20.968C18.7664 19.3891 19.5508 17.9742 20.7945 16.9851C21.8578 16.1398 23.1477 15.6914 24.4859 15.6914C24.7133 15.6914 24.9422 15.7047 25.1719 15.7305C28.4313 16.1023 30.7805 19.0562 30.4094 22.3156ZM28.5609 18.7844C28.7437 18.9672 28.7437 19.264 28.5609 19.4469L23.5086 24.4992C23.4172 24.5906 23.2969 24.6367 23.1773 24.6367C23.057 24.6367 22.9375 24.5906 22.8461 24.4992L20.4336 22.0867C20.2508 21.9039 20.2508 21.607 20.4336 21.4242C20.6164 21.2414 20.9133 21.2414 21.0961 21.4242L23.1766 23.5047L27.8969 18.7844C28.0812 18.6016 28.3781 18.6016 28.5609 18.7844Z" fill="#909090"/>
<linearGradient id="gradient-fill" x1="20.7288" y1="24.7324" x2="17.4373" y2="0.30632" gradientUnits="userSpaceOnUse">
<stop stop-color="#0046D3"/>
<stop offset="0.519231" stop-color="#65B878"/>
<stop offset="1" stop-color="#9DF500"/>
</linearGradient>
</svg>
