<svg width="670" height="670" viewBox="0 0 670 670" fill="none" xmlns="http://www.w3.org/2000/svg">
    <g clip-path="url(#clip0_219_3193)">
        <g filter="url(#filter0_d_219_3193)" id="segment-3" data-slide-index="1" data-segment="3">
            <path d="M642.999 332.77C642.999 374.596 634.772 415.278 618.543 453.675C602.906 490.667 580.564 523.846 552.139 552.298C523.709 580.749 490.549 603.107 453.589 618.747C418.907 633.429 382.365 641.571 344.789 643V498.521C362.954 497.227 380.61 492.99 397.425 485.872C417.206 477.5 434.958 465.525 450.196 450.279C465.43 435.029 477.396 417.264 485.763 397.469C494.432 376.953 498.83 355.186 498.83 332.77C498.83 310.355 494.432 288.593 485.763 268.072C484.653 265.446 483.48 262.854 482.24 260.3L607.274 188.056C611.349 195.803 615.107 203.743 618.543 211.871C634.772 250.268 642.999 290.944 642.999 332.77Z" fill="white"/>
            <path d="M547.553 425.503C545.478 425.531 543.539 426.366 542.091 427.853C540.644 429.339 539.864 431.301 539.893 433.375C539.951 437.621 543.424 441.035 547.658 441.034C547.695 441.034 547.731 441.034 547.766 441.033C549.841 441.004 551.78 440.169 553.228 438.683C554.675 437.195 555.455 435.235 555.426 433.161C555.398 431.086 554.563 429.148 553.075 427.7C551.588 426.253 549.628 425.473 547.553 425.503ZM552.109 437.597C550.953 438.786 549.403 439.453 547.745 439.475C544.323 439.526 541.5 436.777 541.453 433.354C541.43 431.696 542.054 430.129 543.211 428.941C544.368 427.752 545.917 427.085 547.575 427.063C549.23 427.039 550.801 427.664 551.99 428.82C553.178 429.976 553.845 431.526 553.869 433.183C553.889 434.842 553.265 436.409 552.109 437.597ZM561.685 436.331L559.464 434.469C559.509 434.016 559.529 433.56 559.522 433.105C559.517 432.768 559.499 432.427 559.465 432.09L561.701 430.224C561.963 430.006 562.052 429.642 561.922 429.326L560.531 425.985C560.401 425.671 560.083 425.478 559.742 425.508L556.845 425.763C556.341 425.147 555.775 424.582 555.157 424.078L555.416 421.199C555.447 420.858 555.252 420.538 554.936 420.408L551.589 419.027C551.274 418.897 550.912 418.987 550.693 419.247L548.832 421.465C548.388 421.421 547.94 421.403 547.493 421.408C547.147 421.413 546.8 421.433 546.454 421.468L544.589 419.23C544.371 418.967 544.007 418.879 543.691 419.009L540.348 420.399C540.033 420.529 539.841 420.849 539.87 421.188L540.128 424.105C539.536 424.591 538.994 425.134 538.506 425.724L535.513 425.537C535.178 425.516 534.871 425.71 534.743 426.018L534.594 426.379H509.354C505.626 426.379 502.594 429.412 502.594 433.138V463.154C502.594 466.881 505.626 469.913 509.354 469.913H521.588L519.082 475.429H514.275C512.566 475.429 511.176 476.819 511.176 478.528C511.176 480.237 512.569 481.627 514.276 481.627H546.171C547.879 481.627 549.269 480.237 549.269 478.528C549.269 476.819 547.879 475.429 546.171 475.429H541.367L538.91 469.913H551.091C554.819 469.913 557.852 466.881 557.852 463.154V440.882L559.732 441.051C560.072 441.082 560.392 440.887 560.522 440.571L561.903 437.225C562.036 436.912 561.946 436.549 561.685 436.331ZM509.354 427.941H533.949L533.361 429.366C533.23 429.685 533.322 430.051 533.59 430.269L535.852 432.112C535.81 432.551 535.791 432.993 535.798 433.432C535.802 433.753 535.82 434.076 535.85 434.397L533.603 436.38C533.353 436.601 533.27 436.956 533.399 437.264L534.789 440.606C534.921 440.924 535.246 441.117 535.588 441.083L538.486 440.788C538.968 441.376 539.505 441.916 540.09 442.402L539.902 445.415C539.881 445.748 540.075 446.057 540.383 446.185L543.73 447.566C543.826 447.606 543.928 447.624 544.028 447.624C544.258 447.624 544.481 447.523 544.632 447.337L546.479 445.072C546.925 445.116 547.375 445.135 547.825 445.129C548.135 445.125 548.45 445.108 548.765 445.078L550.746 447.324C550.968 447.573 551.323 447.655 551.631 447.528L554.974 446.138C555.291 446.005 555.485 445.681 555.451 445.338L555.159 442.462C555.562 442.133 555.939 441.777 556.295 441.398V460.055H504.155V433.138C504.155 430.272 506.487 427.941 509.354 427.941ZM547.709 478.528C547.709 479.376 547.018 480.066 546.171 480.066H514.276C513.428 480.066 512.738 479.376 512.738 478.528C512.738 477.68 513.428 476.99 514.276 476.99H546.171C547.02 476.99 547.709 477.68 547.709 478.528ZM539.66 475.429H520.797L523.303 469.913H537.203L539.66 475.429ZM551.092 468.353H509.354C506.487 468.353 504.154 466.021 504.154 463.154V461.616H556.292V463.154C556.292 466.021 553.96 468.353 551.092 468.353ZM559.301 439.446L556.552 439.199C556.286 439.175 556.025 439.29 555.862 439.504C555.286 440.26 554.608 440.933 553.85 441.503C553.583 441.705 553.475 442.054 553.577 442.368L553.837 444.919L551.545 445.873L549.821 443.92C549.676 443.615 549.351 443.436 549.014 443.48C548.611 443.533 548.203 443.563 547.801 443.568C547.272 443.576 546.741 443.542 546.221 443.47C545.879 443.421 545.548 443.605 545.405 443.917L543.787 445.9L541.492 444.953L541.655 442.357C541.782 442.033 541.679 441.663 541.402 441.451C540.661 440.885 540.001 440.22 539.436 439.475C539.231 439.203 538.872 439.098 538.553 439.211L536.006 439.471L535.053 437.18L537.006 435.457C537.313 435.313 537.493 434.986 537.448 434.647C537.393 434.239 537.362 433.822 537.357 433.41C537.349 432.89 537.382 432.366 537.452 431.855C537.499 431.514 537.317 431.185 537.008 431.041L535.024 429.425L535.971 427.131L538.57 427.293C538.89 427.41 539.25 427.306 539.458 427.033C540.02 426.296 540.678 425.637 541.415 425.075C541.638 424.906 541.747 424.632 541.716 424.362L541.474 421.621L543.758 420.672L545.53 422.794C545.702 423.001 545.968 423.104 546.236 423.067C546.66 423.009 547.091 422.976 547.518 422.97C548.033 422.963 548.55 422.995 549.057 423.063C549.323 423.1 549.588 422.997 549.761 422.792L551.524 420.688L553.811 421.632L553.566 424.36C553.541 424.628 553.657 424.889 553.871 425.052C554.625 425.622 555.299 426.295 555.871 427.049C556.034 427.262 556.294 427.377 556.56 427.355L559.308 427.113L560.257 429.397L558.139 431.166C557.932 431.337 557.829 431.604 557.866 431.869C557.922 432.284 557.954 432.708 557.959 433.128C557.967 433.649 557.935 434.176 557.863 434.691C557.827 434.956 557.93 435.223 558.135 435.396L560.242 437.162L559.301 439.446ZM532.163 464.73C532.163 465.16 531.814 465.51 531.383 465.51H529.065C528.634 465.51 528.284 465.16 528.284 464.73C528.284 464.3 528.634 463.95 529.065 463.95H531.383C531.814 463.95 532.163 464.3 532.163 464.73ZM507.237 454.429V434.487C507.237 432.712 508.682 431.267 510.457 431.267H525.45C527.225 431.267 528.669 432.712 528.669 434.487V440.386C528.669 440.817 528.32 441.167 527.889 441.167C527.459 441.167 527.109 440.817 527.109 440.386V434.487C527.109 433.573 526.365 432.828 525.45 432.828H510.456C509.541 432.828 508.796 433.571 508.796 434.487V454.429C508.796 455.343 509.54 456.088 510.456 456.088H516.086C516.516 456.088 516.866 456.438 516.866 456.868C516.866 457.299 516.516 457.648 516.086 457.648H510.456C508.681 457.648 507.237 456.204 507.237 454.429ZM512.223 437.93C512.223 437.5 512.573 437.15 513.003 437.15H520.93C521.36 437.15 521.71 437.5 521.71 437.93C521.71 438.361 521.36 438.71 520.93 438.71H513.003C512.573 438.71 512.223 438.361 512.223 437.93ZM518.382 443.767H513.002C512.571 443.767 512.221 443.418 512.221 442.987C512.221 442.557 512.571 442.207 513.002 442.207H518.382C518.813 442.207 519.163 442.557 519.163 442.987C519.163 443.418 518.814 443.767 518.382 443.767ZM515.621 447.265C516.051 447.265 516.401 447.615 516.401 448.045C516.401 448.476 516.051 448.826 515.621 448.826H513.002C512.571 448.826 512.221 448.476 512.221 448.045C512.221 447.615 512.571 447.265 513.002 447.265H515.621ZM516.741 450.555C516.741 455.098 520.438 458.795 524.982 458.795C529.525 458.795 533.222 455.098 533.222 450.555C533.222 446.012 529.525 442.315 524.982 442.315C520.438 442.315 516.741 446.012 516.741 450.555ZM531.663 450.555C531.663 454.239 528.665 457.235 524.983 457.235C521.299 457.235 518.303 454.238 518.303 450.555C518.303 446.873 521.3 443.875 524.983 443.875C528.665 443.875 531.663 446.873 531.663 450.555ZM524.983 449.452L527.924 446.511C528.229 446.207 528.723 446.207 529.028 446.511C529.333 446.815 529.333 447.309 529.028 447.615L525.536 451.108C525.383 451.26 525.183 451.337 524.984 451.337C524.785 451.337 524.585 451.26 524.433 451.108L522.693 449.368C522.389 449.064 522.389 448.57 522.693 448.264C522.997 447.96 523.491 447.96 523.797 448.264L524.983 449.452Z" fill="#0046D3"/>
        </g>
        <g filter="url(#filter1_d_219_3193)" id="segment-2" data-slide-index="2" data-segment="2">
            <path d="M321.21 498.521V643C283.639 641.571 247.096 633.429 212.413 618.752C175.448 603.107 142.293 580.749 113.862 552.298C85.4313 523.846 63.0894 490.667 47.4564 453.675C31.2274 415.278 23 374.596 23 332.77C23 290.944 31.2274 250.268 47.4564 211.871C50.8877 203.743 54.6458 195.803 58.721 188.056L183.761 260.3C182.522 262.854 181.349 265.446 180.239 268.072C171.569 288.593 167.172 310.359 167.172 332.77C167.172 355.181 171.569 376.953 180.239 397.469C188.606 417.264 200.572 435.029 215.806 450.279C231.04 465.525 248.797 477.5 268.573 485.872C285.393 492.99 303.049 497.227 321.21 498.521Z" fill="white"/>
            <path d="M141.367 462.47C141.12 462.684 141.033 463.027 141.146 463.332C141.26 463.638 141.552 463.841 141.877 463.841H157.84C158.167 463.841 158.458 463.638 158.571 463.332C158.684 463.027 158.597 462.684 158.35 462.47L150.368 455.573C150.076 455.32 149.642 455.32 149.348 455.573L141.367 462.47ZM155.744 462.28H143.973L149.859 457.195L155.744 462.28ZM169.621 458.665C169.596 458.457 169.489 458.268 169.323 458.14L150.402 443.533V433.39C150.402 431.076 148.034 428.971 143.734 427.463C139.69 426.044 134.342 425.262 128.678 425.262C123.012 425.262 117.665 426.044 113.62 427.463C109.318 428.972 106.95 431.076 106.95 433.39V464.885C106.95 467.203 109.314 469.31 113.607 470.816C117.644 472.232 122.995 473.011 128.676 473.011C131.148 473.011 133.558 472.864 135.858 472.574V478.532C135.858 478.962 136.208 479.312 136.638 479.312H163.08C163.511 479.312 163.861 478.962 163.861 478.532V463.184L164.764 463.867C165.101 464.122 165.578 464.062 165.842 463.734L169.455 459.245C169.586 459.083 169.646 458.874 169.621 458.665ZM128.676 426.824C140.56 426.824 148.842 430.284 148.842 433.39C148.842 436.495 140.56 439.955 128.676 439.955C116.792 439.955 108.511 436.496 108.511 433.39C108.511 430.283 116.792 426.824 128.676 426.824ZM108.511 436.506C109.641 437.57 111.364 438.526 113.618 439.316C117.662 440.735 123.011 441.517 128.676 441.517C134.342 441.517 139.689 440.735 143.733 439.316C145.989 438.526 147.712 437.57 148.841 436.506V443.479L142.168 448.691C138.434 449.827 133.65 450.454 128.675 450.454C123.165 450.454 117.998 449.705 114.123 448.346C110.609 447.115 108.511 445.448 108.511 443.888V436.506ZM108.511 447.013C109.638 448.077 111.357 449.03 113.607 449.819C117.644 451.235 122.995 452.014 128.676 452.014C132.377 452.014 135.981 451.674 139.161 451.042L130.39 457.893C130.053 458.156 129.991 458.641 130.25 458.98L131.69 460.873C130.696 460.924 129.687 460.953 128.676 460.953C123.167 460.953 117.999 460.204 114.124 458.845C110.609 457.612 108.511 455.946 108.511 454.387V447.013ZM128.676 471.452C123.167 471.452 117.999 470.703 114.124 469.344C110.609 468.111 108.511 466.444 108.511 464.886V457.512C109.638 458.576 111.357 459.529 113.607 460.318C117.644 461.734 122.995 462.513 128.676 462.513C130.074 462.513 131.467 462.462 132.828 462.368L133.884 463.755C134.01 463.921 134.197 464.029 134.404 464.057C134.438 464.061 134.472 464.063 134.504 464.063C134.677 464.063 134.846 464.006 134.984 463.898L135.858 463.218V470.999C133.564 471.298 131.153 471.452 128.676 471.452ZM155.727 477.753H143.99V468.242H155.727V477.753ZM162.299 477.753H157.286V467.462C157.286 467.032 156.936 466.682 156.506 466.682H143.21C142.78 466.682 142.43 467.032 142.43 467.462V477.753H137.417V462.005L149.675 452.465L162.299 462.006V477.753ZM165.1 462.166L150.14 450.858C149.859 450.645 149.469 450.648 149.19 450.865L134.647 462.183L131.958 458.649L149.588 444.877L167.74 458.888L165.1 462.166Z" fill="#0046D3"/>
        </g>
        <g filter="url(#filter2_d_219_3193)" id="segment-1" data-slide-index="3" data-segment="1" class="active">
            <path d="M595.841 167.391L470.631 239.376C464.76 230.765 458.066 222.709 450.579 215.253C435.32 200.063 417.544 188.131 397.737 179.788C377.209 171.138 355.429 166.759 333 166.759C310.571 166.759 288.796 171.138 268.263 179.788C248.461 188.131 230.681 200.063 215.426 215.253C207.939 222.709 201.245 230.765 195.374 239.376L70.159 167.386C82.4346 147.998 96.8709 130.009 113.347 113.601C141.816 85.2523 175.014 62.9745 212.024 47.3862C250.449 31.2038 291.149 23 333 23C374.851 23 415.556 31.2038 453.976 47.3862C490.986 62.9745 524.189 85.2523 552.658 113.601C569.134 130.009 583.57 147.998 595.841 167.391Z" fill="url(#paint0_linear_219_3193)"/>
            <path d="M343.001 116.02C343.822 115.245 344.334 114.15 344.334 112.936C344.334 110.594 342.425 108.688 340.081 108.688C337.736 108.688 335.827 110.594 335.827 112.936C335.827 114.149 336.341 115.245 337.16 116.02C334.186 116.915 332.823 119.188 332.823 121.445V124.683C332.823 125.114 333.173 125.463 333.604 125.463H346.558C346.988 125.463 347.338 125.114 347.338 124.683V121.445C347.338 119.188 345.975 116.914 343.001 116.02ZM340.081 110.248C341.566 110.248 342.774 111.454 342.774 112.936C342.774 114.418 341.566 115.624 340.081 115.624C338.596 115.624 337.388 114.418 337.388 112.936C337.388 111.454 338.596 110.248 340.081 110.248ZM345.777 123.903H344.2V121.765C344.2 121.335 343.85 120.985 343.42 120.985C342.989 120.985 342.64 121.335 342.64 121.765V123.903H337.522V121.765C337.522 121.335 337.172 120.985 336.741 120.985C336.311 120.985 335.961 121.335 335.961 121.765V123.903H334.384V121.445C334.384 118.856 336.62 117.184 340.081 117.184C343.541 117.184 345.777 118.856 345.777 121.445V123.903ZM319.695 106.884C319.841 107.093 320.08 107.218 320.335 107.218C320.59 107.218 320.829 107.093 320.975 106.884L323.613 103.101C323.78 102.864 323.799 102.551 323.665 102.294C323.531 102.036 323.265 101.874 322.973 101.874H321.115V99.4787H339.3V101.874H337.442C337.151 101.874 336.884 102.035 336.75 102.294C336.616 102.551 336.636 102.862 336.802 103.101L339.441 106.884C339.586 107.093 339.826 107.218 340.081 107.218C340.335 107.218 340.575 107.093 340.72 106.884L343.359 103.101C343.525 102.864 343.545 102.551 343.411 102.294C343.277 102.036 343.01 101.874 342.719 101.874H340.861V99.4787H359.045V101.874H357.186C356.895 101.874 356.629 102.035 356.495 102.294C356.361 102.551 356.38 102.862 356.547 103.101L359.185 106.884C359.331 107.093 359.57 107.218 359.825 107.218C360.08 107.218 360.319 107.093 360.465 106.884L363.103 103.101C363.269 102.864 363.289 102.551 363.155 102.294C363.021 102.036 362.755 101.874 362.463 101.874H360.605V98.6985C360.605 98.2681 360.255 97.9183 359.825 97.9183H340.861V94.4698C340.861 94.0394 340.511 93.6896 340.081 93.6896C339.65 93.6896 339.3 94.0394 339.3 94.4698V97.9183H320.335C319.905 97.9183 319.555 98.2681 319.555 98.6985V101.874H317.697C317.405 101.874 317.139 102.035 317.005 102.294C316.871 102.551 316.89 102.862 317.057 103.101L319.695 106.884ZM340.081 105.074L338.938 103.436H341.224L340.081 105.074ZM359.825 105.074L358.682 103.436H360.968L359.825 105.074ZM321.479 103.436L320.336 105.074L319.193 103.436H321.479ZM325.492 86.3362C325.542 86.37 325.595 86.3961 325.648 86.4182L325.647 86.4208L339.783 92.1201C339.876 92.1578 339.975 92.1773 340.074 92.1773C340.173 92.1773 340.272 92.1578 340.365 92.1214L354.512 86.4221L354.51 86.4195C354.565 86.3974 354.618 86.3713 354.668 86.3375C354.876 86.1919 355.001 85.9526 355.001 85.6978V68.6231C355.001 68.2928 354.794 67.9989 354.483 67.8884L340.343 62.8327V62.834C340.175 62.7742 339.99 62.7716 339.818 62.8327L325.677 67.8884C325.366 67.9989 325.159 68.2928 325.159 68.6231V85.6978C325.159 85.9526 325.284 86.1906 325.492 86.3362ZM340.075 90.5558L328.117 85.7342L340.081 81.3768L352.042 85.7342L340.075 90.5558ZM348.854 82.9112L344.738 81.4119V71.5124L348.854 73.1547V82.9112ZM353.442 84.5834L350.414 83.4807V72.6268C350.414 72.3069 350.219 72.0208 349.923 71.9025L344.247 69.6373C344.006 69.5411 343.735 69.571 343.52 69.7167C343.305 69.8623 343.178 70.1042 343.178 70.3629V80.8462L340.861 79.9997V64.6753L353.442 69.1731V84.5834ZM326.72 69.1731L339.3 64.6753V80.001L326.72 84.5834V69.1731ZM336.311 68.9182C336.103 68.7726 335.838 68.7362 335.598 68.822L329.896 70.8609C329.586 70.9715 329.379 71.2654 329.379 71.5956V79.6707C329.379 79.9256 329.504 80.1635 329.712 80.3105C329.844 80.4041 330.002 80.4509 330.159 80.4509C330.249 80.4509 330.34 80.4353 330.426 80.4041L336.128 78.3275C336.436 78.2156 336.641 77.9218 336.641 77.5941V69.558C336.641 69.3031 336.518 69.0652 336.311 68.9182ZM335.081 77.0466L330.939 78.555V72.1444L335.081 70.6633V77.0466ZM362.747 116.02C363.567 115.245 364.08 114.15 364.08 112.936C364.08 110.594 362.172 108.688 359.826 108.688C357.48 108.688 355.573 110.594 355.573 112.936C355.573 114.149 356.086 115.245 356.906 116.02C353.932 116.915 352.569 119.188 352.569 121.445V124.683C352.569 125.114 352.919 125.463 353.349 125.463H366.303C366.734 125.463 367.083 125.114 367.083 124.683V121.445C367.083 119.188 365.719 116.914 362.747 116.02ZM359.826 110.248C361.311 110.248 362.519 111.454 362.519 112.936C362.519 114.418 361.311 115.624 359.826 115.624C358.341 115.624 357.133 114.418 357.133 112.936C357.133 111.454 358.34 110.248 359.826 110.248ZM365.523 123.903H363.946V121.765C363.946 121.335 363.596 120.985 363.165 120.985C362.735 120.985 362.385 121.335 362.385 121.765V123.903H357.267V121.765C357.267 121.335 356.917 120.985 356.487 120.985C356.056 120.985 355.707 121.335 355.707 121.765V123.903H354.129V121.445C354.129 118.856 356.366 117.184 359.826 117.184C363.286 117.184 365.523 118.856 365.523 121.445V123.903ZM323.257 116.02C324.077 115.245 324.59 114.15 324.59 112.936C324.59 110.594 322.682 108.688 320.336 108.688C317.99 108.688 316.083 110.594 316.083 112.936C316.083 114.149 316.597 115.245 317.416 116.02C314.442 116.915 313.079 119.188 313.079 121.445V124.683C313.079 125.114 313.429 125.463 313.859 125.463H326.813C327.244 125.463 327.593 125.114 327.593 124.683V121.445C327.593 119.188 326.229 116.914 323.257 116.02ZM320.336 110.248C321.821 110.248 323.029 111.454 323.029 112.936C323.029 114.418 321.821 115.624 320.336 115.624C318.851 115.624 317.643 114.418 317.643 112.936C317.643 111.454 318.85 110.248 320.336 110.248ZM326.033 123.903H324.456V121.765C324.456 121.335 324.106 120.985 323.676 120.985C323.245 120.985 322.895 121.335 322.895 121.765V123.903H317.777V121.765C317.777 121.335 317.427 120.985 316.997 120.985C316.567 120.985 316.217 121.335 316.217 121.765V123.903H314.638V121.445C314.638 118.856 316.875 117.184 320.335 117.184C323.795 117.184 326.032 118.856 326.032 121.445V123.903H326.033Z" fill="white"/>
        </g>
        <path d="M332.997 211.44C365.456 211.44 395.969 224.085 418.924 247.043C425.82 253.941 431.784 261.527 436.754 269.641L430.367 273.152C410.227 240.471 374.109 218.646 332.997 218.646C291.886 218.646 254.798 241.066 234.825 274.477L234.826 274.478C224.579 291.609 218.691 311.627 218.691 332.995C218.691 396.052 269.969 447.349 332.998 447.349V447.349C396.027 447.348 447.31 396.052 447.31 332.995C447.31 311.075 441.111 290.571 430.368 273.152L436.755 269.641C448.328 288.525 454.514 310.287 454.514 332.995C454.514 365.465 441.874 395.995 418.924 418.953C395.969 441.911 365.456 454.555 332.998 454.555C300.54 454.555 270.026 441.911 247.076 418.953C224.127 395.995 211.488 365.465 211.488 332.995C211.488 310.801 217.394 289.519 228.458 270.937L229.432 269.331C234.365 261.334 240.265 253.857 247.076 247.043C270.026 224.085 300.539 211.44 332.997 211.44Z" fill="url(#paint1_linear_219_3193)"/>
        <g clip-path="url(#clip1_219_3193)">
            <mask id="mask0_219_3193" style="mask-type:luminance" maskUnits="userSpaceOnUse" x="290" y="280" width="83" height="100">
                <path d="M290.695 338.674C290.695 328.235 294.691 317.795 302.68 309.83L331.614 280.986L360.545 309.83C368.534 317.795 372.53 328.234 372.53 338.673C372.53 349.112 368.534 359.551 360.546 367.516C352.555 375.482 342.084 379.465 331.613 379.465C321.142 379.465 310.672 375.483 302.682 367.518C294.691 359.552 290.695 349.113 290.695 338.674ZM302.951 360.555C303.905 361.794 304.95 362.986 306.088 364.119C308.326 366.35 310.785 368.226 313.394 369.748V354.545L302.951 360.555ZM349.831 354.545V369.749C352.439 368.227 354.898 366.352 357.135 364.121C358.274 362.986 359.32 361.794 360.274 360.555L349.831 354.544V354.545ZM329.203 316.198V290.184L312.658 306.677L329.203 316.198ZM329.203 337.148V321.722L309.146 310.179L306.088 313.227C303.833 315.476 301.939 317.948 300.405 320.572L329.203 337.148V337.148ZM334.023 321.721V337.147L362.821 320.572C361.288 317.948 359.393 315.476 357.138 313.228L354.08 310.179L334.024 321.722L334.023 321.721ZM334.023 290.184V316.198L350.566 306.677L334.023 290.184ZM295.77 334.397L317.286 346.781L326.813 341.296L298.268 324.867C296.991 327.936 296.159 331.145 295.77 334.397ZM312.487 349.542L295.533 339.785C295.712 345.596 297.296 351.375 300.284 356.566L312.488 349.542H312.487ZM367.692 339.784L350.737 349.542L362.941 356.566C365.93 351.373 367.513 345.596 367.692 339.784ZM345.938 346.781L367.455 334.397C367.067 331.145 366.234 327.935 364.957 324.867L336.411 341.297L345.938 346.781V346.781ZM330.392 365.568H325.467V360.658H330.392V365.568ZM337.758 360.657V365.568H332.833V360.657H337.758ZM332.833 353.314H337.758V358.225H332.833V353.314ZM325.467 353.314H330.392V358.225H325.467V353.314ZM318.214 351.77V372.098C322.506 373.806 327.06 374.66 331.613 374.66C336.166 374.66 340.719 373.805 345.01 372.098V351.77L331.613 344.059L318.214 351.77Z" fill="white"/>
            </mask>
            <g mask="url(#mask0_219_3193)">
                <path d="M372.53 280.986H290.695V379.465H372.53V280.986Z" fill="url(#paint2_linear_219_3193)"/>
            </g>
        </g>
    </g>
    <defs>
        <filter id="filter0_d_219_3193" x="321.789" y="165.056" width="348.21" height="504.944" filterUnits="userSpaceOnUse" color-interpolation-filters="sRGB">
            <feFlood flood-opacity="0" result="BackgroundImageFix"/>
            <feColorMatrix in="SourceAlpha" type="matrix" values="0 0 0 0 0 0 0 0 0 0 0 0 0 0 0 0 0 0 127 0" result="hardAlpha"/>
            <feOffset dx="2" dy="2"/>
            <feGaussianBlur stdDeviation="12.5"/>
            <feComposite in2="hardAlpha" operator="out"/>
            <feColorMatrix type="matrix" values="0 0 0 0 0.188806 0 0 0 0 0.316251 0 0 0 0 0.571139 0 0 0 0.1 0"/>
            <feBlend mode="normal" in2="BackgroundImageFix" result="effect1_dropShadow_219_3193"/>
            <feBlend mode="normal" in="SourceGraphic" in2="effect1_dropShadow_219_3193" result="shape"/>
        </filter>
        <filter id="filter1_d_219_3193" x="0" y="165.056" width="348.21" height="504.944" filterUnits="userSpaceOnUse" color-interpolation-filters="sRGB">
            <feFlood flood-opacity="0" result="BackgroundImageFix"/>
            <feColorMatrix in="SourceAlpha" type="matrix" values="0 0 0 0 0 0 0 0 0 0 0 0 0 0 0 0 0 0 127 0" result="hardAlpha"/>
            <feOffset dx="2" dy="2"/>
            <feGaussianBlur stdDeviation="12.5"/>
            <feComposite in2="hardAlpha" operator="out"/>
            <feColorMatrix type="matrix" values="0 0 0 0 0.188806 0 0 0 0 0.316251 0 0 0 0 0.571139 0 0 0 0.1 0"/>
            <feBlend mode="normal" in2="BackgroundImageFix" result="effect1_dropShadow_219_3193"/>
            <feBlend mode="normal" in="SourceGraphic" in2="effect1_dropShadow_219_3193" result="shape"/>
        </filter>
        <filter id="filter2_d_219_3193" x="47.159" y="0" width="575.682" height="266.376" filterUnits="userSpaceOnUse" color-interpolation-filters="sRGB">
            <feFlood flood-opacity="0" result="BackgroundImageFix"/>
            <feColorMatrix in="SourceAlpha" type="matrix" values="0 0 0 0 0 0 0 0 0 0 0 0 0 0 0 0 0 0 127 0" result="hardAlpha"/>
            <feOffset dx="2" dy="2"/>
            <feGaussianBlur stdDeviation="12.5"/>
            <feComposite in2="hardAlpha" operator="out"/>
            <feColorMatrix type="matrix" values="0 0 0 0 0.188806 0 0 0 0 0.316251 0 0 0 0 0.571139 0 0 0 0.1 0"/>
            <feBlend mode="normal" in2="BackgroundImageFix" result="effect1_dropShadow_219_3193"/>
            <feBlend mode="normal" in="SourceGraphic" in2="effect1_dropShadow_219_3193" result="shape"/>
        </filter>
        <linearGradient id="paint0_linear_219_3193" x1="333" y1="23" x2="333" y2="239.376" gradientUnits="userSpaceOnUse">
            <stop stop-color="#6792E9"/>
            <stop offset="0.408654" stop-color="#0041C5"/>
            <stop offset="1" stop-color="#003AB0"/>
        </linearGradient>
        <linearGradient id="paint1_linear_219_3193" x1="370.073" y1="401.48" x2="344.25" y2="209.924" gradientUnits="userSpaceOnUse">
            <stop stop-color="#0046D3"/>
            <stop offset="0.519231" stop-color="#65B878"/>
            <stop offset="1" stop-color="#9DF500"/>
        </linearGradient>
        <linearGradient id="paint2_linear_219_3193" x1="344.096" y1="357.966" x2="331.613" y2="280.986" gradientUnits="userSpaceOnUse">
            <stop stop-color="#0046D3"/>
            <stop offset="0.519231" stop-color="#65B878"/>
            <stop offset="1" stop-color="#9DF500"/>
        </linearGradient>
        <linearGradient id="paint0_linear_219_3214" x1="172.105" y1="188.056" x2="172.105" y2="643" gradientUnits="userSpaceOnUse">
            <stop stop-color="#6792E9"/>
            <stop offset="0.408654" stop-color="#0041C5"/>
            <stop offset="1" stop-color="#003AB0"/>
        </linearGradient>
        <linearGradient id="paint0_linear_219_3273" x1="493.894" y1="188.056" x2="493.894" y2="643" gradientUnits="userSpaceOnUse">
            <stop stop-color="#6792E9"/>
            <stop offset="0.408654" stop-color="#0041C5"/>
            <stop offset="1" stop-color="#003AB0"/>
        </linearGradient>
        <clipPath id="clip0_219_3193">
            <rect width="670" height="670" fill="white"/>
        </clipPath>
        <clipPath id="clip1_219_3193">
            <rect width="81.8344" height="98.4787" fill="white" transform="translate(290.695 280.986)"/>
        </clipPath>
    </defs>
</svg>