<svg width="670" height="670" viewBox="0 0 670 670" fill="none" xmlns="http://www.w3.org/2000/svg">
<g clip-path="url(#clip0_219_3193)">
<g filter="url(#filter0_d_219_3193)">
<path d="M642.999 332.77C642.999 374.596 634.772 415.278 618.543 453.675C602.906 490.667 580.564 523.846 552.139 552.298C523.709 580.749 490.549 603.107 453.589 618.747C418.907 633.429 382.365 641.571 344.789 643V498.521C362.954 497.227 380.61 492.99 397.425 485.872C417.206 477.5 434.958 465.525 450.196 450.279C465.43 435.029 477.396 417.264 485.763 397.469C494.432 376.953 498.83 355.186 498.83 332.77C498.83 310.355 494.432 288.593 485.763 268.072C484.653 265.446 483.48 262.854 482.24 260.3L607.274 188.056C611.349 195.803 615.107 203.743 618.543 211.871C634.772 250.268 642.999 290.944 642.999 332.77Z" fill="white"/>
</g>
<g filter="url(#filter1_d_219_3193)">
<path d="M321.21 498.521V643C283.639 641.571 247.096 633.429 212.413 618.752C175.448 603.107 142.293 580.749 113.862 552.298C85.4313 523.846 63.0894 490.667 47.4564 453.675C31.2274 415.278 23 374.596 23 332.77C23 290.944 31.2274 250.268 47.4564 211.871C50.8877 203.743 54.6458 195.803 58.721 188.056L183.761 260.3C182.522 262.854 181.349 265.446 180.239 268.072C171.569 288.593 167.172 310.359 167.172 332.77C167.172 355.181 171.569 376.953 180.239 397.469C188.606 417.264 200.572 435.029 215.806 450.279C231.04 465.525 248.797 477.5 268.573 485.872C285.393 492.99 303.049 497.227 321.21 498.521Z" fill="white"/>
</g>
<g filter="url(#filter2_d_219_3193)">
<path d="M595.841 167.391L470.631 239.376C464.76 230.765 458.066 222.709 450.579 215.253C435.32 200.063 417.544 188.131 397.737 179.788C377.209 171.138 355.429 166.759 333 166.759C310.571 166.759 288.796 171.138 268.263 179.788C248.461 188.131 230.681 200.063 215.426 215.253C207.939 222.709 201.245 230.765 195.374 239.376L70.159 167.386C82.4346 147.998 96.8709 130.009 113.348 113.601C141.816 85.2523 175.014 62.9745 212.024 47.3862C250.449 31.2038 291.149 23 333 23C374.851 23 415.556 31.2038 453.976 47.3862C490.986 62.9745 524.189 85.2523 552.658 113.601C569.134 130.009 583.57 147.998 595.841 167.391Z" fill="url(#paint0_linear_219_3193)"/>
</g>
<path d="M332.997 211.44C365.456 211.44 395.969 224.085 418.924 247.043C425.82 253.941 431.784 261.527 436.754 269.641L430.367 273.152C410.227 240.471 374.109 218.646 332.997 218.646C291.886 218.646 254.798 241.066 234.825 274.477L234.826 274.478C224.579 291.609 218.691 311.627 218.691 332.995C218.691 396.052 269.969 447.349 332.998 447.349V447.349C396.027 447.348 447.31 396.052 447.31 332.995C447.31 311.075 441.111 290.571 430.368 273.152L436.755 269.641C448.328 288.525 454.514 310.287 454.514 332.995C454.514 365.465 441.874 395.995 418.924 418.953C395.969 441.911 365.456 454.555 332.998 454.555C300.54 454.555 270.026 441.911 247.076 418.953C224.127 395.995 211.488 365.465 211.488 332.995C211.488 310.801 217.394 289.519 228.458 270.937L229.432 269.331C234.365 261.334 240.265 253.857 247.076 247.043C270.026 224.085 300.539 211.44 332.997 211.44Z" fill="url(#paint1_linear_219_3193)"/>
<g clip-path="url(#clip1_219_3193)">
<mask id="mask0_219_3193" style="mask-type:luminance" maskUnits="userSpaceOnUse" x="290" y="280" width="83" height="100">
<path d="M290.695 338.674C290.695 328.235 294.691 317.795 302.68 309.83L331.614 280.986L360.545 309.83C368.534 317.795 372.53 328.234 372.53 338.673C372.53 349.112 368.534 359.551 360.546 367.516C352.555 375.482 342.084 379.465 331.613 379.465C321.142 379.465 310.672 375.483 302.682 367.518C294.691 359.552 290.695 349.113 290.695 338.674ZM302.951 360.555C303.905 361.794 304.95 362.986 306.088 364.119C308.326 366.35 310.785 368.226 313.394 369.748V354.545L302.951 360.555ZM349.831 354.545V369.749C352.439 368.227 354.898 366.352 357.135 364.121C358.274 362.986 359.32 361.794 360.274 360.555L349.831 354.544V354.545ZM329.203 316.198V290.184L312.658 306.677L329.203 316.198ZM329.203 337.148V321.722L309.146 310.179L306.088 313.227C303.833 315.476 301.939 317.948 300.405 320.572L329.203 337.148V337.148ZM334.023 321.721V337.147L362.821 320.572C361.288 317.948 359.393 315.476 357.138 313.228L354.08 310.179L334.024 321.722L334.023 321.721ZM334.023 290.184V316.198L350.566 306.677L334.023 290.184ZM295.77 334.397L317.286 346.781L326.813 341.296L298.268 324.867C296.991 327.936 296.159 331.145 295.77 334.397ZM312.487 349.542L295.533 339.785C295.712 345.596 297.296 351.375 300.284 356.566L312.488 349.542H312.487ZM367.692 339.784L350.737 349.542L362.941 356.566C365.93 351.373 367.513 345.596 367.692 339.784ZM345.938 346.781L367.455 334.397C367.067 331.145 366.234 327.935 364.957 324.867L336.411 341.297L345.938 346.781V346.781ZM330.392 365.568H325.467V360.658H330.392V365.568ZM337.758 360.657V365.568H332.833V360.657H337.758ZM332.833 353.314H337.758V358.225H332.833V353.314ZM325.467 353.314H330.392V358.225H325.467V353.314ZM318.214 351.77V372.098C322.506 373.806 327.06 374.66 331.613 374.66C336.166 374.66 340.719 373.805 345.01 372.098V351.77L331.613 344.059L318.214 351.77Z" fill="white"/>
</mask>
<g mask="url(#mask0_219_3193)">
<path d="M372.53 280.986H290.695V379.465H372.53V280.986Z" fill="url(#paint2_linear_219_3193)"/>
</g>
</g>
<path d="M343.001 116.02C343.822 115.245 344.334 114.15 344.334 112.936C344.334 110.594 342.425 108.688 340.081 108.688C337.736 108.688 335.827 110.594 335.827 112.936C335.827 114.149 336.341 115.245 337.16 116.02C334.186 116.915 332.823 119.188 332.823 121.445V124.683C332.823 125.114 333.173 125.463 333.604 125.463H346.558C346.988 125.463 347.338 125.114 347.338 124.683V121.445C347.338 119.188 345.975 116.914 343.001 116.02ZM340.081 110.248C341.566 110.248 342.774 111.454 342.774 112.936C342.774 114.418 341.566 115.624 340.081 115.624C338.596 115.624 337.388 114.418 337.388 112.936C337.388 111.454 338.596 110.248 340.081 110.248ZM345.777 123.903H344.2V121.765C344.2 121.335 343.85 120.985 343.42 120.985C342.989 120.985 342.64 121.335 342.64 121.765V123.903H337.522V121.765C337.522 121.335 337.172 120.985 336.741 120.985C336.311 120.985 335.961 121.335 335.961 121.765V123.903H334.384V121.445C334.384 118.856 336.62 117.184 340.081 117.184C343.541 117.184 345.777 118.856 345.777 121.445V123.903ZM319.695 106.884C319.841 107.093 320.08 107.218 320.335 107.218C320.59 107.218 320.829 107.093 320.975 106.884L323.613 103.101C323.78 102.864 323.799 102.551 323.665 102.294C323.531 102.036 323.265 101.874 322.973 101.874H321.115V99.4787H339.3V101.874H337.442C337.151 101.874 336.884 102.035 336.75 102.294C336.616 102.551 336.636 102.862 336.802 103.101L339.441 106.884C339.586 107.093 339.826 107.218 340.081 107.218C340.335 107.218 340.575 107.093 340.72 106.884L343.359 103.101C343.525 102.864 343.545 102.551 343.411 102.294C343.277 102.036 343.01 101.874 342.719 101.874H340.861V99.4787H359.045V101.874H357.186C356.895 101.874 356.629 102.035 356.495 102.294C356.361 102.551 356.38 102.862 356.547 103.101L359.185 106.884C359.331 107.093 359.57 107.218 359.825 107.218C360.08 107.218 360.319 107.093 360.465 106.884L363.103 103.101C363.269 102.864 363.289 102.551 363.155 102.294C363.021 102.036 362.755 101.874 362.463 101.874H360.605V98.6985C360.605 98.2681 360.255 97.9183 359.825 97.9183H340.861V94.4698C340.861 94.0394 340.511 93.6896 340.081 93.6896C339.65 93.6896 339.3 94.0394 339.3 94.4698V97.9183H320.335C319.905 97.9183 319.555 98.2681 319.555 98.6985V101.874H317.697C317.405 101.874 317.139 102.035 317.005 102.294C316.871 102.551 316.89 102.862 317.057 103.101L319.695 106.884ZM340.081 105.074L338.938 103.436H341.224L340.081 105.074ZM359.825 105.074L358.682 103.436H360.968L359.825 105.074ZM321.479 103.436L320.336 105.074L319.193 103.436H321.479ZM325.492 86.3362C325.542 86.37 325.595 86.3961 325.648 86.4182L325.647 86.4208L339.783 92.1201C339.876 92.1578 339.975 92.1773 340.074 92.1773C340.173 92.1773 340.272 92.1578 340.365 92.1214L354.512 86.4221L354.51 86.4195C354.565 86.3974 354.618 86.3713 354.668 86.3375C354.876 86.1919 355.001 85.9526 355.001 85.6978V68.6231C355.001 68.2928 354.794 67.9989 354.483 67.8884L340.343 62.8327V62.834C340.175 62.7742 339.99 62.7716 339.818 62.8327L325.677 67.8884C325.366 67.9989 325.159 68.2928 325.159 68.6231V85.6978C325.159 85.9526 325.284 86.1906 325.492 86.3362ZM340.075 90.5558L328.117 85.7342L340.081 81.3768L352.042 85.7342L340.075 90.5558ZM348.854 82.9112L344.738 81.4119V71.5124L348.854 73.1547V82.9112ZM353.442 84.5834L350.414 83.4807V72.6268C350.414 72.3069 350.219 72.0208 349.923 71.9025L344.247 69.6373C344.006 69.5411 343.735 69.571 343.52 69.7167C343.305 69.8623 343.178 70.1042 343.178 70.3629V80.8462L340.861 79.9997V64.6753L353.442 69.1731V84.5834ZM326.72 69.1731L339.3 64.6753V80.001L326.72 84.5834V69.1731ZM336.311 68.9182C336.103 68.7726 335.838 68.7362 335.598 68.822L329.896 70.8609C329.586 70.9715 329.379 71.2654 329.379 71.5956V79.6707C329.379 79.9256 329.504 80.1635 329.712 80.3105C329.844 80.4041 330.002 80.4509 330.159 80.4509C330.249 80.4509 330.34 80.4353 330.426 80.4041L336.128 78.3275C336.436 78.2156 336.641 77.9218 336.641 77.5941V69.558C336.641 69.3031 336.518 69.0652 336.311 68.9182ZM335.081 77.0466L330.939 78.555V72.1444L335.081 70.6633V77.0466ZM362.747 116.02C363.567 115.245 364.08 114.15 364.08 112.936C364.08 110.594 362.172 108.688 359.826 108.688C357.48 108.688 355.573 110.594 355.573 112.936C355.573 114.149 356.086 115.245 356.906 116.02C353.932 116.915 352.569 119.188 352.569 121.445V124.683C352.569 125.114 352.919 125.463 353.349 125.463H366.303C366.734 125.463 367.083 125.114 367.083 124.683V121.445C367.083 119.188 365.719 116.914 362.747 116.02ZM359.826 110.248C361.311 110.248 362.519 111.454 362.519 112.936C362.519 114.418 361.311 115.624 359.826 115.624C358.341 115.624 357.133 114.418 357.133 112.936C357.133 111.454 358.34 110.248 359.826 110.248ZM365.523 123.903H363.946V121.765C363.946 121.335 363.596 120.985 363.165 120.985C362.735 120.985 362.385 121.335 362.385 121.765V123.903H357.267V121.765C357.267 121.335 356.917 120.985 356.487 120.985C356.056 120.985 355.707 121.335 355.707 121.765V123.903H354.129V121.445C354.129 118.856 356.366 117.184 359.826 117.184C363.286 117.184 365.523 118.856 365.523 121.445V123.903ZM323.257 116.02C324.077 115.245 324.59 114.15 324.59 112.936C324.59 110.594 322.682 108.688 320.336 108.688C317.99 108.688 316.083 110.594 316.083 112.936C316.083 114.149 316.597 115.245 317.416 116.02C314.442 116.915 313.079 119.188 313.079 121.445V124.683C313.079 125.114 313.429 125.463 313.859 125.463H326.813C327.244 125.463 327.593 125.114 327.593 124.683V121.445C327.593 119.188 326.229 116.914 323.257 116.02ZM320.336 110.248C321.821 110.248 323.029 111.454 323.029 112.936C323.029 114.418 321.821 115.624 320.336 115.624C318.851 115.624 317.643 114.418 317.643 112.936C317.643 111.454 318.85 110.248 320.336 110.248ZM326.033 123.903H324.456V121.765C324.456 121.335 324.106 120.985 323.676 120.985C323.245 120.985 322.895 121.335 322.895 121.765V123.903H317.777V121.765C317.777 121.335 317.427 120.985 316.997 120.985C316.567 120.985 316.217 121.335 316.217 121.765V123.903H314.638V121.445C314.638 118.856 316.875 117.184 320.335 117.184C323.795 117.184 326.032 118.856 326.032 121.445V123.903H326.033Z" fill="white"/>
<path d="M545.367 459.47C545.12 459.684 545.033 460.027 545.146 460.332C545.26 460.638 545.552 460.841 545.877 460.841H561.84C562.167 460.841 562.458 460.638 562.571 460.332C562.684 460.027 562.597 459.684 562.35 459.47L554.368 452.573C554.076 452.32 553.642 452.32 553.348 452.573L545.367 459.47ZM559.744 459.28H547.973L553.859 454.195L559.744 459.28ZM573.621 455.665C573.596 455.457 573.489 455.268 573.323 455.14L554.402 440.533V430.39C554.402 428.076 552.034 425.971 547.734 424.463C543.69 423.044 538.342 422.262 532.678 422.262C527.012 422.262 521.665 423.044 517.62 424.463C513.318 425.972 510.95 428.076 510.95 430.39V461.885C510.95 464.203 513.314 466.31 517.607 467.816C521.644 469.232 526.995 470.011 532.676 470.011C535.148 470.011 537.558 469.864 539.858 469.574V475.532C539.858 475.962 540.208 476.312 540.638 476.312H567.08C567.511 476.312 567.861 475.962 567.861 475.532V460.184L568.764 460.867C569.101 461.122 569.578 461.062 569.842 460.734L573.455 456.245C573.586 456.083 573.646 455.874 573.621 455.665ZM532.676 423.824C544.56 423.824 552.842 427.284 552.842 430.39C552.842 433.495 544.56 436.955 532.676 436.955C520.792 436.955 512.511 433.496 512.511 430.39C512.511 427.283 520.792 423.824 532.676 423.824ZM512.511 433.506C513.641 434.57 515.364 435.526 517.618 436.316C521.662 437.735 527.011 438.517 532.676 438.517C538.342 438.517 543.689 437.735 547.733 436.316C549.989 435.526 551.712 434.57 552.841 433.506V440.479L546.168 445.691C542.434 446.827 537.65 447.454 532.675 447.454C527.165 447.454 521.998 446.705 518.123 445.346C514.609 444.115 512.511 442.448 512.511 440.888V433.506ZM512.511 444.013C513.638 445.077 515.357 446.03 517.607 446.819C521.644 448.235 526.995 449.014 532.676 449.014C536.377 449.014 539.981 448.674 543.161 448.042L534.39 454.893C534.053 455.156 533.991 455.641 534.25 455.98L535.69 457.873C534.696 457.924 533.687 457.953 532.676 457.953C527.167 457.953 521.999 457.204 518.124 455.845C514.609 454.612 512.511 452.946 512.511 451.387V444.013ZM532.676 468.452C527.167 468.452 521.999 467.703 518.124 466.344C514.609 465.111 512.511 463.444 512.511 461.886V454.512C513.638 455.576 515.357 456.529 517.607 457.318C521.644 458.734 526.995 459.513 532.676 459.513C534.074 459.513 535.467 459.462 536.828 459.368L537.884 460.755C538.01 460.921 538.197 461.029 538.404 461.057C538.438 461.061 538.472 461.063 538.504 461.063C538.677 461.063 538.846 461.006 538.984 460.898L539.858 460.218V467.999C537.564 468.298 535.153 468.452 532.676 468.452ZM559.727 474.753H547.99V465.242H559.727V474.753ZM566.299 474.753H561.286V464.462C561.286 464.032 560.936 463.682 560.506 463.682H547.21C546.78 463.682 546.43 464.032 546.43 464.462V474.753H541.417V459.005L553.675 449.465L566.299 459.006V474.753ZM569.1 459.166L554.14 447.858C553.859 447.645 553.469 447.648 553.19 447.865L538.647 459.183L535.958 455.649L553.588 441.877L571.74 455.888L569.1 459.166Z" fill="#0046D3"/>
<path d="M150.065 423.031C147.989 423.059 146.05 423.894 144.603 425.381C143.156 426.867 142.376 428.829 142.404 430.903C142.463 435.149 145.936 438.563 150.17 438.562C150.206 438.562 150.243 438.562 150.278 438.561C152.353 438.532 154.292 437.697 155.739 436.211C157.187 434.723 157.967 432.763 157.938 430.688C157.909 428.614 157.075 426.676 155.587 425.228C154.1 423.781 152.14 423.001 150.065 423.031ZM154.621 435.125C153.465 436.314 151.915 436.981 150.257 437.003C146.835 437.054 144.012 434.305 143.965 430.882C143.941 429.224 144.565 427.657 145.723 426.469C146.88 425.28 148.429 424.613 150.087 424.591C151.742 424.567 153.313 425.192 154.501 426.348C155.69 427.504 156.357 429.054 156.38 430.711C156.401 432.37 155.777 433.937 154.621 435.125ZM164.197 433.859L161.976 431.997C162.021 431.544 162.041 431.088 162.034 430.633C162.029 430.296 162.011 429.955 161.977 429.618L164.212 427.752C164.475 427.534 164.563 427.17 164.433 426.854L163.043 423.513C162.913 423.199 162.595 423.006 162.254 423.036L159.357 423.291C158.852 422.675 158.287 422.11 157.669 421.606L157.928 418.727C157.959 418.386 157.764 418.066 157.448 417.936L154.101 416.555C153.786 416.425 153.423 416.515 153.205 416.775L151.344 418.993C150.899 418.949 150.452 418.931 150.005 418.936C149.659 418.941 149.312 418.961 148.966 418.996L147.101 416.758C146.883 416.495 146.519 416.407 146.203 416.537L142.859 417.927C142.545 418.057 142.352 418.377 142.382 418.716L142.64 421.633C142.048 422.119 141.506 422.662 141.018 423.252L138.025 423.065C137.689 423.044 137.382 423.238 137.255 423.546L137.105 423.907H111.866C108.138 423.907 105.105 426.94 105.105 430.666V460.682C105.105 464.409 108.138 467.441 111.866 467.441H124.099L121.594 472.957H116.786C115.078 472.957 113.688 474.347 113.688 476.056C113.688 477.765 115.08 479.155 116.788 479.155H148.682C150.391 479.155 151.781 477.765 151.781 476.056C151.781 474.347 150.391 472.957 148.682 472.957H143.879L141.421 467.441H153.603C157.331 467.441 160.363 464.409 160.363 460.682V438.41L162.244 438.579C162.584 438.61 162.904 438.415 163.034 438.099L164.415 434.753C164.548 434.44 164.458 434.077 164.197 433.859ZM111.866 425.469H136.46L135.873 426.894C135.741 427.213 135.834 427.579 136.102 427.797L138.364 429.64C138.321 430.079 138.303 430.521 138.31 430.96C138.313 431.281 138.332 431.604 138.362 431.925L136.115 433.908C135.865 434.129 135.782 434.484 135.91 434.792L137.3 438.134C137.433 438.451 137.758 438.645 138.1 438.611L140.997 438.316C141.48 438.904 142.017 439.444 142.602 439.93L142.413 442.943C142.393 443.276 142.586 443.585 142.895 443.713L146.242 445.094C146.338 445.134 146.439 445.152 146.539 445.152C146.77 445.152 146.993 445.051 147.144 444.865L148.99 442.6C149.437 442.644 149.886 442.663 150.336 442.657C150.647 442.653 150.962 442.636 151.276 442.606L153.258 444.852C153.479 445.101 153.834 445.183 154.142 445.056L157.486 443.666C157.803 443.533 157.997 443.209 157.963 442.866L157.67 439.99C158.073 439.661 158.45 439.305 158.807 438.926V457.583H106.667V430.666C106.667 427.8 108.999 425.469 111.866 425.469ZM150.221 476.056C150.221 476.904 149.53 477.594 148.682 477.594H116.788C115.94 477.594 115.249 476.904 115.249 476.056C115.249 475.208 115.94 474.518 116.788 474.518H148.682C149.531 474.518 150.221 475.208 150.221 476.056ZM142.172 472.957H123.309L125.815 467.441H139.715L142.172 472.957ZM153.604 465.881H111.866C108.999 465.881 106.666 463.549 106.666 460.682V459.144H158.804V460.682C158.804 463.549 156.471 465.881 153.604 465.881ZM161.813 436.974L159.064 436.727C158.798 436.703 158.536 436.818 158.374 437.032C157.798 437.788 157.12 438.461 156.362 439.031C156.094 439.233 155.986 439.581 156.089 439.896L156.349 442.447L154.057 443.401L152.332 441.447C152.188 441.143 151.863 440.964 151.526 441.008C151.123 441.061 150.715 441.091 150.313 441.096C149.784 441.104 149.253 441.07 148.733 440.998C148.391 440.949 148.059 441.133 147.916 441.445L146.299 443.428L144.004 442.481L144.166 439.884C144.294 439.561 144.191 439.191 143.914 438.979C143.173 438.412 142.512 437.748 141.948 437.003C141.742 436.731 141.384 436.626 141.065 436.739L138.518 436.999L137.564 434.708L139.518 432.985C139.824 432.841 140.005 432.514 139.96 432.175C139.905 431.766 139.874 431.35 139.869 430.938C139.861 430.418 139.893 429.894 139.964 429.383C140.01 429.042 139.828 428.713 139.52 428.569L137.536 426.953L138.482 424.659L141.082 424.821C141.402 424.938 141.762 424.834 141.97 424.561C142.532 423.824 143.19 423.165 143.927 422.603C144.149 422.434 144.259 422.16 144.227 421.89L143.986 419.149L146.27 418.2L148.041 420.322C148.214 420.529 148.479 420.632 148.747 420.595C149.171 420.537 149.603 420.504 150.029 420.498C150.544 420.491 151.062 420.522 151.569 420.591C151.834 420.628 152.1 420.525 152.273 420.32L154.036 418.216L156.323 419.16L156.077 421.888C156.053 422.156 156.168 422.417 156.383 422.58C157.137 423.15 157.811 423.823 158.383 424.577C158.545 424.79 158.805 424.905 159.072 424.882L161.82 424.641L162.769 426.925L160.651 428.694C160.444 428.865 160.341 429.132 160.378 429.397C160.433 429.812 160.466 430.236 160.471 430.656C160.479 431.177 160.446 431.704 160.375 432.219C160.339 432.484 160.441 432.751 160.647 432.924L162.753 434.69L161.813 436.974ZM134.675 462.258C134.675 462.688 134.325 463.038 133.895 463.038H131.576C131.146 463.038 130.796 462.688 130.796 462.258C130.796 461.828 131.146 461.478 131.576 461.478H133.895C134.325 461.478 134.675 461.828 134.675 462.258ZM109.749 451.957V432.015C109.749 430.24 111.194 428.795 112.969 428.795H127.961C129.736 428.795 131.181 430.24 131.181 432.015V437.914C131.181 438.345 130.831 438.695 130.401 438.695C129.97 438.695 129.621 438.345 129.621 437.914V432.015C129.621 431.101 128.877 430.356 127.961 430.356H112.967C112.053 430.356 111.308 431.099 111.308 432.015V451.957C111.308 452.871 112.052 453.616 112.967 453.616H118.598C119.028 453.616 119.378 453.966 119.378 454.396C119.378 454.827 119.028 455.176 118.598 455.176H112.967C111.192 455.176 109.749 453.732 109.749 451.957ZM114.734 435.458C114.734 435.028 115.084 434.678 115.515 434.678H123.441C123.872 434.678 124.222 435.028 124.222 435.458C124.222 435.889 123.872 436.238 123.441 436.238H115.515C115.084 436.238 114.734 435.889 114.734 435.458ZM120.894 441.295H115.513C115.083 441.295 114.733 440.946 114.733 440.515C114.733 440.085 115.083 439.735 115.513 439.735H120.894C121.325 439.735 121.674 440.085 121.674 440.515C121.674 440.946 121.326 441.295 120.894 441.295ZM118.132 444.793C118.563 444.793 118.912 445.143 118.912 445.573C118.912 446.004 118.563 446.354 118.132 446.354H115.513C115.083 446.354 114.733 446.004 114.733 445.573C114.733 445.143 115.083 444.793 115.513 444.793H118.132ZM119.253 448.083C119.253 452.626 122.95 456.323 127.493 456.323C132.037 456.323 135.734 452.626 135.734 448.083C135.734 443.54 132.037 439.843 127.493 439.843C122.95 439.843 119.253 443.54 119.253 448.083ZM134.174 448.083C134.174 451.767 131.177 454.763 127.495 454.763C123.811 454.763 120.815 451.766 120.815 448.083C120.815 444.401 123.812 441.403 127.495 441.403C131.177 441.403 134.174 444.401 134.174 448.083ZM127.495 446.98L130.436 444.039C130.74 443.735 131.234 443.735 131.54 444.039C131.844 444.343 131.844 444.837 131.54 445.143L128.047 448.636C127.895 448.788 127.695 448.865 127.496 448.865C127.297 448.865 127.097 448.788 126.945 448.636L125.205 446.896C124.9 446.592 124.9 446.097 125.205 445.792C125.509 445.488 126.003 445.488 126.309 445.792L127.495 446.98Z" fill="#0046D3"/>
</g>
<defs>
<filter id="filter0_d_219_3193" x="321.789" y="165.056" width="348.21" height="504.944" filterUnits="userSpaceOnUse" color-interpolation-filters="sRGB">
<feFlood flood-opacity="0" result="BackgroundImageFix"/>
<feColorMatrix in="SourceAlpha" type="matrix" values="0 0 0 0 0 0 0 0 0 0 0 0 0 0 0 0 0 0 127 0" result="hardAlpha"/>
<feOffset dx="2" dy="2"/>
<feGaussianBlur stdDeviation="12.5"/>
<feComposite in2="hardAlpha" operator="out"/>
<feColorMatrix type="matrix" values="0 0 0 0 0.188806 0 0 0 0 0.316251 0 0 0 0 0.571139 0 0 0 0.1 0"/>
<feBlend mode="normal" in2="BackgroundImageFix" result="effect1_dropShadow_219_3193"/>
<feBlend mode="normal" in="SourceGraphic" in2="effect1_dropShadow_219_3193" result="shape"/>
</filter>
<filter id="filter1_d_219_3193" x="0" y="165.056" width="348.21" height="504.944" filterUnits="userSpaceOnUse" color-interpolation-filters="sRGB">
<feFlood flood-opacity="0" result="BackgroundImageFix"/>
<feColorMatrix in="SourceAlpha" type="matrix" values="0 0 0 0 0 0 0 0 0 0 0 0 0 0 0 0 0 0 127 0" result="hardAlpha"/>
<feOffset dx="2" dy="2"/>
<feGaussianBlur stdDeviation="12.5"/>
<feComposite in2="hardAlpha" operator="out"/>
<feColorMatrix type="matrix" values="0 0 0 0 0.188806 0 0 0 0 0.316251 0 0 0 0 0.571139 0 0 0 0.1 0"/>
<feBlend mode="normal" in2="BackgroundImageFix" result="effect1_dropShadow_219_3193"/>
<feBlend mode="normal" in="SourceGraphic" in2="effect1_dropShadow_219_3193" result="shape"/>
</filter>
<filter id="filter2_d_219_3193" x="47.159" y="0" width="575.682" height="266.376" filterUnits="userSpaceOnUse" color-interpolation-filters="sRGB">
<feFlood flood-opacity="0" result="BackgroundImageFix"/>
<feColorMatrix in="SourceAlpha" type="matrix" values="0 0 0 0 0 0 0 0 0 0 0 0 0 0 0 0 0 0 127 0" result="hardAlpha"/>
<feOffset dx="2" dy="2"/>
<feGaussianBlur stdDeviation="12.5"/>
<feComposite in2="hardAlpha" operator="out"/>
<feColorMatrix type="matrix" values="0 0 0 0 0.188806 0 0 0 0 0.316251 0 0 0 0 0.571139 0 0 0 0.1 0"/>
<feBlend mode="normal" in2="BackgroundImageFix" result="effect1_dropShadow_219_3193"/>
<feBlend mode="normal" in="SourceGraphic" in2="effect1_dropShadow_219_3193" result="shape"/>
</filter>
<linearGradient id="paint0_linear_219_3193" x1="333" y1="23" x2="333" y2="239.376" gradientUnits="userSpaceOnUse">
<stop stop-color="#6792E9"/>
<stop offset="0.408654" stop-color="#0041C5"/>
<stop offset="1" stop-color="#003AB0"/>
</linearGradient>
<linearGradient id="paint1_linear_219_3193" x1="370.073" y1="401.48" x2="344.25" y2="209.924" gradientUnits="userSpaceOnUse">
<stop stop-color="#0046D3"/>
<stop offset="0.519231" stop-color="#65B878"/>
<stop offset="1" stop-color="#9DF500"/>
</linearGradient>
<linearGradient id="paint2_linear_219_3193" x1="344.096" y1="357.966" x2="331.613" y2="280.986" gradientUnits="userSpaceOnUse">
<stop stop-color="#0046D3"/>
<stop offset="0.519231" stop-color="#65B878"/>
<stop offset="1" stop-color="#9DF500"/>
</linearGradient>
<clipPath id="clip0_219_3193">
<rect width="670" height="670" fill="white"/>
</clipPath>
<clipPath id="clip1_219_3193">
<rect width="81.8344" height="98.4787" fill="white" transform="translate(290.695 280.986)"/>
</clipPath>
</defs>
</svg>
