<svg width="48" height="48" viewBox="0 0 48 48" fill="none" xmlns="http://www.w3.org/2000/svg">
<path d="M44.312 20.3122C42.544 20.3122 41.0632 21.563 40.7064 23.226H38.1793V22.8944C38.1793 21.9997 37.5355 21.2974 36.499 21.0617L34.5276 20.6133C34.344 20.042 34.1133 19.4857 33.8385 18.9512L34.9158 17.2396C35.482 16.3402 35.4408 15.3883 34.8081 14.7555L34.5737 14.5211L36.3604 12.7343C36.9673 13.1268 37.6648 13.3236 38.3626 13.3236C39.307 13.3236 40.2515 12.9641 40.9704 12.2451C42.4083 10.8072 42.4083 8.46743 40.9704 7.02947C39.5325 5.5916 37.1928 5.5916 35.7547 7.02947C34.5045 8.27969 34.3419 10.2112 35.2655 11.6394L33.4787 13.4262L33.2443 13.1918C32.6116 12.559 31.6597 12.5179 30.7603 13.084L29.048 14.1618C28.5133 13.887 27.9575 13.6565 27.3868 13.4729L26.9383 11.5009C26.7026 10.4646 26.0004 9.82072 25.1056 9.82072H24.7741V7.29366C26.4372 6.93695 27.688 5.45612 27.688 3.68806C27.688 1.65445 26.0335 0 23.9999 0C21.9663 0 20.312 1.65455 20.312 3.68806C20.312 5.45612 21.5628 6.93686 23.2257 7.29366V9.82072H22.8942C21.9994 9.82072 21.2972 10.4646 21.0615 11.5009L20.613 13.4729C20.0423 13.6565 19.4863 13.887 18.9518 14.1618L17.2396 13.0841C16.3401 12.5176 15.3882 12.559 14.7555 13.1917L14.5211 13.4261L12.7343 11.6393C13.658 10.2111 13.4953 8.2796 12.2452 7.02937C11.5486 6.33289 10.6225 5.94918 9.63732 5.94918C8.65216 5.94918 7.72603 6.33289 7.02955 7.02937C5.59159 8.46734 5.59159 10.807 7.02955 12.245C7.72613 12.9416 8.65226 13.3253 9.63732 13.3253C10.359 13.3253 11.0486 13.1186 11.6399 12.7347L13.4263 14.521L13.1918 14.7555C12.5591 15.3882 12.5179 16.3401 13.0841 17.2395L14.1617 18.9515C13.8868 19.486 13.6562 20.0421 13.4726 20.6131L11.5009 21.0615C10.4644 21.2972 9.82061 21.9994 9.82061 22.8942V23.2258H7.29365C6.93684 21.5627 5.45601 20.312 3.68805 20.312C1.65445 20.312 0 21.9664 0 24C0 26.0335 1.65445 27.688 3.68805 27.688C5.45611 27.688 6.93694 26.4371 7.29365 24.7741H9.82061V25.1057C9.82061 26.0004 10.4644 26.7027 11.5008 26.9384L13.4722 27.3868C13.6559 27.9582 13.8866 28.5145 14.1613 29.0489L13.084 30.7605C12.5178 31.6601 12.5591 32.612 13.1918 33.2445L13.4263 33.479L11.6395 35.2658C10.2113 34.3423 8.27977 34.5049 7.02955 35.7549C5.59159 37.1929 5.59159 39.5327 7.02955 40.9706C7.74858 41.6896 8.6929 42.0491 9.63741 42.0491C10.5819 42.0491 11.5263 41.6896 12.2453 40.9705C13.4954 39.7204 13.6581 37.7889 12.7344 36.3607L14.5212 34.5739L14.7556 34.8083C15.3883 35.4411 16.3401 35.4823 17.2396 34.9161L18.9519 33.8383C19.4864 34.113 20.0423 34.3435 20.6131 34.5271L21.0616 36.4992C21.2973 37.5355 21.9995 38.1794 22.8943 38.1794H23.2258V40.7063C21.5628 41.0631 20.312 42.544 20.312 44.312C20.312 46.3456 21.9664 48 24 48C26.0336 48 27.688 46.3456 27.688 44.312C27.688 42.544 26.4372 41.0631 24.7742 40.7063V38.1794H25.1057C26.0004 38.1794 26.7026 37.5355 26.9384 36.4992L27.3868 34.5278C27.9582 34.344 28.5145 34.1134 29.0489 33.8387L30.7605 34.9161C31.6601 35.4822 32.6119 35.441 33.2445 34.8083L33.479 34.5739L35.2658 36.3607C34.3421 37.7889 34.5048 39.7205 35.755 40.9706C36.4516 41.6672 37.3777 42.0509 38.3628 42.0509C39.3478 42.0509 40.2741 41.6672 40.9706 40.9707C42.4086 39.5328 42.4086 37.193 40.9706 35.755C40.2741 35.0585 39.3479 34.6748 38.3628 34.6748C37.6411 34.6748 36.9515 34.8815 36.3602 35.2654L34.5738 33.4791L34.8082 33.2447C35.4409 32.6121 35.4822 31.6602 34.916 30.7606L33.8382 29.0483C34.113 28.5139 34.3436 27.9578 34.5272 27.3871L36.4991 26.9386C37.5356 26.7028 38.1794 26.0007 38.1794 25.1059V24.7743H40.7064C41.0631 26.4374 42.5439 27.6882 44.312 27.6882C46.3456 27.6882 48 26.0338 48 24.0002C48 21.9667 46.3456 20.3122 44.312 20.3122ZM36.8497 8.12466C37.2669 7.70747 37.8148 7.49892 38.3627 7.49892C38.9106 7.49892 39.4586 7.70747 39.8756 8.12466C40.7097 8.95885 40.7098 10.3163 39.8756 11.1506C39.0414 11.9849 37.684 11.9849 36.8496 11.1506C36.0153 10.3164 36.0153 8.95895 36.8496 8.12466H36.8497ZM21.8604 3.68825C21.8604 2.50848 22.8202 1.54858 24 1.54858C25.1798 1.54858 26.1397 2.50848 26.1397 3.68825C26.1397 4.86802 25.1799 5.82783 24 5.82783C22.8201 5.82783 21.8604 4.86802 21.8604 3.68825ZM8.12445 11.1504C7.29016 10.3162 7.29016 8.95885 8.12445 8.12447C8.52858 7.72034 9.06587 7.49776 9.63741 7.49776C10.209 7.49776 10.7462 7.72034 11.1504 8.12456C11.9847 8.95876 11.9847 10.3161 11.1504 11.1504C10.7462 11.5546 10.2089 11.7772 9.63741 11.7772C9.06596 11.7772 8.52858 11.5546 8.12445 11.1504ZM3.68815 26.1399C2.50838 26.1399 1.54848 25.18 1.54848 24.0002C1.54848 22.8205 2.50828 21.8607 3.68815 21.8607C4.86801 21.8607 5.82782 22.8205 5.82782 24.0002C5.82782 25.18 4.86801 26.1399 3.68815 26.1399ZM11.1504 39.8758C10.3161 40.7101 8.95874 40.7101 8.12435 39.8758C7.29007 39.0416 7.29007 37.6842 8.12435 36.8499C8.54155 36.4327 9.08938 36.2242 9.63732 36.2242C10.1852 36.2242 10.7332 36.4327 11.1503 36.8499C11.9844 37.6841 11.9846 39.0415 11.1504 39.8758ZM26.1397 44.3121C26.1397 45.4919 25.1799 46.4517 24 46.4517C22.8201 46.4517 21.8603 45.4919 21.8603 44.3121C21.8603 43.1324 22.8201 42.1725 24 42.1725C25.1799 42.1725 26.1397 43.1324 26.1397 44.3121ZM39.8756 36.85C40.7099 37.6842 40.7099 39.0416 39.8756 39.8759C39.4715 40.2801 38.9341 40.5027 38.3627 40.5027C37.7912 40.5027 37.2539 40.2801 36.8497 39.8759C36.0154 39.0417 36.0154 37.6843 36.8497 36.8499C37.2539 36.4458 37.7911 36.2232 38.3627 36.2232C38.9342 36.2232 39.4715 36.4458 39.8756 36.85ZM36.6309 25.106C36.6309 25.3147 36.2043 25.4178 36.1557 25.4288L33.7429 25.9776C33.4647 26.0409 33.2437 26.2522 33.1682 26.5273C32.9606 27.2823 32.6582 28.0116 32.2692 28.6951C32.1281 28.9432 32.1348 29.2489 32.2869 29.4904L33.6056 31.5855C33.6321 31.6277 33.861 32.0023 33.7134 32.1498L32.1495 33.7136C32.0022 33.8609 31.6274 33.6324 31.5852 33.6058L29.4909 32.2876C29.2492 32.1355 28.9436 32.1286 28.6955 32.2699C28.0126 32.6585 27.283 32.961 26.5268 33.169C26.2516 33.2447 26.0405 33.4655 25.9772 33.7437L25.4286 36.1559C25.4175 36.2046 25.3145 36.6312 25.1057 36.6312H22.8943C22.6855 36.6312 22.5825 36.2046 22.5714 36.1559L22.0227 33.7431C21.9594 33.4648 21.7482 33.244 21.473 33.1683C20.7181 32.9607 19.9887 32.6583 19.3052 32.2695C19.1864 32.2018 19.0543 32.1682 18.9224 32.1682C18.779 32.1682 18.6357 32.2079 18.5099 32.2871L16.4148 33.6057C16.3726 33.6323 15.998 33.8609 15.8504 33.7135L14.2866 32.1497C14.139 32.0022 14.3679 31.6275 14.3944 31.5854L15.7127 29.491C15.8647 29.2494 15.8715 28.9437 15.7303 28.6956C15.3416 28.0127 15.0391 27.2831 14.8312 26.527C14.7555 26.2519 14.5347 26.0407 14.2564 25.9773L11.8442 25.4286C11.7956 25.4176 11.369 25.3145 11.369 25.1058V22.8943C11.369 22.6856 11.7956 22.5825 11.8442 22.5715L14.2567 22.0228C14.5349 21.9595 14.7559 21.7482 14.8315 21.4731C15.0391 20.7178 15.3416 19.9884 15.7306 19.3051C15.8718 19.057 15.865 18.7513 15.713 18.5097L14.3944 16.4148C14.3679 16.3725 14.139 15.9981 14.2867 15.8505L15.8505 14.2867C15.9981 14.1392 16.3726 14.3679 16.4149 14.3946L18.5099 15.7132C18.7515 15.8652 19.0571 15.8721 19.3052 15.7309C19.9886 15.3419 20.7181 15.0395 21.473 14.832C21.7482 14.7563 21.9594 14.5355 22.0227 14.2572L22.5714 11.8445C22.5825 11.7958 22.6855 11.3692 22.8943 11.3692H25.1057C25.3145 11.3692 25.4175 11.7958 25.4286 11.8445L25.9773 14.2572C26.0406 14.5355 26.2518 14.7563 26.527 14.832C27.2817 15.0395 28.0111 15.342 28.6948 15.7309C28.9428 15.8721 29.2485 15.8653 29.49 15.7132L31.5851 14.3946C31.6273 14.3679 32.0017 14.139 32.1494 14.2868L33.7132 15.8504C33.8609 15.9981 33.6321 16.3726 33.6055 16.4148L32.2871 18.5092C32.1351 18.7507 32.1283 19.0564 32.2695 19.3046C32.6583 19.9876 32.9608 20.7172 33.1686 21.4733C33.2443 21.7484 33.4652 21.9596 33.7435 22.023L36.1557 22.5716C36.2042 22.5826 36.6309 22.6857 36.6309 22.8944V25.1059V25.106ZM44.312 26.14C43.1322 26.14 42.1723 25.1802 42.1723 24.0004C42.1723 22.8207 43.1321 21.8608 44.312 21.8608C45.4918 21.8608 46.4516 22.8207 46.4516 24.0004C46.4516 25.1802 45.4918 26.14 44.312 26.14ZM24 17.4957C20.4134 17.4957 17.4953 20.4136 17.4953 24.0003C17.4953 27.5871 20.4133 30.505 24 30.505C27.5867 30.505 30.5047 27.5871 30.5047 24.0003C30.5047 20.4136 27.5867 17.4957 24 17.4957ZM24 28.9566C21.2671 28.9566 19.0437 26.7332 19.0437 24.0003C19.0437 21.2674 21.2671 19.0441 24 19.0441C26.7329 19.0441 28.9563 21.2674 28.9563 24.0003C28.9563 26.7332 26.7329 28.9566 24 28.9566Z" fill="#284379"/>
</svg>
