<svg width="60" height="63" viewBox="0 0 60 63" fill="none" xmlns="http://www.w3.org/2000/svg">
<path d="M44.9591 6.55315C42.8838 6.58176 40.945 7.41657 39.4977 8.90285C38.0504 10.3891 37.2702 12.3513 37.2988 14.4254C37.3573 18.671 40.8305 22.0857 45.0644 22.0844C45.1008 22.0844 45.1372 22.0844 45.1724 22.0831C47.2477 22.0544 49.1865 21.2196 50.6338 19.7333C52.081 18.2458 52.8612 16.2849 52.8326 14.2108C52.804 12.1368 51.9692 10.198 50.4816 8.75072C48.994 7.30344 47.0344 6.52324 44.9591 6.55315ZM49.5155 18.6476C48.3595 19.8361 46.8095 20.5031 45.1515 20.5253C41.7291 20.576 38.906 17.8271 38.8592 14.4046C38.8358 12.7466 39.46 11.1797 40.6173 9.99123C41.7746 8.80273 43.3233 8.13566 44.9812 8.11355C46.6365 8.08884 48.2073 8.71431 49.3958 9.8703C50.5844 11.0263 51.2514 12.5763 51.2748 14.2329C51.2956 15.8922 50.6715 17.4591 49.5155 18.6476ZM59.0911 17.381L56.8702 15.519C56.9157 15.0664 56.9352 14.61 56.9287 14.1549C56.9235 13.8181 56.9053 13.4774 56.8715 13.1406L59.1068 11.2747C59.3694 11.0562 59.4578 10.6921 59.3278 10.3761L57.9377 7.03557C57.8077 6.72089 57.4891 6.52844 57.1484 6.55835L54.2513 6.81321C53.7468 6.19686 53.1811 5.63251 52.5635 5.12798L52.8222 2.24904C52.8534 1.90835 52.6584 1.58847 52.3424 1.45843L48.9953 0.077477C48.6807 -0.0525565 48.3179 0.0371667 48.0994 0.297234L46.2386 2.51561C45.7939 2.47139 45.3466 2.45319 44.8993 2.45839C44.5534 2.46359 44.2062 2.4831 43.8603 2.51821L41.9956 0.280329C41.7772 0.0176615 41.4131 -0.0707613 41.0971 0.0592723L37.7539 1.44933C37.4393 1.57936 37.2468 1.89925 37.2767 2.23863L37.5342 5.15529C36.9425 5.64161 36.4003 6.18385 35.9127 6.7742L32.9193 6.58696C32.5838 6.56615 32.2769 6.7599 32.1495 7.06808L32 7.42957H6.76044C3.03238 7.42957 0 10.462 0 14.1887V44.2044C0 47.9311 3.03238 50.9635 6.76044 50.9635H18.994L16.4883 56.4795H11.6809C9.97227 56.4795 8.58221 57.8696 8.58221 59.5782C8.58221 61.2869 9.97487 62.6769 11.6822 62.6769H43.5768C45.2855 62.6769 46.6755 61.2869 46.6755 59.5782C46.6755 57.8696 45.2855 56.4795 43.5768 56.4795H38.7734L36.3158 50.9635H48.4973C52.2254 50.9635 55.2578 47.9311 55.2578 44.2044V21.9322L57.138 22.1013C57.4787 22.1325 57.7986 21.9374 57.9286 21.6214L59.3096 18.2757C59.4422 17.9623 59.3525 17.5995 59.0911 17.381ZM6.76044 8.99128H31.355L30.7672 10.4164C30.6359 10.735 30.7282 11.1017 30.9961 11.3189L33.2587 13.1628C33.2158 13.601 33.1976 14.0431 33.2041 14.4826C33.208 14.8038 33.2262 15.1263 33.2561 15.4474L31.0091 17.4305C30.7594 17.6515 30.6762 18.0065 30.805 18.3147L32.195 21.6565C32.3276 21.9738 32.6527 22.1676 32.9947 22.1338L35.8919 21.8386C36.3743 22.4263 36.9113 22.966 37.4965 23.4523L37.3079 26.4652C37.2871 26.7981 37.4809 27.1076 37.789 27.235L41.1361 28.6159C41.2323 28.6563 41.3338 28.6745 41.4339 28.6745C41.6641 28.6745 41.8877 28.573 42.0385 28.3871L43.885 26.1219C44.331 26.1661 44.781 26.1856 45.2309 26.1791C45.5417 26.1752 45.8563 26.1583 46.171 26.1284L48.1527 28.3741C48.3738 28.6237 48.7288 28.7057 49.037 28.5782L52.3801 27.1882C52.6974 27.0555 52.8911 26.7318 52.8573 26.3885L52.5648 23.5121C52.9679 23.1831 53.345 22.8268 53.7013 22.4485V41.1057H1.5617V14.1887C1.5617 11.3228 3.8932 8.99128 6.76044 8.99128ZM45.1151 59.5782C45.1151 60.4261 44.4247 61.1165 43.5768 61.1165H11.6822C10.8344 61.1165 10.1439 60.4261 10.1439 59.5782C10.1439 58.7304 10.8344 58.0399 11.6822 58.0399H43.5768C44.426 58.0399 45.1151 58.7304 45.1151 59.5782ZM37.0661 56.4795H18.2034L20.7091 50.9635H34.6097L37.0661 56.4795ZM48.4986 49.4031H6.76044C3.8932 49.4031 1.5604 47.0716 1.5604 44.2044V42.6661H53.6987V44.2044C53.6987 47.0716 51.3658 49.4031 48.4986 49.4031ZM56.7076 20.4966L53.9587 20.2496C53.6922 20.2249 53.4308 20.3406 53.2682 20.5539C52.6922 21.3107 52.0147 21.9829 51.2566 22.5538C50.9888 22.7553 50.8808 23.1038 50.9836 23.4185L51.2436 25.9698L48.9511 26.9229L47.2269 24.9698C47.0826 24.6655 46.7575 24.4861 46.4207 24.5303C46.0176 24.5836 45.6093 24.6135 45.2075 24.6187C44.6782 24.6265 44.1477 24.5927 43.6276 24.5199C43.2856 24.4718 42.954 24.6551 42.8109 24.9672L41.1933 26.9502L38.8982 26.0036L39.0608 23.4068C39.1882 23.083 39.0855 22.7137 38.8085 22.5018C38.0673 21.9348 37.4068 21.2703 36.8424 20.5253C36.637 20.2535 36.2781 20.1482 35.9595 20.2613L33.4121 20.5214L32.459 18.2302L34.4121 16.5072C34.719 16.3629 34.8997 16.0365 34.8542 15.6971C34.7996 15.2888 34.7684 14.8727 34.7632 14.4605C34.7554 13.9404 34.7879 13.4163 34.8581 12.9053C34.9049 12.5646 34.7229 12.2356 34.4147 12.0913L32.4304 10.475L33.377 8.18117L35.9764 8.34371C36.2963 8.46074 36.6565 8.35671 36.8645 8.08364C37.4263 7.34635 38.0842 6.68708 38.8215 6.12534C39.0439 5.95629 39.1531 5.68192 39.1219 5.41275L38.88 2.67165L41.1647 1.7224L42.9358 3.84455C43.1087 4.0513 43.374 4.15403 43.6419 4.11762C44.0658 4.0591 44.4975 4.0266 44.924 4.02009C45.4389 4.01359 45.9565 4.0448 46.4636 4.11372C46.7289 4.15013 46.9941 4.0474 47.1671 3.84195L48.9303 1.73801L51.2176 2.68205L50.9719 5.41015C50.9471 5.67802 51.0629 5.93939 51.2774 6.10193C52.0316 6.67278 52.7052 7.34505 53.2773 8.09925C53.4399 8.3125 53.7 8.42693 53.9665 8.40483L56.7141 8.16296L57.6634 10.4477L55.5451 12.2161C55.3384 12.3878 55.2357 12.6543 55.2721 12.9196C55.328 13.3344 55.3605 13.7583 55.3657 14.1783C55.3735 14.6997 55.341 15.2264 55.2695 15.7413C55.233 16.0066 55.3358 16.2732 55.5412 16.4461L57.6478 18.212L56.7076 20.4966ZM29.5696 45.7804C29.5696 46.2108 29.2198 46.5606 28.7894 46.5606H26.4709C26.0405 46.5606 25.6907 46.2108 25.6907 45.7804C25.6907 45.35 26.0405 45.0002 26.4709 45.0002H28.7894C29.2198 45.0002 29.5696 45.35 29.5696 45.7804ZM4.6435 35.4791V15.5372C4.6435 13.7622 6.08817 12.3175 7.86313 12.3175H22.856C24.631 12.3175 26.0756 13.7622 26.0756 15.5372V21.4368C26.0756 21.8672 25.7258 22.217 25.2954 22.217C24.865 22.217 24.5152 21.8672 24.5152 21.4368V15.5372C24.5152 14.623 23.7714 13.8779 22.856 13.8779H7.86183C6.94769 13.8779 6.2026 14.6217 6.2026 15.5372V35.4791C6.2026 36.3932 6.94639 37.1383 7.86183 37.1383H13.4923C13.9227 37.1383 14.2725 37.4881 14.2725 37.9185C14.2725 38.349 13.9227 38.6987 13.4923 38.6987H7.86183C6.08687 38.6987 4.6435 37.2541 4.6435 35.4791ZM9.62899 18.9805C9.62899 18.55 9.97878 18.2003 10.4092 18.2003H18.336C18.7664 18.2003 19.1162 18.55 19.1162 18.9805C19.1162 19.4109 18.7664 19.7607 18.336 19.7607H10.4092C9.97878 19.7607 9.62899 19.4109 9.62899 18.9805ZM15.7887 24.8177H10.4079C9.97747 24.8177 9.62768 24.4679 9.62768 24.0375C9.62768 23.607 9.97747 23.2573 10.4079 23.2573H15.7887C16.2191 23.2573 16.5689 23.607 16.5689 24.0375C16.5689 24.4679 16.2204 24.8177 15.7887 24.8177ZM13.0268 28.3156C13.4572 28.3156 13.807 28.6654 13.807 29.0958C13.807 29.5262 13.4572 29.876 13.0268 29.876H10.4079C9.97747 29.876 9.62768 29.5262 9.62768 29.0958C9.62768 28.6654 9.97747 28.3156 10.4079 28.3156H13.0268ZM14.1477 31.6054C14.1477 36.1488 17.8445 39.8456 22.3879 39.8456C26.9312 39.8456 30.6281 36.1488 30.6281 31.6054C30.6281 27.062 26.9312 23.3652 22.3879 23.3652C17.8445 23.3652 14.1477 27.062 14.1477 31.6054ZM29.069 31.6054C29.069 35.2893 26.0717 38.2852 22.3892 38.2852C18.7053 38.2852 15.7094 35.288 15.7094 31.6054C15.7094 27.9229 18.7066 24.9256 22.3892 24.9256C26.0717 24.9256 29.069 27.9229 29.069 31.6054ZM22.3892 30.5027L25.3305 27.5614C25.6348 27.2571 26.1289 27.2571 26.4345 27.5614C26.7388 27.8656 26.7388 28.3598 26.4345 28.6654L22.9418 32.1581C22.7897 32.3102 22.5894 32.3869 22.3905 32.3869C22.1915 32.3869 21.9913 32.3102 21.8391 32.1581L20.0993 30.4182C19.795 30.1139 19.795 29.6198 20.0993 29.3142C20.4036 29.0099 20.8977 29.0099 21.2033 29.3142L22.3892 30.5027Z" fill="#0046D3"/>
</svg>
