<svg width="40" height="40" viewBox="0 0 40 40" fill="none" xmlns="http://www.w3.org/2000/svg">
<path d="M28.75 31.875C28.4062 31.875 28.125 32.1562 28.125 32.5V36.875H4.375V6.875H8.125C8.46875 6.875 8.75 6.59375 8.75 6.25C8.75 5.90625 8.46875 5.625 8.125 5.625H3.75C3.40625 5.625 3.125 5.90625 3.125 6.25V37.5C3.125 37.8438 3.40625 38.125 3.75 38.125H28.75C29.0938 38.125 29.375 37.8438 29.375 37.5V32.5C29.375 32.1562 29.0938 31.875 28.75 31.875Z" fill="#909090"/>
<path d="M24.375 6.875H28.125V12.5C28.125 12.8438 28.4062 13.125 28.75 13.125C29.0938 13.125 29.375 12.8438 29.375 12.5V6.25C29.375 5.90625 29.0938 5.625 28.75 5.625H24.375C24.0312 5.625 23.75 5.90625 23.75 6.25C23.75 6.59375 24.0312 6.875 24.375 6.875Z" fill="#909090"/>
<path d="M11.3375 10.625H21.1625C22.2438 10.625 23.125 9.74375 23.125 8.6625V6.3375C23.125 5.25625 22.2438 4.375 21.1625 4.375H19.7312C19.4937 4.375 19.2875 4.20625 19.1937 3.94375C18.75 2.70625 17.5688 1.875 16.25 1.875C14.9313 1.875 13.75 2.70625 13.3063 3.94375C13.2125 4.20625 13 4.375 12.7688 4.375H11.3375C10.2562 4.375 9.375 5.25625 9.375 6.3375V8.6625C9.375 9.74375 10.2562 10.625 11.3375 10.625ZM10.625 6.3375C10.625 5.94375 10.9437 5.625 11.3375 5.625H12.7688C13.5375 5.625 14.2125 5.13125 14.4875 4.36875C14.75 3.625 15.4625 3.125 16.25 3.125C17.0375 3.125 17.75 3.625 18.0188 4.36875C18.2875 5.13125 18.9625 5.625 19.7312 5.625H21.1625C21.5563 5.625 21.875 5.94375 21.875 6.3375V8.6625C21.875 9.05625 21.5563 9.375 21.1625 9.375H11.3375C10.9437 9.375 10.625 9.05625 10.625 8.6625V6.3375Z" fill="#909090"/>
<path d="M8.125 8.75H6.25C5.90625 8.75 5.625 9.03125 5.625 9.375V34.375C5.625 34.7188 5.90625 35 6.25 35H26.25C26.5938 35 26.875 34.7188 26.875 34.375V32.5C26.875 32.1562 26.5938 31.875 26.25 31.875C25.9062 31.875 25.625 32.1562 25.625 32.5V33.75H6.875V10H8.125C8.46875 10 8.75 9.71875 8.75 9.375C8.75 9.03125 8.46875 8.75 8.125 8.75Z" fill="#909090"/>
<path d="M24.375 10H25.625V12.5C25.625 12.8438 25.9062 13.125 26.25 13.125C26.5938 13.125 26.875 12.8438 26.875 12.5V9.375C26.875 9.03125 26.5938 8.75 26.25 8.75H24.375C24.0312 8.75 23.75 9.03125 23.75 9.375C23.75 9.71875 24.0312 10 24.375 10Z" fill="#909090"/>
<path d="M36.25 20.625H34.7375C34.5938 20.1125 34.3875 19.6187 34.125 19.15L35.1938 18.0813C35.4375 17.8375 35.4375 17.4438 35.1938 17.2L33.425 15.4313C33.1812 15.1875 32.7875 15.1875 32.5437 15.4313L31.475 16.5C31.0063 16.2375 30.5125 16.0312 30 15.8875V14.375C30 14.0312 29.7188 13.75 29.375 13.75H26.875C26.5312 13.75 26.25 14.0312 26.25 14.375V15.8875C25.7375 16.0312 25.2437 16.2375 24.775 16.5L23.7063 15.4313C23.4625 15.1875 23.0688 15.1875 22.825 15.4313L21.0562 17.2C20.8125 17.4438 20.8125 17.8375 21.0562 18.0813L22.125 19.15C21.8625 19.6187 21.6562 20.1125 21.5125 20.625H20C19.6562 20.625 19.375 20.9062 19.375 21.25V23.75C19.375 24.0938 19.6562 24.375 20 24.375H21.5125C21.6562 24.8875 21.8625 25.3813 22.125 25.85L21.0562 26.9187C20.8125 27.1625 20.8125 27.5562 21.0562 27.8L22.825 29.5688C23.0688 29.8125 23.4625 29.8125 23.7063 29.5688L24.775 28.5C25.2437 28.7625 25.7375 28.9688 26.25 29.1125V30.625C26.25 30.9688 26.5312 31.25 26.875 31.25H29.375C29.7188 31.25 30 30.9688 30 30.625V29.1125C30.5125 28.9688 31.0063 28.7625 31.475 28.5L32.5437 29.5688C32.7875 29.8125 33.1812 29.8125 33.425 29.5688L35.1938 27.8C35.4375 27.5562 35.4375 27.1625 35.1938 26.9187L34.125 25.85C34.3875 25.3813 34.5938 24.8875 34.7375 24.375H36.25C36.5938 24.375 36.875 24.0938 36.875 23.75V21.25C36.875 20.9062 36.5938 20.625 36.25 20.625ZM35.625 23.125H34.25C33.95 23.125 33.6937 23.3312 33.6375 23.625C33.4937 24.3312 33.2187 24.9937 32.8187 25.6C32.6562 25.85 32.6875 26.175 32.9 26.3875L33.875 27.3625L32.9938 28.2437L32.0187 27.2688C31.8062 27.0563 31.4813 27.025 31.2313 27.1875C30.625 27.5875 29.9625 27.8625 29.2563 28.0063C28.9625 28.0625 28.7562 28.3188 28.7562 28.6188V30H27.5062V28.625C27.5062 28.325 27.3 28.0687 27.0062 28.0125C26.3 27.8687 25.6375 27.5937 25.0312 27.1937C24.7812 27.0312 24.4563 27.0625 24.2438 27.275L23.2687 28.25L22.3875 27.3688L23.3625 26.3937C23.575 26.1812 23.6062 25.8563 23.4437 25.6063C23.0437 25 22.7688 24.3375 22.625 23.6313C22.5688 23.3375 22.3125 23.1312 22.0125 23.1312H20.625V21.8812H22C22.3 21.8812 22.5563 21.675 22.6125 21.3812C22.7563 20.675 23.0313 20.0125 23.4313 19.4062C23.5938 19.1562 23.5625 18.8313 23.35 18.6188L22.375 17.6437L23.2562 16.7625L24.2313 17.7375C24.4438 17.95 24.7687 17.9813 25.0187 17.8188C25.625 17.4188 26.2875 17.1438 26.9937 17C27.2875 16.9438 27.4938 16.6875 27.4938 16.3875V15H28.7438V16.375C28.7438 16.675 28.95 16.9313 29.2438 16.9875C29.95 17.1313 30.6125 17.4062 31.2188 17.8062C31.4688 17.9688 31.7937 17.9375 32.0062 17.725L32.9813 16.75L33.8625 17.6312L32.8875 18.6063C32.675 18.8188 32.6438 19.1438 32.8063 19.3938C33.2063 20 33.4812 20.6625 33.625 21.3687C33.6812 21.6625 33.9375 21.8688 34.2375 21.8688H35.625V23.125Z" fill="#909090"/>
<path d="M16.0125 5.575C16.0875 5.60625 16.1687 5.625 16.25 5.625C16.2875 5.625 16.3313 5.61875 16.375 5.6125C16.4125 5.60625 16.45 5.59376 16.4875 5.575C16.525 5.56251 16.5625 5.54375 16.6 5.51875C16.6312 5.49375 16.6625 5.46875 16.6937 5.44375C16.7187 5.4125 16.75 5.38126 16.7687 5.35001C16.7937 5.31251 16.8125 5.275 16.825 5.2375C16.8438 5.2 16.8562 5.1625 16.8625 5.125C16.8687 5.08125 16.875 5.0375 16.875 5C16.875 4.8375 16.8062 4.675 16.6937 4.55625C16.6625 4.53125 16.6312 4.50625 16.6 4.48125C16.5625 4.45625 16.525 4.4375 16.4875 4.425C16.45 4.40625 16.4125 4.39375 16.375 4.3875C16.1688 4.35 15.9563 4.4125 15.8063 4.55625C15.75 4.61875 15.7062 4.68125 15.675 4.7625C15.6437 4.8375 15.625 4.91875 15.625 5C15.625 5.16875 15.6938 5.325 15.8063 5.44375C15.8688 5.5 15.9375 5.54375 16.0125 5.575Z" fill="#909090"/>
<path d="M11.875 13.125C11.875 12.7812 11.5938 12.5 11.25 12.5H8.75C8.40625 12.5 8.125 12.7812 8.125 13.125V15.625C8.125 15.9688 8.40625 16.25 8.75 16.25H11.25C11.5938 16.25 11.875 15.9688 11.875 15.625V13.125ZM10.625 15H9.375V13.75H10.625V15Z" fill="#909090"/>
<path d="M11.875 18.125C11.875 17.7812 11.5938 17.5 11.25 17.5H8.75C8.40625 17.5 8.125 17.7812 8.125 18.125V20.625C8.125 20.9688 8.40625 21.25 8.75 21.25H11.25C11.5938 21.25 11.875 20.9688 11.875 20.625V18.125ZM10.625 20H9.375V18.75H10.625V20Z" fill="#909090"/>
<path d="M11.875 23.125C11.875 22.7812 11.5938 22.5 11.25 22.5H8.75C8.40625 22.5 8.125 22.7812 8.125 23.125V25.625C8.125 25.9688 8.40625 26.25 8.75 26.25H11.25C11.5938 26.25 11.875 25.9688 11.875 25.625V23.125ZM10.625 25H9.375V23.75H10.625V25Z" fill="#909090"/>
<path d="M11.25 27.5H8.75C8.40625 27.5 8.125 27.7812 8.125 28.125V30.625C8.125 30.9688 8.40625 31.25 8.75 31.25H11.25C11.5938 31.25 11.875 30.9688 11.875 30.625V28.125C11.875 27.7812 11.5938 27.5 11.25 27.5ZM10.625 30H9.375V28.75H10.625V30Z" fill="#909090"/>
<path d="M20 13.75C20 13.4062 19.7188 13.125 19.375 13.125H13.125C12.7812 13.125 12.5 13.4062 12.5 13.75C12.5 14.0938 12.7812 14.375 13.125 14.375H19.375C19.7188 14.375 20 14.0938 20 13.75Z" fill="#909090"/>
<path d="M21.25 13.125C20.9062 13.125 20.625 13.4062 20.625 13.75C20.625 14.0938 20.9062 14.375 21.25 14.375H22.5C22.8438 14.375 23.125 14.0938 23.125 13.75C23.125 13.4062 22.8438 13.125 22.5 13.125H21.25Z" fill="#909090"/>
<path d="M13.125 16.25H18.125C18.4688 16.25 18.75 15.9688 18.75 15.625C18.75 15.2812 18.4688 15 18.125 15H13.125C12.7812 15 12.5 15.2812 12.5 15.625C12.5 15.9688 12.7812 16.25 13.125 16.25Z" fill="#909090"/>
<path d="M13.125 19.375H14.375C14.7188 19.375 15 19.0938 15 18.75C15 18.4062 14.7188 18.125 14.375 18.125H13.125C12.7812 18.125 12.5 18.4062 12.5 18.75C12.5 19.0938 12.7812 19.375 13.125 19.375Z" fill="#909090"/>
<path d="M18.75 18.125H16.25C15.9062 18.125 15.625 18.4062 15.625 18.75C15.625 19.0938 15.9062 19.375 16.25 19.375H18.75C19.0938 19.375 19.375 19.0938 19.375 18.75C19.375 18.4062 19.0938 18.125 18.75 18.125Z" fill="#909090"/>
<path d="M13.125 21.25H16.875C17.2188 21.25 17.5 20.9688 17.5 20.625C17.5 20.2812 17.2188 20 16.875 20H13.125C12.7812 20 12.5 20.2812 12.5 20.625C12.5 20.9688 12.7812 21.25 13.125 21.25Z" fill="#909090"/>
<path d="M13.125 24.375H17.5C17.8438 24.375 18.125 24.0938 18.125 23.75C18.125 23.4062 17.8438 23.125 17.5 23.125H13.125C12.7812 23.125 12.5 23.4062 12.5 23.75C12.5 24.0938 12.7812 24.375 13.125 24.375Z" fill="#909090"/>
<path d="M13.125 26.25H15.625C15.9688 26.25 16.25 25.9688 16.25 25.625C16.25 25.2812 15.9688 25 15.625 25H13.125C12.7812 25 12.5 25.2812 12.5 25.625C12.5 25.9688 12.7812 26.25 13.125 26.25Z" fill="#909090"/>
<path d="M16.875 25.625C16.875 25.9688 17.1562 26.25 17.5 26.25H18.125C18.4688 26.25 18.75 25.9688 18.75 25.625C18.75 25.2812 18.4688 25 18.125 25H17.5C17.1562 25 16.875 25.2812 16.875 25.625Z" fill="#909090"/>
<path d="M18.75 28.125H13.125C12.7812 28.125 12.5 28.4062 12.5 28.75C12.5 29.0938 12.7812 29.375 13.125 29.375H18.75C19.0938 29.375 19.375 29.0938 19.375 28.75C19.375 28.4062 19.0938 28.125 18.75 28.125Z" fill="#909090"/>
<path d="M16.25 31.25C16.5938 31.25 16.875 30.9688 16.875 30.625C16.875 30.2812 16.5938 30 16.25 30H13.125C12.7812 30 12.5 30.2812 12.5 30.625C12.5 30.9688 12.7812 31.25 13.125 31.25H16.25Z" fill="#909090"/>
<path d="M20.625 30H18.125C17.7812 30 17.5 30.2812 17.5 30.625C17.5 30.9688 17.7812 31.25 18.125 31.25H20.625C20.9688 31.25 21.25 30.9688 21.25 30.625C21.25 30.2812 20.9688 30 20.625 30Z" fill="#909090"/>
<path d="M30.7561 19.6191L26.8811 24.6004L25.4998 22.7504C25.2936 22.4754 24.8998 22.4191 24.6248 22.6254C24.3498 22.8316 24.2936 23.2254 24.4998 23.5004L26.3748 26.0004C26.4936 26.1566 26.6748 26.2504 26.8686 26.2504H26.8748C27.0686 26.2504 27.2498 26.1629 27.3686 26.0066L31.7436 20.3816C31.9561 20.1066 31.9061 19.7191 31.6373 19.5066C31.3623 19.2941 30.9686 19.3441 30.7561 19.6191Z" fill="#909090"/>
<linearGradient id="gradient-fill" x1="20.7288" y1="24.7324" x2="17.4373" y2="0.30632" gradientUnits="userSpaceOnUse">
<stop stop-color="#0046D3"/>
<stop offset="0.519231" stop-color="#65B878"/>
<stop offset="1" stop-color="#9DF500"/>
</linearGradient>
</svg>
