<svg width="48" height="48" viewBox="0 0 48 48" fill="none" xmlns="http://www.w3.org/2000/svg">
<g clip-path="url(#clip0_187_2011)">
<path d="M45.1471 24.9563C43.5739 24.9563 42.294 26.2381 42.294 27.8136C42.294 28.7481 42.7444 29.5791 43.4391 30.1008L41.4132 33.8248C41.2311 33.7881 41.0428 33.7686 40.8501 33.7686C40.3887 33.7686 39.953 33.8796 39.5669 34.0752L37.7529 32.4126C37.9552 31.9173 38.1542 31.4059 38.347 30.88C39.5607 27.5711 40.2744 24.3829 40.4683 21.4037C40.713 17.6449 40.1273 14.21 38.7276 11.1944C37.6507 8.87418 36.2299 6.86906 34.5049 5.23462C34.2226 4.96724 33.7766 4.97896 33.509 5.26153C33.2414 5.5439 33.2534 5.98978 33.5359 6.25743C35.1311 7.76887 36.4478 9.62952 37.4497 11.7876C38.7467 14.5821 39.2897 17.7805 39.0635 21.2941C38.8807 24.1343 38.1984 27.1859 37.0357 30.3636C35.6881 34.0466 33.9959 37.0542 33.0324 38.6285C32.0465 35.2221 32.6688 31.95 33.4696 28.6293C33.5608 28.2511 33.3281 27.8706 32.9498 27.7793C32.5717 27.6881 32.191 27.9208 32.0998 28.2991C31.2475 31.8331 30.5421 35.5954 31.8347 39.5196H12.7053C12.749 38.3396 13.1563 35.7486 15.6988 33.7539C22.1671 28.6794 23.8909 21.6647 23.9611 21.3685C24.1381 20.7164 23.2784 20.2151 22.7973 20.6888C22.783 20.7019 21.3652 21.9944 19.8749 22.1558C19.1313 22.2366 18.4402 21.8803 17.7717 21.5361C17.1035 21.1919 16.4125 20.8362 15.6914 20.992C15.1114 21.1177 14.52 21.5632 13.894 22.0349C13.1845 22.5696 12.3828 23.1753 11.7875 23.1522C11.2712 23.132 10.1464 22.5266 9.46303 21.4852C8.95978 20.7184 8.85094 19.9526 9.13941 19.2095C9.61828 17.9756 10.4718 17.2566 11.3754 16.4952C12.1848 15.8135 13.0217 15.1085 13.5995 14.0229C13.7002 13.8336 13.8063 13.6295 13.9182 13.4136C15.0406 11.251 16.7367 7.98299 19.8848 6.86493C20.1657 6.76518 20.3534 6.49931 20.3534 6.20109V1.5479C20.8013 1.63518 21.404 1.80178 22.0073 2.11818C23.5391 2.92143 24.3157 4.3004 24.3157 6.21674C24.3157 6.51196 24.5004 6.77606 24.7775 6.87806C24.7982 6.88565 26.8807 7.66312 29.0116 9.37743C31.8142 11.632 33.3794 14.3642 33.6637 17.4981C33.927 20.3999 33.341 23.1828 32.771 25.5635C32.6804 25.9418 32.9137 26.3219 33.2921 26.4126C33.6708 26.5033 34.0507 26.2699 34.1413 25.8915C34.7374 23.402 35.3497 20.4852 35.0671 17.3707C34.75 13.8771 32.949 10.7233 29.8585 8.25056C28.1394 6.87515 26.4828 6.07209 25.7109 5.73778C25.5953 3.76274 24.7679 2.48362 23.8232 1.66031C26.0194 2.00203 28.8049 2.79196 31.4272 4.56487C31.7453 4.78115 32.1861 4.70062 32.4053 4.37596C32.6233 4.05365 32.5387 3.61574 32.2163 3.39778C26.4355 -0.510849 20.0825 0.000182111 19.5992 0.0460259C19.24 0.0659946 18.9379 0.38812 18.9445 0.74887V5.72053C15.5763 7.16053 13.7676 10.6454 12.6677 12.7646C12.5581 12.9758 12.4544 13.1756 12.3557 13.3611C11.9059 14.2063 11.2072 14.7947 10.4677 15.4177C9.51497 16.2204 8.43506 17.1302 7.82587 18.6996C7.37625 19.858 7.53938 21.1218 8.28497 22.2581C9.11691 23.5259 10.5989 24.5156 11.7322 24.5601C12.8272 24.6044 13.8442 23.8365 14.7419 23.1603C15.1967 22.8176 15.7121 22.4292 15.9898 22.369C16.2165 22.32 16.6999 22.5688 17.1264 22.7886C17.8998 23.1869 18.8618 23.6829 20.0266 23.5565C20.7198 23.4815 21.3802 23.2383 21.9473 22.9524C21.0423 25.2388 19.0592 29.1531 15.2512 32.3045L11.9528 29.7929C12.1622 29.3956 12.2812 28.9436 12.2812 28.4641C12.2812 26.8886 11.0014 25.6069 9.42816 25.6069C7.85503 25.6069 6.57525 26.8886 6.57525 28.4641C6.57525 28.9938 6.72038 29.4899 6.97219 29.9156L4.29966 33.6283C3.87516 33.3771 3.38072 33.2322 2.85291 33.2322C1.27988 33.2322 0 34.5141 0 36.0895C0 37.665 1.27988 38.9467 2.85291 38.9467C4.42612 38.9467 5.70591 37.665 5.70591 36.0895C5.70591 35.5598 5.56078 35.0637 5.30897 34.638L7.9815 30.9253C8.406 31.1766 8.90044 31.3214 9.42825 31.3214C10.0114 31.3214 10.554 31.145 11.0063 30.843L14.1454 33.2332C11.6966 35.5423 11.3243 38.3189 11.2951 39.5977C10.3016 39.8626 9.56738 40.7709 9.56738 41.848C9.56738 42.1949 9.64378 42.5241 9.78019 42.8202C8.58806 43.0629 7.68825 44.1192 7.68825 45.3818V47.2955C7.68825 47.6845 8.00363 47.9999 8.39278 47.9999H36.3671C36.7563 47.9999 37.0717 47.6845 37.0717 47.2955V45.3818C37.0717 44.1189 36.1714 43.0625 34.9789 42.82C35.1154 42.5239 35.1925 42.195 35.1925 41.848C35.1925 40.9626 34.6964 40.1913 33.9681 39.7975C34.6657 38.6946 35.9288 36.5627 37.1662 33.786L38.4998 35.0085C38.1831 35.4687 37.997 36.0259 37.997 36.6259C37.997 38.2014 39.2768 39.4832 40.85 39.4832C42.4231 39.4832 43.703 38.2014 43.703 36.6259C43.703 35.7489 43.306 34.9633 42.6831 34.4387L44.7483 30.6423C44.8787 30.6606 45.0116 30.6708 45.147 30.6708C46.7201 30.6708 47.9999 29.389 47.9999 27.8136C48 26.2381 46.7201 24.9563 45.1471 24.9563ZM2.85291 37.5379C2.05669 37.5379 1.40897 36.8882 1.40897 36.0895C1.40897 35.2909 2.05669 34.6412 2.85291 34.6412C3.64912 34.6412 4.29694 35.2909 4.29694 36.0895C4.29694 36.8882 3.64922 37.5379 2.85291 37.5379ZM9.42825 29.9125C8.63203 29.9125 7.98431 29.2627 7.98431 28.4641C7.98431 27.6654 8.63203 27.0157 9.42825 27.0157C10.2245 27.0157 10.8723 27.6654 10.8723 28.4641C10.8724 29.2627 10.2246 29.9125 9.42825 29.9125ZM35.6627 45.3818V46.591H9.09731V45.3818C9.09731 44.7172 9.63806 44.1766 10.3027 44.1766H17.7909C18.1801 44.1766 18.4955 43.8612 18.4955 43.4721C18.4955 43.0831 18.1801 42.7677 17.7909 42.7677H11.8928C11.3875 42.7677 10.9764 42.3551 10.9764 41.848C10.9764 41.3408 11.3874 40.9283 11.8928 40.9283H32.8672C33.3725 40.9283 33.7836 41.3409 33.7836 41.848C33.7836 42.3551 33.3726 42.7677 32.8672 42.7677H20.609C20.2198 42.7677 19.9044 43.0831 19.9044 43.4721C19.9044 43.8612 20.2198 44.1766 20.609 44.1766H34.4573C35.1219 44.1766 35.6627 44.7173 35.6627 45.3818ZM40.8501 38.0743C40.0538 38.0743 39.4061 37.4245 39.4061 36.6259C39.4061 35.8272 40.0538 35.1775 40.8501 35.1775C41.6463 35.1775 42.294 35.8272 42.294 36.6259C42.294 37.4245 41.6463 38.0743 40.8501 38.0743ZM45.1471 29.2619C44.3509 29.2619 43.7031 28.6122 43.7031 27.8136C43.7031 27.0149 44.3509 26.3652 45.1471 26.3652C45.9433 26.3652 46.591 27.0149 46.591 27.8136C46.591 28.6122 45.9433 29.2619 45.1471 29.2619Z" fill="#284379"/>
</g>
<defs>
<clipPath id="clip0_187_2011">
<rect width="48" height="48" fill="white"/>
</clipPath>
</defs>
</svg>
