<svg width="40" height="40" viewBox="0 0 40 40" fill="none" xmlns="http://www.w3.org/2000/svg">
<g clip-path="url(#clip0_187_2390)">
<path fill-rule="evenodd" clip-rule="evenodd" d="M13.4816 39.451H1.17646C0.829952 39.451 0.549011 39.17 0.549011 38.8235V30.0993C0.549011 29.2162 0.899756 28.3694 1.52415 27.7451C2.14854 27.1207 2.99536 26.77 3.87834 26.77H10.8553C11.0212 26.77 11.1818 26.7108 11.3081 26.6031L14.9482 23.5007C15.1038 23.3681 15.1934 23.1739 15.1934 22.9694V18.9088C15.1934 18.3053 15.4332 17.7266 15.8598 17.2999C16.2866 16.8732 16.8653 16.6335 17.4688 16.6335H17.469C18.0725 16.6335 18.6512 16.8732 19.078 17.2999C19.5046 17.7266 19.7443 18.3053 19.7443 18.9088V24.491C19.7443 25.063 19.4936 25.6062 19.0582 25.9772L14.199 30.1188C14.1419 30.1674 14.109 30.2387 14.109 30.3138V38.8235C14.109 39.17 13.8281 39.451 13.4816 39.451ZM5.09991 38.1961H12.8541V30.3138C12.8541 29.8712 13.0481 29.4508 13.385 29.1638L18.2442 25.0222C18.3998 24.8896 18.4894 24.6954 18.4894 24.491V18.9088C18.4894 18.6382 18.382 18.3786 18.1906 18.1873C17.9992 17.9959 17.7397 17.8884 17.469 17.8884H17.4688C17.1981 17.8884 16.9386 17.9959 16.7472 18.1873C16.5558 18.3786 16.4483 18.6382 16.4483 18.9088V22.9694C16.4483 23.5414 16.1976 24.0847 15.7622 24.4558L12.1221 27.5582C11.7688 27.8594 11.3196 28.0249 10.8553 28.0249H3.87834C3.32815 28.0249 2.80054 28.2434 2.41152 28.6324C2.0225 29.0214 1.80391 29.5491 1.80391 30.0993V38.1961H3.84501V31.0555C3.84501 30.7092 4.12619 30.4281 4.47246 30.4281C4.81874 30.4281 5.09991 30.7092 5.09991 31.0555V38.1961ZM8.58634 18.4118C10.6822 18.4118 12.3937 20.1579 12.3937 22.3205C12.3937 24.4832 10.6822 26.2293 8.58634 26.2293C6.4905 26.2293 4.77897 24.4832 4.77897 22.3205C4.77897 20.1579 6.4905 18.4118 8.58634 18.4118ZM8.58634 19.6667C7.17207 19.6667 6.03387 20.8612 6.03387 22.3205C6.03387 23.7799 7.17207 24.9744 8.58634 24.9744C10.0006 24.9744 11.1388 23.7799 11.1388 22.3205C11.1388 20.8612 10.0006 19.6667 8.58634 19.6667ZM39.451 14.1661C39.451 15.7023 38.198 16.952 36.6619 16.952H27.1641L23.1207 21.161C22.9433 21.3457 22.6715 21.404 22.434 21.3084C22.1964 21.2128 22.0408 20.9824 22.0408 20.7263V16.952H20.8401C19.3039 16.952 18.051 15.7023 18.051 14.1661V3.33811C18.051 1.80219 19.3042 0.549011 20.8401 0.549011H36.6619C38.1978 0.549011 39.451 1.80219 39.451 3.33811V14.1661ZM38.1961 14.1661V3.33811C38.1961 2.49325 37.5067 1.80391 36.6619 1.80391H20.8401C19.9953 1.80391 19.3059 2.49325 19.3059 3.33811V14.1661C19.3059 15.0107 19.9955 15.6971 20.8401 15.6971H22.6682C23.0147 15.6971 23.2957 15.978 23.2957 16.3245V19.1674L26.4442 15.8898C26.5625 15.7667 26.726 15.6971 26.8967 15.6971H36.6619C37.5064 15.6971 38.1961 15.0107 38.1961 14.1661ZM37.63 9.20917L35.73 10.9778C35.6139 11.0859 35.4611 11.146 35.3025 11.146H34.6456C34.4685 11.146 34.2995 11.0711 34.1806 10.9398L33.6788 10.386L33.1771 10.9398C33.0581 11.0711 32.8892 11.146 32.7119 11.146C32.5347 11.1459 32.3657 11.0709 32.2468 10.9394L31.7463 10.3863L31.2449 10.9398C31.126 11.0711 30.957 11.146 30.7799 11.146H27.6773C26.8973 12.33 25.5569 13.1117 24.0325 13.1117C21.6251 13.1117 19.6721 11.1588 19.6721 8.74987C19.6721 6.34234 21.625 4.38933 24.0325 4.38933C25.5569 4.38933 26.8973 5.17105 27.6772 6.35505H35.3025C35.461 6.35505 35.6137 6.41505 35.7298 6.52305L37.6298 8.29042C37.7574 8.40909 37.8299 8.57552 37.83 8.7498C37.83 8.92399 37.7576 9.09042 37.63 9.20917ZM36.2814 8.75003L35.0558 7.60995H27.322C27.0913 7.60995 26.8791 7.48336 26.7696 7.28023C26.2447 6.30666 25.2166 5.64423 24.0325 5.64423C22.3179 5.64423 20.927 7.03521 20.927 8.74987C20.927 10.4656 22.3178 11.8568 24.0325 11.8568C25.2166 11.8568 26.2447 11.1943 26.7696 10.2207C26.8791 10.0176 27.0913 9.89105 27.322 9.89105H30.5016L31.2816 9.03011C31.4006 8.89874 31.5696 8.82383 31.7468 8.82391C31.9241 8.82399 32.093 8.89897 32.2119 9.03042L32.7124 9.5836L33.2139 9.03011C33.3328 8.89882 33.5017 8.82391 33.6788 8.82391C33.856 8.82391 34.0249 8.89882 34.1438 9.03011L34.9238 9.89105H35.0556L36.2814 8.75003ZM23.1303 7.01317C24.0889 7.01317 24.867 7.79129 24.867 8.74987C24.867 9.71019 24.0887 10.4878 23.1303 10.4878C22.1701 10.4878 21.3923 9.71003 21.3923 8.74987C21.3923 7.79144 22.17 7.01317 23.1303 7.01317ZM23.1303 8.26807C22.8636 8.26807 22.6472 8.48376 22.6472 8.74987C22.6472 9.0167 22.8634 9.23293 23.1303 9.23293C23.3965 9.23293 23.6121 9.01654 23.6121 8.74987C23.6121 8.48391 23.3962 8.26807 23.1303 8.26807ZM28.7518 34.4364C25.23 34.4364 22.3569 31.5649 22.3569 28.0431C22.3569 24.5212 25.23 21.6481 28.7518 21.6481C32.2737 21.6481 35.1451 24.5212 35.1451 28.0431C35.1451 31.565 32.2738 34.4364 28.7518 34.4364ZM28.7518 33.1815C31.5825 33.1815 33.8902 30.8737 33.8902 28.0431C33.8902 25.2124 31.5825 22.903 28.7518 22.903C25.9211 22.903 23.6118 25.2124 23.6118 28.0431C23.6118 30.8738 25.9212 33.1815 28.7518 33.1815ZM27.9925 27.661L30.3517 25.2772L30.3529 25.276C30.9289 24.6969 31.8691 24.6942 32.4481 25.2703C33.0268 25.846 33.0307 26.7827 32.455 27.3643L32.4547 27.3646C31.3167 28.5129 30.1873 29.6681 29.0441 30.8114C28.4654 31.39 27.5258 31.39 26.9471 30.8114L25.0528 28.9152C24.4743 28.3369 24.4732 27.4007 25.0516 26.8194L25.0528 26.8183C25.6314 26.2396 26.5711 26.2396 27.1497 26.8183L27.9925 27.661ZM27.5511 28.9943L26.2623 27.7056C26.1736 27.6169 26.0296 27.6167 25.9406 27.705C25.852 27.7947 25.8511 27.9388 25.9401 28.0278L27.8345 29.924C27.9234 30.0129 28.0678 30.0129 28.1568 29.924C29.2985 28.7823 30.4265 27.6285 31.5631 26.4816C31.6514 26.3922 31.6519 26.2483 31.5631 26.1599C31.4745 26.0718 31.3308 26.0725 31.2427 26.1609L28.4408 28.9921C28.3233 29.1107 28.1634 29.1777 27.9964 29.1781C27.8294 29.1786 27.6692 29.1124 27.5511 28.9943Z" fill="#909090"/>
</g>
<defs>
<clipPath id="clip0_187_2390">
<rect width="40" height="40" fill="white"/>
</clipPath>
</defs>
<linearGradient id="gradient-fill" x1="20.7288" y1="24.7324" x2="17.4373" y2="0.30632" gradientUnits="userSpaceOnUse">
<stop stop-color="#0046D3"/>
<stop offset="0.519231" stop-color="#65B878"/>
<stop offset="1" stop-color="#9DF500"/>
</linearGradient>
</svg>